<svg width="16" height="13" viewBox="0 0 16 13" fill="none" xmlns="http://www.w3.org/2000/svg">
<path d="M15.5914 0.402196C15.336 0.142715 15.0168 0 14.6464 0H1.32801C0.970471 0 0.651237 0.129741 0.39585 0.402196C0.127694 0.661677 0 0.986028 0 1.3493V11.6377C0 12.014 0.127694 12.3253 0.39585 12.5978C0.651237 12.8573 0.970471 13 1.34078 13H14.6592C15.0295 13 15.336 12.8703 15.6041 12.5978C15.8595 12.3383 16 12.014 16 11.6377V1.3493C15.9745 0.986028 15.8468 0.661677 15.5914 0.402196ZM14.9146 11.6377C14.9146 11.7156 14.8891 11.7804 14.838 11.8323C14.7869 11.8842 14.7231 11.9102 14.6464 11.9102H1.32801C1.2514 11.9102 1.18755 11.8842 1.13647 11.8323C1.08539 11.7804 1.05986 11.7156 1.05986 11.6377V6.5H14.9146V11.6377ZM14.9146 3.24351H1.05986V1.3493C1.05986 1.28443 1.0854 1.21956 1.14924 1.16766C1.21309 1.11577 1.26417 1.08982 1.34078 1.08982H14.6592C14.7358 1.08982 14.7997 1.11577 14.8508 1.16766C14.9018 1.21956 14.9274 1.28443 14.9274 1.36228V3.24351H14.9146Z" fill="#BDBDBD"/>
<path d="M4.26529 9.74414H2.13281V10.821H4.26529V9.74414Z" fill="#BDBDBD"/>
<path d="M8.51753 9.74414H5.3252V10.821H8.51753V9.74414Z" fill="#BDBDBD"/>
</svg>
