<svg width="18" height="17" viewBox="0 0 18 17" fill="none" xmlns="http://www.w3.org/2000/svg">
<path d="M3.1793 15.4379C3.1793 14.5621 2.46216 13.8758 1.6016 13.8758C0.717135 13.8521 0 14.5621 0 15.4379C0 16.2899 0.717135 17 1.5777 17C2.46216 17 3.1793 16.2899 3.1793 15.4379Z" fill="#BDBDBD"/>
<path d="M18.0002 16.668H5.04395V14.2064H18.0002V16.668Z" fill="#BDBDBD"/>
<path d="M3.17981 8.92949C3.17981 8.05376 2.46267 7.36737 1.60211 7.36737C0.717645 7.36737 0.0244141 8.07743 0.0244141 8.92949C0.0244141 9.78156 0.741549 10.4916 1.60211 10.4916C2.46267 10.5153 3.17981 9.80523 3.17981 8.92949Z" fill="#BDBDBD"/>
<path d="M18.0002 10.1602H5.04395V7.69863H18.0002V10.1602Z" fill="#BDBDBD"/>
<path d="M3.1793 2.56093C3.1793 1.68519 2.46216 0.998805 1.6016 0.998805C0.717135 0.998805 0 1.68519 0 2.56093C0 3.43666 0.717135 4.12305 1.5777 4.12305C2.46216 4.12305 3.1793 3.43666 3.1793 2.56093Z" fill="#BDBDBD"/>
<path d="M18.0002 3.79297H5.04395V1.33144H18.0002V3.79297Z" fill="#BDBDBD"/>
</svg>
