<svg width="16" height="16" viewBox="0 0 16 16" fill="none" xmlns="http://www.w3.org/2000/svg">
<path d="M13.6563 2.34375C15.168 3.85547 16 5.86328 16 8C16 10.1367 15.168 12.1445 13.6563 13.6563C12.1445 15.168 10.1367 16 8 16C5.86328 16 3.85547 15.168 2.34375 13.6563C0.832031 12.1445 0 10.1367 0 8C0 5.86328 0.832031 3.85547 2.34375 2.34375C3.85547 0.832031 5.86328 0 8 0C10.1367 0 12.1445 0.832031 13.6563 2.34375ZM12.9492 12.9492C13.9336 11.9648 14.5898 10.7383 14.8594 9.40234C14.6484 9.71094 14.4492 9.82813 14.3242 9.13281C14.1953 8 13.1563 8.72266 12.5039 8.32422C11.8164 8.78906 10.2695 7.42187 10.5352 8.96094C10.9414 9.65625 12.7227 8.03125 11.8359 9.5C11.2695 10.5234 9.76172 12.7969 9.96094 13.9727C9.98438 15.6875 8.20703 14.332 7.59766 13.7617C7.1875 12.6211 7.45703 10.6328 6.37891 10.0742C5.21094 10.0234 4.20703 9.91797 3.75391 8.60937C3.48047 7.67578 4.04297 6.28125 5.04687 6.06641C6.51172 5.14453 7.03906 7.14453 8.41406 7.18359C8.83984 6.73828 10.0039 6.59375 10.1016 6.09375C9.19922 5.93359 11.2461 5.33594 10.0156 4.99219C9.33594 5.07031 8.89844 5.69531 9.26172 6.22656C7.94531 6.53516 7.90234 4.32031 6.63672 5.01953C6.60547 6.12109 4.57031 5.37891 5.93359 5.15234C6.40234 4.94922 5.17187 4.35547 5.83594 4.46484C6.16406 4.44531 7.26172 4.0625 6.96484 3.80078C7.57813 3.42188 8.09375 4.71094 8.69141 3.76953C9.125 3.04688 8.51172 2.91406 7.96875 3.28125C7.66406 2.9375 8.50781 2.19922 9.25391 1.87891C9.50391 1.77344 9.73828 1.71484 9.92188 1.73047C10.2969 2.16406 10.9922 2.23828 11.0312 1.67969C10.1016 1.23438 9.07422 1 8.01172 1C6.47656 1 5.02344 1.48438 3.82422 2.38281C4.14844 2.53125 4.32813 2.71484 4.01953 2.94922C3.77734 3.66797 2.79687 4.63672 1.9375 4.5C1.49219 5.26953 1.19531 6.11719 1.07031 7.00781C1.78906 7.24609 1.95703 7.71875 1.80078 7.875C1.43359 8.19531 1.20703 8.64844 1.08984 9.14453C1.32422 10.5781 2 11.9023 3.04688 12.9492C4.36719 14.2695 6.125 15 7.99609 15C9.87109 15 11.6289 14.2734 12.9492 12.9492Z" fill="#BDBDBD"/>
</svg>
