<svg width="19" height="19" viewBox="0 0 19 19" version="1.1" xmlns="http://www.w3.org/2000/svg" xmlns:xlink="http://www.w3.org/1999/xlink">
<title>Vector</title>
<desc>Created using Figma</desc>
<g id="Canvas" transform="translate(1756 -683)">
<g id="Vector">
<use xlink:href="#path0_fill" transform="translate(-1756 683)" fill="#E0E0E0"/>
</g>
</g>
<defs>
<path id="path0_fill" d="M 18.9 0L 18.9 9.4C 18.9 15.3 16.7 18.2 12.4 18.2C 11.9 18.2 11.2 18.2 10.2 18.1L 10.2 14.4C 13.2 14.4 14.7 13 14.7 10.3L 14.7 8.6L 11.6 8.6L 11.6 0L 18.9 0ZM 1 8.7L 4.1 8.7L 4.1 10.4C 4.1 13 2.7 14.4 -1.49012e-09 14.5L -1.49012e-09 18.2C 0.9 18.3 1.5 18.3 1.8 18.3C 6.1 18.3 8.3 15.4 8.3 9.5L 8.3 0L 1 0L 1 8.7Z"/>
</defs>
</svg>
