<svg width="8" height="11" viewBox="0 0 8 11" fill="none" xmlns="http://www.w3.org/2000/svg">
<path d="M4 0C1.79504 0 0 1.78767 0 3.98359C0 6.71023 3.57929 10.7132 3.73247 10.8808C3.87486 11.0398 4.12513 11.0398 4.26753 10.8808C4.42071 10.711 8 6.71023 8 3.98359C8.00216 1.78767 6.20712 0 4 0ZM4 5.98828C2.89105 5.98828 1.98705 5.088 1.98705 3.98359C1.98705 2.87919 2.89105 1.9789 4 1.9789C5.10895 1.9789 6.01294 2.87919 6.01294 3.98359C6.01294 5.088 5.11111 5.98828 4 5.98828Z" fill="#AEAEAE"/>
</svg>
