<svg width="14" height="11" viewBox="0 0 14 11" fill="none" xmlns="http://www.w3.org/2000/svg">
<path d="M3.77591 10.6832C4.19635 11.1056 4.87553 11.1056 5.29597 10.6832L10.503 5.45183C10.6539 5.30019 10.7689 5.12329 10.8408 4.93194C11.3655 5.07996 11.8721 5.15578 12.3213 5.15578C13.4317 5.14856 13.7983 4.66117 13.9205 4.36873C14.0426 4.0799 14.1289 3.47337 13.3491 2.67548L13.3239 2.65021C12.8424 2.16643 12.1381 1.71875 11.3439 1.3866C11.1966 1.32522 11.0492 1.27107 10.9055 1.22052V1.2133C10.8983 0.570663 10.3808 0.0543857 9.74477 0.0471651L6.62558 0.000230795C6.21232 -0.00698986 5.81344 0.155475 5.52596 0.451522L0.315333 5.68289C-0.105111 6.10169 -0.105111 6.78765 0.315333 7.21006L3.77591 10.6832ZM7.78989 1.87038C8.13846 1.52018 8.70265 1.52018 9.04762 1.87038C9.25605 2.07978 9.3387 2.365 9.29917 2.63216C9.64056 2.87405 10.0502 3.1015 10.485 3.28202C10.6396 3.34701 10.7905 3.40477 10.9342 3.4517L10.9163 2.1917C10.9414 2.20253 10.9666 2.21336 10.9917 2.22419C11.6745 2.50941 12.2854 2.89571 12.6807 3.29285L12.6987 3.3109C13.0724 3.6936 13.1119 3.9391 13.0796 4.01492C12.9825 4.24959 11.9332 4.45538 10.3413 3.79108C9.87414 3.59612 9.43932 3.35062 9.08356 3.09067C9.07278 3.10511 9.0584 3.11955 9.04762 3.134C8.69905 3.4842 8.13487 3.4842 7.78989 3.134C7.44131 2.7874 7.44131 2.22058 7.78989 1.87038Z" fill="#AEAEAE"/>
</svg>
