<svg width="23" height="20" viewBox="0 0 23 20" fill="none" xmlns="http://www.w3.org/2000/svg">
<path d="M22.9079 2.91068C22.8155 2.82118 22.7187 2.72743 22.5339 2.72743H4.69422L4.22336 0.362236C4.22336 0.178987 3.94173 0 3.75251 0H0.936181C0.658949 0 0.469727 0.183249 0.469727 0.455992C0.469727 0.728734 0.658948 0.911983 0.940581 0.911983H3.38286L5.63593 12.0049C5.91756 13.4581 7.32572 14.5491 8.82629 14.5491H19.6207C19.9024 14.5491 20.0916 14.3659 20.0916 14.0931C20.0916 13.8204 19.9024 13.6371 19.6207 13.6371H8.91871C8.16622 13.6371 7.41813 13.2749 7.03969 12.6357L20.7473 10.816C20.9365 10.816 21.1213 10.6327 21.1213 10.4537L23.0003 3.18342C23.0003 3.18342 23.0003 3.00017 22.9079 2.91068Z" fill="#4F4F4F"/>
<path d="M8.44703 15.457C7.13128 15.457 6.10156 16.4585 6.10156 17.7285C6.10156 19.0027 7.13568 19.9999 8.44703 19.9999C9.75839 19.9999 10.7925 18.9984 10.7925 17.7285C10.7969 16.4542 9.76279 15.457 8.44703 15.457ZM8.44703 19.0922C7.69455 19.0922 7.03887 18.4572 7.03887 17.7285C7.03887 16.9997 7.69455 16.3648 8.44703 16.3648C9.19952 16.3648 9.8552 16.9997 9.8552 17.7285C9.8552 18.4572 9.19952 19.0922 8.44703 19.0922Z" fill="#4F4F4F"/>
<path d="M17.8386 15.457C16.5229 15.457 15.4932 16.4585 15.4932 17.7285C15.4932 19.0027 16.5273 19.9999 17.8386 19.9999C19.1544 19.9999 20.1841 18.9984 20.1841 17.7285C20.1841 16.4542 19.15 15.457 17.8386 15.457ZM17.8386 19.0922C17.0861 19.0922 16.4305 18.4572 16.4305 17.7285C16.4305 16.9997 17.0861 16.3648 17.8386 16.3648C18.5911 16.3648 19.2468 16.9997 19.2468 17.7285C19.2468 18.4572 18.5867 19.0922 17.8386 19.0922Z" fill="#4F4F4F"/>
</svg>
