<svg width="18" height="15" viewBox="0 0 18 15" version="1.1" xmlns="http://www.w3.org/2000/svg" xmlns:xlink="http://www.w3.org/1999/xlink">
<title>Vector</title>
<desc>Created using Figma</desc>
<g id="Canvas" transform="translate(-10866 -3651)">
<g id="Vector">
<use xlink:href="#path0_fill" transform="translate(10866 3651)" fill="#FFFFFF"/>
</g>
</g>
<defs>
<path id="path0_fill" d="M 17.3241 0.854773L 16.8425 0.454635C 16.0442 -0.212262 14.8423 -0.136681 14.1359 0.623582L 6.07114 9.28435L 3.63521 7.25254C 2.837 6.58564 1.63509 6.65678 0.928624 7.41704L 0.501993 7.87498C 0.157935 8.24399 -0.0209755 8.73305 0.00196166 9.231C 0.0294863 9.72895 0.258858 10.1958 0.644203 10.5337L 5.10319 14.4906C 5.48854 14.8418 6.00692 15.0241 6.53447 14.9974C 7.06203 14.9708 7.55747 14.7351 7.90153 14.3439L 17.5306 3.50902C 17.8654 3.13111 18.0352 2.63761 17.9939 2.13966C 17.9572 1.64171 17.7141 1.17933 17.3241 0.854773Z"/>
</defs>
</svg>
