<svg width="372" height="47" viewBox="0 0 372 47" fill="none" xmlns="http://www.w3.org/2000/svg">
<rect width="372" height="47" fill="black" fill-opacity="0"/>
<rect width="372" height="47" fill="black" fill-opacity="0"/>
<rect x="2.5" y="0.5" width="369" height="46" stroke="#D9D9D9"/>
<path d="M110.239 30.216C111.769 30.216 112.903 29.586 113.839 28.506L113.101 27.678C112.309 28.542 111.445 29.046 110.293 29.046C107.971 29.046 106.513 27.102 106.513 24.06C106.513 21.018 108.025 19.128 110.347 19.128C111.373 19.128 112.183 19.596 112.795 20.28L113.533 19.398C112.867 18.66 111.751 17.958 110.329 17.958C107.323 17.958 105.127 20.298 105.127 24.096C105.127 27.912 107.305 30.216 110.239 30.216ZM119.299 30.216C121.423 30.216 123.313 28.542 123.313 25.644C123.313 22.746 121.423 21.054 119.299 21.054C117.175 21.054 115.285 22.746 115.285 25.644C115.285 28.542 117.175 30.216 119.299 30.216ZM119.299 29.118C117.733 29.118 116.653 27.732 116.653 25.644C116.653 23.574 117.733 22.152 119.299 22.152C120.865 22.152 121.963 23.574 121.963 25.644C121.963 27.732 120.865 29.118 119.299 29.118ZM125.69 30H126.986V23.61C127.904 22.674 128.57 22.206 129.488 22.206C130.712 22.206 131.216 22.944 131.216 24.618V30H132.53V24.456C132.53 22.224 131.702 21.054 129.866 21.054C128.678 21.054 127.778 21.72 126.932 22.566H126.878L126.77 21.27H125.69V30ZM138.11 30.216C138.614 30.216 139.19 30.054 139.676 29.892L139.406 28.902C139.118 29.01 138.704 29.136 138.398 29.136C137.336 29.136 137.012 28.488 137.012 27.408V22.35H139.406V21.27H137.012V18.804H135.914L135.752 21.27L134.384 21.36V22.35H135.698V27.372C135.698 29.064 136.292 30.216 138.11 30.216ZM142.089 19.398C142.611 19.398 142.989 19.038 142.989 18.48C142.989 17.958 142.611 17.598 142.089 17.598C141.567 17.598 141.189 17.958 141.189 18.48C141.189 19.038 141.567 19.398 142.089 19.398ZM141.423 30H142.719V21.27H141.423V30ZM145.782 30H147.078V23.61C147.996 22.674 148.662 22.206 149.58 22.206C150.804 22.206 151.308 22.944 151.308 24.618V30H152.622V24.456C152.622 22.224 151.794 21.054 149.958 21.054C148.77 21.054 147.87 21.72 147.024 22.566H146.97L146.862 21.27H145.782V30ZM158.075 30.216C159.281 30.216 160.163 29.568 160.973 28.614H161.027L161.135 30H162.233V21.27H160.919V27.534C160.037 28.614 159.389 29.082 158.471 29.082C157.247 29.082 156.725 28.326 156.725 26.652V21.27H155.429V26.814C155.429 29.046 156.257 30.216 158.075 30.216ZM171.936 25.14C171.936 22.62 170.676 21.054 168.498 21.054C166.5 21.054 164.592 22.818 164.592 25.644C164.592 28.506 166.446 30.216 168.732 30.216C169.956 30.216 170.838 29.802 171.594 29.316L171.108 28.452C170.46 28.884 169.758 29.154 168.894 29.154C167.31 29.154 165.978 28.056 165.852 25.932H171.882C171.918 25.716 171.936 25.428 171.936 25.14ZM165.888 24.978C166.104 23.016 167.328 22.116 168.516 22.116C169.92 22.116 170.766 23.106 170.766 24.978H165.888ZM179.107 30H180.637L181.933 25.158C182.185 24.33 182.365 23.502 182.563 22.62H182.635C182.851 23.502 183.013 24.294 183.229 25.122L184.561 30H186.181L188.557 21.27H187.297L185.965 26.472L185.389 28.884H185.317C185.119 28.074 184.921 27.3 184.705 26.472L183.283 21.27H181.969L180.565 26.472C180.349 27.282 180.151 28.074 179.953 28.884H179.881C179.719 28.074 179.539 27.3 179.359 26.472L177.991 21.27H176.641L179.107 30ZM191.184 19.398C191.706 19.398 192.084 19.038 192.084 18.48C192.084 17.958 191.706 17.598 191.184 17.598C190.662 17.598 190.284 17.958 190.284 18.48C190.284 19.038 190.662 19.398 191.184 19.398ZM190.518 30H191.814V21.27H190.518V30ZM197.524 30.216C198.028 30.216 198.604 30.054 199.09 29.892L198.82 28.902C198.532 29.01 198.118 29.136 197.812 29.136C196.75 29.136 196.426 28.488 196.426 27.408V22.35H198.82V21.27H196.426V18.804H195.328L195.166 21.27L193.798 21.36V22.35H195.112V27.372C195.112 29.064 195.706 30.216 197.524 30.216ZM200.837 30H202.133V23.61C203.051 22.674 203.717 22.206 204.635 22.206C205.859 22.206 206.363 22.944 206.363 24.618V30H207.677V24.456C207.677 22.224 206.849 21.054 205.013 21.054C203.825 21.054 202.925 21.72 202.097 22.548L202.133 20.712V17.148H200.837V30ZM219.165 30.216C220.785 30.216 222.189 29.586 222.999 28.794V23.466H218.769V25.482H220.803V27.678C220.479 27.93 219.939 28.074 219.417 28.074C217.149 28.074 216.015 26.598 216.015 24.096C216.015 21.648 217.329 20.172 219.237 20.172C220.263 20.172 220.911 20.586 221.505 21.126L222.801 19.542C222.027 18.768 220.839 18.03 219.147 18.03C216.015 18.03 213.477 20.298 213.477 24.186C213.477 28.11 215.943 30.216 219.165 30.216ZM229.043 30.216C231.275 30.216 233.345 28.506 233.345 25.554C233.345 22.584 231.275 20.874 229.043 20.874C226.793 20.874 224.741 22.584 224.741 25.554C224.741 28.506 226.793 30.216 229.043 30.216ZM229.043 28.218C227.873 28.218 227.261 27.174 227.261 25.554C227.261 23.934 227.873 22.872 229.043 22.872C230.195 22.872 230.825 23.934 230.825 25.554C230.825 27.174 230.195 28.218 229.043 28.218ZM238.992 30.216C241.224 30.216 243.294 28.506 243.294 25.554C243.294 22.584 241.224 20.874 238.992 20.874C236.742 20.874 234.69 22.584 234.69 25.554C234.69 28.506 236.742 30.216 238.992 30.216ZM238.992 28.218C237.822 28.218 237.21 27.174 237.21 25.554C237.21 23.934 237.822 22.872 238.992 22.872C240.144 22.872 240.774 23.934 240.774 25.554C240.774 27.174 240.144 28.218 238.992 28.218ZM248.329 33.834C251.335 33.834 253.225 32.484 253.225 30.666C253.225 29.082 252.037 28.416 249.877 28.416H248.383C247.375 28.416 247.015 28.164 247.015 27.714C247.015 27.372 247.141 27.192 247.375 26.994C247.771 27.12 248.149 27.174 248.491 27.174C250.417 27.174 251.965 26.202 251.965 24.168C251.965 23.664 251.803 23.178 251.587 22.89H253.081V21.09H249.859C249.463 20.964 248.995 20.874 248.491 20.874C246.601 20.874 244.873 21.99 244.873 24.096C244.873 25.14 245.431 25.968 246.061 26.418V26.49C245.503 26.868 245.071 27.498 245.071 28.146C245.071 28.884 245.413 29.352 245.881 29.658V29.73C245.053 30.198 244.603 30.81 244.603 31.566C244.603 33.132 246.241 33.834 248.329 33.834ZM248.491 25.68C247.753 25.68 247.177 25.122 247.177 24.096C247.177 23.088 247.735 22.548 248.491 22.548C249.247 22.548 249.823 23.088 249.823 24.096C249.823 25.122 249.247 25.68 248.491 25.68ZM248.707 32.286C247.447 32.286 246.637 31.89 246.637 31.17C246.637 30.828 246.817 30.504 247.195 30.198C247.501 30.288 247.861 30.324 248.419 30.324H249.445C250.363 30.324 250.867 30.468 250.867 31.08C250.867 31.746 249.985 32.286 248.707 32.286ZM257.01 30.216C257.586 30.216 257.982 30.126 258.27 30.018L257.964 28.182C257.82 28.218 257.748 28.218 257.64 28.218C257.424 28.218 257.172 28.038 257.172 27.498V17.346H254.724V27.39C254.724 29.1 255.318 30.216 257.01 30.216ZM267.167 25.14C267.167 22.692 265.907 20.874 263.405 20.874C261.281 20.874 259.247 22.656 259.247 25.554C259.247 28.488 261.191 30.216 263.711 30.216C264.791 30.216 265.943 29.838 266.825 29.226L266.015 27.732C265.367 28.11 264.737 28.326 264.035 28.326C262.919 28.326 261.803 27.768 261.551 26.256H267.059C267.113 26.04 267.167 25.59 267.167 25.14ZM261.587 24.618C261.839 23.286 262.649 22.764 263.459 22.764C264.575 22.764 265.061 23.502 265.061 24.618H261.587Z" fill="#4C4C4C"/>
<rect width="25" height="25" fill="black" fill-opacity="0" transform="translate(62 11)"/>
<mask id="mask0" mask-type="alpha" maskUnits="userSpaceOnUse" x="62" y="11" width="25" height="25">
<path d="M74.5 26H81.5703C80.5391 28.9062 77.7578 31 74.5 31C70.3672 31 67 27.6328 67 23.5C67 19.3672 70.3672 16 74.5 16C76.2891 16 78.0156 16.6406 79.3594 17.8125L82.6406 14.0391C80.3906 12.0781 77.5 11 74.5 11C67.6094 11 62 16.6094 62 23.5C62 30.3906 67.6094 36 74.5 36C81.3906 36 87 30.3906 87 23.5V21H74.5V26Z" fill="black"/>
</mask>
<g mask="url(#mask0)">
<path d="M62.9375 32.1719C63.1719 31.9375 70.6719 24.2812 70.6719 24.2812L70.5547 21.3125L56.6875 12.6406L62.9375 32.1719Z" fill="#EFBA00"/>
<path d="M70.1748 23.2395L55.1426 13.9181L82.1567 7.5625C82.1567 7.5625 84.8911 15.2969 84.3442 16C83.7973 16.7031 82.0004 19.5156 81.0629 19.6719C80.1254 19.8281 70.1748 23.2395 70.1748 23.2395Z" fill="#D83F28"/>
<path d="M77.3906 29.2031L86.2969 34.0469C86.2969 34.0469 80.4375 40.5312 80.125 40.6094C79.8125 40.6875 66.4531 38.5 65.5156 37.875C64.5781 37.25 62.9375 32.1719 62.9375 32.1719L70.6719 24.2812L77.3906 29.2031Z" fill="#55A84A"/>
<path d="M72.9375 22.4062L74.5 21L88.7188 20.2969L86.2969 34.0469L77.3906 29.2031L71.7422 25.0625L72.9375 22.4062Z" fill="#5B87FA"/>
</g>
</svg>
