<svg width="372" height="47" viewBox="0 0 372 47" fill="none" xmlns="http://www.w3.org/2000/svg">
<rect width="372" height="47" fill="black" fill-opacity="0"/>
<rect width="372" height="47" fill="black" fill-opacity="0"/>
<rect x="2" width="370" height="47" fill="#405A9A"/>
<path d="M100.273 30.216C101.803 30.216 102.937 29.586 103.873 28.506L103.135 27.678C102.343 28.542 101.479 29.046 100.327 29.046C98.0046 29.046 96.5466 27.102 96.5466 24.06C96.5466 21.018 98.0586 19.128 100.381 19.128C101.407 19.128 102.217 19.596 102.829 20.28L103.567 19.398C102.901 18.66 101.785 17.958 100.363 17.958C97.3566 17.958 95.1606 20.298 95.1606 24.096C95.1606 27.912 97.3386 30.216 100.273 30.216ZM109.333 30.216C111.457 30.216 113.347 28.542 113.347 25.644C113.347 22.746 111.457 21.054 109.333 21.054C107.209 21.054 105.319 22.746 105.319 25.644C105.319 28.542 107.209 30.216 109.333 30.216ZM109.333 29.118C107.767 29.118 106.687 27.732 106.687 25.644C106.687 23.574 107.767 22.152 109.333 22.152C110.899 22.152 111.997 23.574 111.997 25.644C111.997 27.732 110.899 29.118 109.333 29.118ZM115.723 30H117.019V23.61C117.937 22.674 118.603 22.206 119.521 22.206C120.745 22.206 121.249 22.944 121.249 24.618V30H122.563V24.456C122.563 22.224 121.735 21.054 119.899 21.054C118.711 21.054 117.811 21.72 116.965 22.566H116.911L116.803 21.27H115.723V30ZM128.143 30.216C128.647 30.216 129.223 30.054 129.709 29.892L129.439 28.902C129.151 29.01 128.737 29.136 128.431 29.136C127.369 29.136 127.045 28.488 127.045 27.408V22.35H129.439V21.27H127.045V18.804H125.947L125.785 21.27L124.417 21.36V22.35H125.731V27.372C125.731 29.064 126.325 30.216 128.143 30.216ZM132.122 19.398C132.644 19.398 133.022 19.038 133.022 18.48C133.022 17.958 132.644 17.598 132.122 17.598C131.6 17.598 131.222 17.958 131.222 18.48C131.222 19.038 131.6 19.398 132.122 19.398ZM131.456 30H132.752V21.27H131.456V30ZM135.815 30H137.111V23.61C138.029 22.674 138.695 22.206 139.613 22.206C140.837 22.206 141.341 22.944 141.341 24.618V30H142.655V24.456C142.655 22.224 141.827 21.054 139.991 21.054C138.803 21.054 137.903 21.72 137.057 22.566H137.003L136.895 21.27H135.815V30ZM148.109 30.216C149.315 30.216 150.197 29.568 151.007 28.614H151.061L151.169 30H152.267V21.27H150.953V27.534C150.071 28.614 149.423 29.082 148.505 29.082C147.281 29.082 146.759 28.326 146.759 26.652V21.27H145.463V26.814C145.463 29.046 146.291 30.216 148.109 30.216ZM161.969 25.14C161.969 22.62 160.709 21.054 158.531 21.054C156.533 21.054 154.625 22.818 154.625 25.644C154.625 28.506 156.479 30.216 158.765 30.216C159.989 30.216 160.871 29.802 161.627 29.316L161.141 28.452C160.493 28.884 159.791 29.154 158.927 29.154C157.343 29.154 156.011 28.056 155.885 25.932H161.915C161.951 25.716 161.969 25.428 161.969 25.14ZM155.921 24.978C156.137 23.016 157.361 22.116 158.549 22.116C159.953 22.116 160.799 23.106 160.799 24.978H155.921ZM169.14 30H170.67L171.966 25.158C172.218 24.33 172.398 23.502 172.596 22.62H172.668C172.884 23.502 173.046 24.294 173.262 25.122L174.594 30H176.214L178.59 21.27H177.33L175.998 26.472L175.422 28.884H175.35C175.152 28.074 174.954 27.3 174.738 26.472L173.316 21.27H172.002L170.598 26.472C170.382 27.282 170.184 28.074 169.986 28.884H169.914C169.752 28.074 169.572 27.3 169.392 26.472L168.024 21.27H166.674L169.14 30ZM181.217 19.398C181.739 19.398 182.117 19.038 182.117 18.48C182.117 17.958 181.739 17.598 181.217 17.598C180.695 17.598 180.317 17.958 180.317 18.48C180.317 19.038 180.695 19.398 181.217 19.398ZM180.551 30H181.847V21.27H180.551V30ZM187.557 30.216C188.061 30.216 188.637 30.054 189.123 29.892L188.853 28.902C188.565 29.01 188.151 29.136 187.845 29.136C186.783 29.136 186.459 28.488 186.459 27.408V22.35H188.853V21.27H186.459V18.804H185.361L185.199 21.27L183.831 21.36V22.35H185.145V27.372C185.145 29.064 185.739 30.216 187.557 30.216ZM190.87 30H192.166V23.61C193.084 22.674 193.75 22.206 194.668 22.206C195.892 22.206 196.396 22.944 196.396 24.618V30H197.71V24.456C197.71 22.224 196.882 21.054 195.046 21.054C193.858 21.054 192.958 21.72 192.13 22.548L192.166 20.712V17.148H190.87V30ZM204.086 30H206.552V25.32H210.692V23.25H206.552V20.316H211.394V18.246H204.086V30ZM214.768 30.216C215.776 30.216 216.64 29.73 217.414 29.064H217.468L217.648 30H219.664V24.852C219.664 22.206 218.458 20.874 216.19 20.874C214.786 20.874 213.526 21.378 212.446 22.044L213.328 23.664C214.156 23.178 214.93 22.836 215.722 22.836C216.766 22.836 217.162 23.448 217.198 24.276C213.634 24.654 212.122 25.662 212.122 27.552C212.122 29.064 213.166 30.216 214.768 30.216ZM215.578 28.308C214.912 28.308 214.48 28.002 214.48 27.354C214.48 26.616 215.146 26.04 217.198 25.77V27.48C216.676 27.984 216.226 28.308 215.578 28.308ZM225.81 30.216C226.8 30.216 227.88 29.892 228.744 29.136L227.772 27.534C227.286 27.912 226.71 28.218 226.08 28.218C224.856 28.218 223.974 27.174 223.974 25.554C223.974 23.934 224.838 22.872 226.17 22.872C226.638 22.872 227.016 23.052 227.466 23.43L228.636 21.846C227.97 21.288 227.142 20.874 226.026 20.874C223.596 20.874 221.454 22.584 221.454 25.554C221.454 28.506 223.344 30.216 225.81 30.216ZM237.266 25.14C237.266 22.692 236.006 20.874 233.504 20.874C231.38 20.874 229.346 22.656 229.346 25.554C229.346 28.488 231.29 30.216 233.81 30.216C234.89 30.216 236.042 29.838 236.924 29.226L236.114 27.732C235.466 28.11 234.836 28.326 234.134 28.326C233.018 28.326 231.902 27.768 231.65 26.256H237.158C237.212 26.04 237.266 25.59 237.266 25.14ZM231.686 24.618C231.938 23.286 232.748 22.764 233.558 22.764C234.674 22.764 235.16 23.502 235.16 24.618H231.686ZM243.686 30.216C245.63 30.216 247.448 28.452 247.448 25.392C247.448 22.656 246.116 20.874 243.938 20.874C243.074 20.874 242.21 21.288 241.526 21.9L241.58 20.496V17.346H239.132V30H241.058L241.256 29.046H241.328C242.048 29.802 242.876 30.216 243.686 30.216ZM243.128 28.2C242.66 28.2 242.102 28.038 241.58 27.57V23.754C242.156 23.16 242.678 22.89 243.254 22.89C244.406 22.89 244.928 23.772 244.928 25.428C244.928 27.336 244.136 28.2 243.128 28.2ZM253.16 30.216C255.392 30.216 257.462 28.506 257.462 25.554C257.462 22.584 255.392 20.874 253.16 20.874C250.91 20.874 248.858 22.584 248.858 25.554C248.858 28.506 250.91 30.216 253.16 30.216ZM253.16 28.218C251.99 28.218 251.378 27.174 251.378 25.554C251.378 23.934 251.99 22.872 253.16 22.872C254.312 22.872 254.942 23.934 254.942 25.554C254.942 27.174 254.312 28.218 253.16 28.218ZM263.109 30.216C265.341 30.216 267.411 28.506 267.411 25.554C267.411 22.584 265.341 20.874 263.109 20.874C260.859 20.874 258.807 22.584 258.807 25.554C258.807 28.506 260.859 30.216 263.109 30.216ZM263.109 28.218C261.939 28.218 261.327 27.174 261.327 25.554C261.327 23.934 261.939 22.872 263.109 22.872C264.261 22.872 264.891 23.934 264.891 25.554C264.891 27.174 264.261 28.218 263.109 28.218ZM269.296 30H271.69V27.786L272.914 26.4L275.002 30H277.666L274.318 24.744L277.414 21.09H274.732L271.762 24.816H271.69V17.346H269.296V30Z" fill="white"/>
<rect width="14" height="25" fill="black" fill-opacity="0" transform="translate(66 11)"/>
<rect width="14" height="25" fill="black" fill-opacity="0" transform="translate(66 11)"/>
<rect width="14" height="25" fill="black" fill-opacity="0" transform="translate(66 11)"/>
<path d="M79.4615 11H76.0962C72.3269 11 69.9038 13.4057 69.9038 17.1443V19.9727H66.5385C66.2356 19.9727 66 20.2003 66 20.4928V24.5891C66 24.8817 66.2356 25.1092 66.5385 25.1092H69.9038V35.4798C69.9038 35.7724 70.1394 36 70.4423 36H74.851C75.1538 36 75.3894 35.7724 75.3894 35.4798V25.1092H79.3269C79.6298 25.1092 79.8654 24.8817 79.8654 24.5891V20.4928C79.8654 20.3628 79.7981 20.2328 79.6971 20.1352C79.5962 20.0377 79.4615 19.9727 79.3269 19.9727H75.3558V17.567C75.3558 16.3966 75.625 15.8114 77.2067 15.8114H79.4615C79.7644 15.8114 80 15.5839 80 15.2913V11.5202C80 11.2276 79.7644 11 79.4615 11Z" fill="white"/>
</svg>
