<svg width="8" height="13" viewBox="0 0 8 13" version="1.1" xmlns="http://www.w3.org/2000/svg" xmlns:xlink="http://www.w3.org/1999/xlink">
<title>Group</title>
<desc>Created using Figma</desc>
<g id="Canvas" transform="translate(1086 820)">
<g id="Group">
<g id="Group">
<g id="Vector">
<use xlink:href="#path0_fill" transform="translate(-1086 -820)" fill="#68C7FC"/>
</g>
</g>
</g>
</g>
<defs>
<path id="path0_fill" d="M 7.69231 0L 5.76923 0C 3.61538 0 2.23077 1.25098 2.23077 3.19506L 2.23077 4.6658L 0.307692 4.6658C 0.134615 4.6658 0 4.78414 0 4.93628L 0 7.06632C 0 7.21847 0.134615 7.3368 0.307692 7.3368L 2.23077 7.3368L 2.23077 12.7295C 2.23077 12.8817 2.36538 13 2.53846 13L 5.05769 13C 5.23077 13 5.36538 12.8817 5.36538 12.7295L 5.36538 7.3368L 7.61538 7.3368C 7.78846 7.3368 7.92308 7.21847 7.92308 7.06632L 7.92308 4.93628C 7.92308 4.86866 7.88462 4.80104 7.82692 4.75033C 7.76923 4.69961 7.69231 4.6658 7.61538 4.6658L 5.34615 4.6658L 5.34615 3.41482C 5.34615 2.80624 5.5 2.50195 6.40385 2.50195L 7.69231 2.50195C 7.86539 2.50195 8 2.38362 8 2.23147L 8 0.270481C 8 0.118336 7.86539 0 7.69231 0Z"/>
</defs>
</svg>
