<svg width="8" height="13" viewBox="0 0 8 13" fill="none" xmlns="http://www.w3.org/2000/svg">
<path d="M7.69231 0H5.76923C3.61538 0 2.23077 1.25098 2.23077 3.19506V4.6658H0.307692C0.134615 4.6658 0 4.78414 0 4.93628V7.06632C0 7.21847 0.134615 7.3368 0.307692 7.3368H2.23077V12.7295C2.23077 12.8817 2.36538 13 2.53846 13H5.05769C5.23077 13 5.36538 12.8817 5.36538 12.7295V7.3368H7.61538C7.78846 7.3368 7.92308 7.21847 7.92308 7.06632V4.93628C7.92308 4.86866 7.88462 4.80104 7.82692 4.75033C7.76923 4.69961 7.69231 4.6658 7.61538 4.6658H5.34615V3.41482C5.34615 2.80624 5.5 2.50195 6.40385 2.50195H7.69231C7.86538 2.50195 8 2.38362 8 2.23147V0.270481C8 0.118336 7.86538 0 7.69231 0Z" fill="#2D9CDB"/>
</svg>
