<svg width="270" height="212" viewBox="0 0 270 212" fill="none" xmlns="http://www.w3.org/2000/svg">
<rect x="1" y="1" width="268" height="210" fill="#F8F8F8"/>
<path d="M135 81.75C130.71 81.75 127.2 85.2938 127.2 89.625C127.2 93.9562 130.71 97.5 135 97.5C139.29 97.5 142.8 93.9562 142.8 89.625C142.8 85.2938 139.29 81.75 135 81.75ZM155.8 73.875H149.56C148.715 73.875 147.805 73.2188 147.48 72.3656L145.855 67.5094C145.595 66.6562 144.685 66 143.84 66H126.16C125.315 66 124.405 66.6562 124.08 67.5094L122.455 72.3656C122.195 73.2188 121.285 73.875 120.44 73.875H114.2C111.34 73.875 109 76.2375 109 79.125V102.75C109 105.638 111.34 108 114.2 108H155.8C158.66 108 161 105.638 161 102.75V79.125C161 76.2375 158.66 73.875 155.8 73.875ZM135 102.75C127.85 102.75 122 96.8438 122 89.625C122 82.4062 127.85 76.5 135 76.5C142.15 76.5 148 82.4062 148 89.625C148 96.8438 142.15 102.75 135 102.75ZM153.98 82.8C153.005 82.8 152.16 81.9469 152.16 80.9625C152.16 79.9781 153.005 79.125 153.98 79.125C154.955 79.125 155.8 79.9781 155.8 80.9625C155.8 81.9469 154.955 82.8 153.98 82.8Z" fill="#CACACA"/>
<rect x="1" y="1" width="268" height="210" stroke="#DDE1E7" stroke-dasharray="10 10"/>
</svg>
