<svg width="198" height="140" viewBox="0 0 198 140" version="1.1" xmlns="http://www.w3.org/2000/svg" xmlns:xlink="http://www.w3.org/1999/xlink">
<title>logo 2.1</title>
<desc>Created using Figma</desc>
<g id="Canvas" transform="translate(2070 -1483)">
<g id="logo 2.1">
<g id="Group">
<g id="Group">
<g id="Group">
<g id="Group">
<g id="Vector">
<use xlink:href="#path0_fill" transform="translate(-2070 1533.71)" fill="#FFFFFF"/>
</g>
</g>
<g id="Group">
<g id="Vector">
<use xlink:href="#path1_fill" transform="translate(-2046.19 1533.45)" fill="#FFFFFF"/>
</g>
</g>
</g>
</g>
<g id="Group">
<g id="Vector">
<use xlink:href="#path2_fill" transform="translate(-1999.34 1483.08)" fill="#FFFFFF"/>
</g>
<g id="Vector">
<use xlink:href="#path3_fill" transform="translate(-1983.62 1483.01)" fill="#FFFFFF"/>
</g>
<g id="Vector">
<use xlink:href="#path4_fill" transform="translate(-2043.99 1483.01)" fill="#FFFFFF"/>
</g>
<g id="Vector">
<use xlink:href="#path5_fill" transform="translate(-2012.8 1483.17)" fill="#FFFFFF"/>
</g>
<g id="Vector">
<use xlink:href="#path6_fill" transform="translate(-2026.65 1483.1)" fill="#FFFFFF"/>
</g>
<g id="Vector">
<use xlink:href="#path7_fill" transform="translate(-1915.29 1483)" fill="#FFFFFF"/>
</g>
<g id="Vector">
<use xlink:href="#path8_fill" transform="translate(-1943.5 1483.09)" fill="#FFFFFF"/>
</g>
<g id="Vector">
<use xlink:href="#path9_fill" transform="translate(-1961.1 1483.04)" fill="#FFFFFF"/>
</g>
<g id="Vector">
<use xlink:href="#path10_fill" transform="translate(-1928.42 1483.11)" fill="#FFFFFF"/>
</g>
<g id="Vector">
<use xlink:href="#path11_fill" transform="translate(-1973.65 1495.85)" fill="#FFFFFF"/>
</g>
</g>
<g id="Vector">
<use xlink:href="#path12_fill" transform="translate(-1999.66 1505.91)" fill="#FFFFFF"/>
</g>
<g id="Vector">
<use xlink:href="#path13_fill" transform="translate(-1988.66 1505.91)" fill="#FFFFFF"/>
</g>
<g id="Vector">
<use xlink:href="#path14_fill" transform="translate(-1978.7 1505.91)" fill="#FFFFFF"/>
</g>
<g id="Vector">
<use xlink:href="#path15_fill" transform="translate(-1970.42 1505.91)" fill="#FFFFFF"/>
</g>
<g id="Vector">
<use xlink:href="#path16_fill" transform="translate(-1964.85 1505.91)" fill="#FFFFFF"/>
</g>
<g id="Vector">
<use xlink:href="#path17_fill" transform="translate(-1954.82 1505.91)" fill="#FFFFFF"/>
</g>
<g id="Vector">
<use xlink:href="#path18_fill" transform="translate(-2069.87 1533.84)" fill="#FFFFFF"/>
</g>
</g>
</g>
</g>
<defs>
<path id="path0_fill" d="M 46.6528 37.5357C 46.394 36.7671 45.8764 36.2546 45.3587 35.9343C 44.9058 35.6781 44.5823 35.7422 44.2587 35.4219C 43.8705 35.0376 43.7411 34.9095 43.2881 34.7814C 42.447 34.4611 42.0587 34.0127 41.4764 33.4362C 41.2176 33.18 41.347 32.7957 41.347 32.4114C 41.347 31.8989 40.894 31.6427 40.7646 31.1303C 40.5058 30.3616 39.9234 29.7211 39.7293 29.0165C 39.5352 28.2479 39.3411 27.7995 39.0823 27.223C 39.0176 27.0308 38.7587 27.0949 38.694 26.9668C 38.4999 26.7106 38.4352 26.2622 38.3058 26.006C 38.2411 25.8138 37.9823 25.8779 37.8528 25.7497C 37.5293 25.3654 37.0764 24.7249 37.0764 24.1484C 37.0764 23.7641 37.2705 23.3157 37.3999 23.1876C 37.6587 22.6752 38.2411 22.5471 38.3705 22.0346C 38.1117 21.8425 38.1117 21.9706 37.9176 21.9706C 37.5293 21.9706 37.4646 21.33 37.4646 20.8176C 37.4646 20.0489 38.2411 20.177 38.1117 18.7679C 38.9529 18.7679 39.147 17.8711 39.3411 17.3587C 39.6646 16.6541 40.4411 16.8462 40.6352 15.9495C 40.5058 15.8854 40.3117 15.6933 40.3117 15.6292L 40.4411 15.373L 40.4411 15.1808C 40.4411 14.9246 40.247 14.7324 40.247 14.4762C 40.247 14.0919 40.3764 13.9638 40.3764 13.6435C 40.3764 12.9389 39.794 13.067 39.794 12.4265C 39.794 12.3624 39.794 12.2984 39.8587 12.2343L 39.794 12.2984C 39.7293 12.2343 39.4705 12.1062 39.4705 12.0422C 39.4705 11.9141 39.5999 11.85 39.6646 11.7219C 39.3411 11.5297 39.2764 11.1454 38.8881 11.1454C 38.694 11.1454 37.8528 11.786 37.8528 11.9781C 37.8528 12.1062 38.047 12.2343 38.1117 12.2984C 38.047 12.6187 37.9176 12.8108 37.6587 12.8108C 37.2058 12.8108 36.8823 12.1703 36.6234 11.9141C 36.4293 11.6578 35.9117 11.85 35.7176 11.85C 35.6529 11.85 35.5882 11.7219 35.5882 11.6578C 35.1999 11.5938 35.1999 11.2095 35.0705 10.9532C 35.0058 10.7611 33.9705 10.0565 33.9058 10.0565C 33.8411 10.1205 33.8411 10.3127 33.9058 10.3768L 33.647 10.3768C 33.194 10.0565 33.5176 9.54406 33.3234 9.09568C 33.2587 8.77541 33.0646 8.71136 32.9352 8.5192C 32.4823 8.00677 31.9646 7.6865 31.7705 6.91785L 31.5764 6.91785C 31.3823 6.91785 31.1882 7.11 30.994 7.11C 30.4117 7.11 30.1529 6.72568 29.7646 6.53352C 29.1823 6.21325 28.794 6.40541 28.147 6.08514C 27.2411 5.57271 27.1117 4.80406 26.2705 4.41973L 26.0764 4.41973C 25.8176 4.22757 25.6235 4.16352 25.4293 4.16352C 24.9117 4.16352 24.7823 4.80406 24.2646 4.80406C 24.0058 4.80406 23.8117 4.54784 23.6823 4.48379C 23.4235 4.35568 23.2294 4.41973 22.9705 4.41973C 22.5823 4.41973 21.6117 3.65108 21.2882 3.45892C 20.9647 3.26676 20.7058 3.45893 20.447 3.39487C 19.9941 3.26676 19.9294 2.88243 19.4764 2.62621C 19.0882 2.43405 18.8941 2.49811 18.5058 2.30594C 18.3117 2.24189 18.247 2.17784 18.1823 2.04973C 17.7941 1.66541 16.8882 1.40919 16.8235 1.02486C 16.5647 1.02486 16.3705 0.640537 16.3705 0.384321C 16.3705 0.256212 16.4353 0.12811 16.4353 1.95478e-06L 9.87331e-07 1.95478e-06C 2.97646 29.593 19.1529 55.2787 42.6411 71.2282C 42.5117 70.6517 42.3176 70.0752 42.3176 69.7549C 42.3176 69.1784 43.0293 68.9222 43.0293 68.4098C 43.0293 68.1536 42.6411 67.6411 42.5764 67.2568L 42.5764 66.9365L 42.6411 66.9365C 42.6411 66.7444 42.7705 66.5522 42.8999 66.5522C 43.4175 66.5522 43.2234 67.1287 43.6764 67.1287L 44.6469 62.1965L 44.6469 61.6841C 44.5822 61.6841 44.4528 61.6841 44.3881 61.6841C 44.194 61.8122 44.1293 62.0684 43.9352 62.0684C 43.6764 62.0684 43.547 61.2998 43.547 60.9154C 43.547 60.2749 43.7411 60.0187 43.8058 59.4422C 43.9999 59.4422 44.1293 59.3781 44.1293 59.25C 44.1293 59.0579 43.9352 58.8657 43.9352 58.8657C 43.8058 58.8657 43.8058 57.9049 43.8058 57.7127C 43.8058 56.9441 44.2587 56.1754 44.5175 55.7271C 44.647 55.5349 44.7117 55.0225 44.8411 54.8303C 44.9058 54.7022 45.0999 54.7022 45.0999 54.5741C 45.294 53.8054 45.294 53.229 45.4881 52.4603L 45.4881 49.9622C 45.294 49.3857 45.6175 48.9373 45.6175 48.3608C 45.6175 47.0798 46.3293 46.2471 46.3293 45.1581L 46.3293 44.8379C 46.3293 44.5816 46.4587 44.0052 46.5234 43.6849L 46.5234 42.2117C 46.5234 41.7633 46.7822 40.8665 46.7822 40.3541C 46.9117 39.8416 46.7175 37.92 46.6528 37.5357ZM 43.8058 63.4776C 43.8058 63.6698 43.7411 63.7338 43.6764 63.8619L 43.6764 64.8227L 43.4175 64.8227C 43.2234 64.8227 43.094 64.5025 43.094 64.3744L 43.094 63.926C 43.094 63.926 43.2881 62.9652 43.4823 62.9652C 43.7411 62.9652 43.8058 63.2214 43.8058 63.4776Z"/>
<path id="path1_fill" d="M 168.494 15.0527C 168.235 14.0919 168.17 13.3873 167.847 12.6187C 167.653 12.1703 167.458 10.9533 166.941 10.9533C 166.682 10.9533 166.811 11.1454 166.553 10.9533C 166.488 10.9533 166.553 10.8251 166.553 10.7611C 166.553 10.3127 166.617 9.99244 166.682 9.48L 166.811 9.48C 166.553 9.3519 166.811 8.58325 166.811 8.19892C 166.811 6.72568 166.035 5.89297 166.035 4.80405C 165.647 4.80405 166.164 3.84325 165.841 3.33082C 165.776 3.13865 165.517 3.26676 165.453 3.13865C 165.258 2.94649 165.388 2.81838 165.194 2.62622C 164.676 3.2027 164.482 4.16351 163.641 4.16351C 163.188 4.16351 163.188 3.7792 163.188 3.33082C 163.188 2.88244 163.317 2.69028 163.317 2.37001C 163.317 2.17784 163.188 2.11378 163.123 1.92162C 162.929 1.21702 162.541 0.704593 162.282 0.19216C 162.217 0.128106 162.153 0.0640502 162.088 -3.90955e-06L 156.07 -3.90955e-06C 155.553 0.448375 154.776 0.640539 154.388 1.15297C 153.805 1.79351 153.223 2.49811 152.641 3.13865C 152.382 3.39487 152.058 3.77919 151.864 3.84324C 151.347 4.0354 150.7 4.16352 150.7 4.86811C 150.7 5.4446 150.894 5.82893 150.894 6.34136C 150.894 7.17406 150.506 7.68649 150.506 8.32703L 150.635 9.15973L 150.506 9.15973C 150.506 9.22379 150.311 9.22379 150.182 9.28784C 149.794 9.41595 149.858 10.2487 149.6 10.4408C 149.211 10.633 149.211 10.5049 149.017 10.8251C 148.888 11.0814 148.888 11.4657 148.629 11.4657C 148.37 11.4657 148.241 11.3376 148.176 11.1454C 148.047 11.1454 147.917 10.8892 147.917 10.8251C 147.658 10.0565 147.335 9.35189 147.141 8.6473C 147.011 8.19892 146.623 7.87865 146.494 7.55838C 146.235 7.04595 146.429 6.59758 146.17 6.21325C 145.911 5.76487 145.911 5.57271 145.782 5.18838C 145.653 4.67595 145.07 3.58703 144.876 2.88243C 144.682 2.24189 144.358 1.60135 144.358 0.960808C 144.358 0.896753 144.294 0.576485 144.294 0.512431C 144.294 0.320269 144.358 0.128108 144.358 0.0640541L 131.676 0.0640541C 131.547 0.448379 131.611 1.02487 131.223 1.02487C 130.77 1.02487 130.835 1.98568 130.382 1.98568C 130.123 1.98568 129.541 2.56216 129.541 2.94649C 128.7 3.13865 126.888 3.45892 126.888 4.22757C 126.888 4.29162 126.953 4.48379 127.017 4.54784C 126.306 4.93217 125.4 5.12433 124.688 5.31649C 124.3 5.38054 123.135 6.34136 122.747 6.53352L 121.776 6.53352C 121.259 6.91785 121.194 7.17406 120.547 7.17406L 120.353 7.30217C 120.288 7.30217 119.511 6.85379 119.447 6.85379C 119.382 6.78974 119.576 6.78973 119.382 6.46946C 119.059 5.95703 118.864 5.38055 118.864 4.74001C 118.541 4.74001 118.8 4.09946 118.8 3.77919C 118.929 3.0746 118.411 2.75433 118.153 2.37001C 117.764 1.98568 116.923 0.832703 116.923 0.0640541C 116.859 0.0640541 116.729 -3.90955e-06 116.664 -3.90955e-06L 114.011 -3.90955e-06L 114.011 0.448383C 114.335 1.34514 114.917 1.34514 115.37 1.98568C 115.888 2.75433 115.564 3.65108 116.147 4.22757C 116.6 4.74 116.988 4.80406 117.506 5.25244C 117.959 5.63676 118.282 7.04595 119.253 7.04595C 119.253 7.62243 119.511 7.68649 119.253 8.07082C 119.641 8.39109 120.029 9.48 120.547 9.48C 121 9.48 121.064 9.03163 121.453 8.90352C 121.906 8.71136 122.229 8.96758 122.682 8.90352C 123.847 8.71136 124.882 8.19893 125.982 7.94271C 126.047 8.13487 126.176 8.19893 126.176 8.45514C 126.176 10.3127 124.817 12.8108 124.106 13.8997C 123.2 15.2449 122.811 16.4619 121.711 17.3587C 119.706 19.0881 117.635 19.6006 116.859 22.547C 116.664 23.3797 115.888 23.5719 115.888 24.5327C 115.888 25.5576 116.147 26.006 116.147 27.0308C 116.147 28.1838 117.247 28.6962 117.247 29.3368C 117.247 29.5289 117.053 29.7852 117.053 29.8492L 117.053 30.6819C 117.053 31.1943 116.988 31.8349 116.988 32.7957C 117.182 32.9879 117.247 33.18 117.247 33.4362C 117.247 35.9984 113.3 35.7422 112.976 37.92C 112.588 37.9841 112.07 38.5606 112.07 38.9449C 112.07 39.6495 112.911 40.1619 112.911 41.1868C 112.911 41.6992 112.847 42.7881 112.653 43.1084C 112.459 43.3646 111.941 43.2365 111.747 43.3646C 111.035 43.749 110.582 44.1333 110.259 44.9019C 110.517 45.0941 110.711 45.2863 110.711 45.6065C 110.711 46.5673 109.87 47.2719 109.482 47.6562C 108.835 48.3608 108.77 49.1295 108.317 49.8341C 107.541 50.859 107.217 51.8198 105.988 52.4603C 105.47 52.7165 104.759 52.4603 104.629 53.0368C 104.241 53.1009 103.982 53.293 103.723 53.293C 103.4 53.293 103.206 52.9727 102.882 52.9727C 101.653 52.9727 100.876 53.9976 99.7115 53.9976C 99.1939 53.9976 98.935 53.6773 98.7409 53.3571C 98.5468 53.3571 98.4821 53.4852 98.4174 53.5492C 98.4174 52.9087 98.1586 52.14 97.8998 51.8838C 98.1586 51.6276 98.288 51.3714 98.288 50.9871C 98.288 50.4746 97.4468 49.4498 97.3174 49.1936C 96.2174 47.1438 94.8586 45.2222 94.8586 42.2757L 94.8586 41.3789C 94.8586 40.9306 94.4704 40.7384 94.2762 40.29C 93.4351 38.7527 92.5292 37.4716 92.5292 35.2938C 92.5292 32.9879 94.4057 32.4114 94.4057 30.6819C 94.4057 29.8492 94.1468 29.5289 94.0174 28.8243C 93.8233 27.4151 93.5645 26.9027 93.2409 26.07C 92.9821 25.4295 93.1115 24.6608 92.7233 24.0843C 91.9468 22.9954 90.2645 21.8424 90.2645 20.2411C 90.2645 19.8568 90.7174 19.0241 90.9116 18.896C 90.7821 18.6397 90.9116 18.5116 90.9116 18.3835C 90.9116 17.9992 90.9116 16.9743 91.2351 16.7181C 90.9116 16.0135 90.3939 15.3089 89.3586 15.3089L 88.1292 15.3089C 87.2233 15.3089 87.0292 13.3873 85.7998 13.3873C 84.3116 13.3873 83.2116 14.156 82.0469 14.5403C 81.5939 14.7324 81.4645 15.1168 81.0116 15.1168C 80.5586 15.1168 79.7822 14.6043 79.1998 14.6043C 78.0351 14.6043 77.5175 15.2449 76.3528 15.2449C 75.9645 15.2449 75.5763 15.0527 75.4469 14.9887C 74.6057 14.2841 72.8587 13.1951 72.2116 12.1062C 71.6292 11.1454 71.4351 10.3768 70.7234 9.67217C 70.5292 9.48001 68.9116 7.94271 68.9116 7.8146C 68.7822 7.62244 68.6528 7.55838 68.5234 7.36622L 68.5881 7.36622C 68.5881 6.85378 68.4587 6.59757 68.4587 6.2773C 68.4587 5.82892 68.1998 5.63676 68.0057 5.18838C 68.6528 4.80406 69.2351 3.01054 69.2351 2.17784C 69.2351 1.34514 69.041 0.640537 68.8469 -3.90955e-06L 19.0235 -3.90955e-06C 19.0882 0.0640502 19.1529 0.19216 19.2176 0.19216C 19.0235 0.576485 18.4411 0.576489 18.0529 0.576489C 17.3411 0.576489 16.8882 0.384325 16.3058 0.384325L 16.3058 0.19216C 16.4352 0.19216 16.5 0.128104 16.5647 -3.90955e-06L 8.21762 -3.90955e-06C 8.08821 0.320267 7.9588 0.640537 7.9588 0.960808C 7.9588 1.47324 7.76468 1.72946 7.57057 2.04973L 7.57057 1.79351L 7.31175 1.79351L 7.31175 3.39487C 7.31175 3.71514 6.92351 3.84324 6.7941 4.03541L 6.7941 4.22757C 6.7941 4.48379 6.98822 4.6119 7.18234 4.6119C 8.15292 4.6119 8.99409 4.41973 10.0294 4.41973C 10.7411 4.41973 10.9353 4.99622 11.4529 5.12432L 11.4529 5.63676C 11.4529 5.95703 11.4529 6.78973 11.2588 7.11L 11.2588 9.15973C 11.2588 9.86433 11.9059 10.1846 12.3588 10.4408C 12.6823 10.633 12.6823 11.2095 13.2 11.2095C 13.9764 11.2095 14.3647 10.5689 15.0764 10.5689C 15.9176 10.5689 16.3058 11.2095 16.7588 11.5938C 16.7588 11.5938 16.6941 11.7219 16.5647 11.85C 16.6294 11.7859 16.7588 11.7219 16.7588 11.6578C 17.0176 11.7219 16.8882 11.7219 17.147 11.6578L 17.147 11.4657C 17.147 11.4016 17.2764 11.2735 17.3411 11.2735C 17.3411 10.9533 17.6 10.8251 17.7941 10.697C 17.9882 10.5689 17.9882 10.1205 18.0529 9.86433C 18.1823 9.3519 18.4411 9.22379 18.8941 9.09569C 19.6058 8.83947 20.0588 8.71136 20.8352 8.45514C 21.2235 8.32704 21.2882 7.8146 21.6764 7.8146C 21.8058 7.8146 21.9352 8.19892 21.9352 8.19892C 21.9352 8.45514 21.7411 8.58325 21.6764 8.58325C 21.6117 9.09568 21.4176 9.60811 21.4176 9.92838C 21.4176 10.3127 21.6117 10.9533 21.9352 10.9533C 22.0647 10.9533 22.1941 10.5689 22.1941 10.4408C 22.1941 10.0565 21.8058 9.80028 21.8058 9.41596C 21.8058 8.90352 22.2588 8.96758 22.5823 8.77542L 23.2941 8.77542C 23.1646 8.39109 22.7117 8.5192 22.7117 8.13487L 23.2294 8.13487C 23.3588 8.64731 24.0058 8.83946 24.4588 8.96757C 24.4588 9.28784 24.6529 9.54406 24.847 9.54406L 26.4646 9.54406C 26.4646 9.80028 26.8529 9.92838 27.047 9.92838C 27.4999 9.86433 27.8235 9.86433 27.9529 9.48C 27.9529 9.41595 28.5999 9.41595 28.7293 9.28784C 29.0529 9.28784 29.5705 9.3519 29.5705 9.3519C 29.4411 9.48001 29.1823 9.48001 29.1176 9.41596L 29.1176 9.67217C 29.3117 10.1205 29.9587 10.2487 30.4117 10.3768C 30.7999 10.5049 30.6705 11.0173 30.7999 11.4016L 31.6411 11.4016C 32.2235 12.0422 32.4823 11.9141 32.8705 12.7468C 32.9352 12.8749 33.1293 12.9389 33.3234 12.9389C 33.5176 13.8997 34.8117 13.7716 35.5881 13.9638L 36.3646 13.9638C 36.5587 14.0278 37.0764 14.3481 37.3352 14.3481L 37.3352 14.4122L 37.5293 14.4122C 37.9823 14.4122 38.6293 15.5011 39.147 15.6292C 39.147 16.0135 39.5352 17.1024 39.6646 17.4227C 39.794 17.743 40.1823 17.743 40.1823 18.0633C 39.7293 18.7038 38.8234 19.0241 38.8234 20.0489C 38.8234 20.3692 39.0823 20.3692 39.2764 20.4333C 39.5352 20.6254 39.7293 20.8816 39.794 21.2019L 40.5058 21.2019C 40.5058 21.33 40.5705 21.5862 40.6352 21.5862C 40.7646 21.5862 40.894 21.33 40.9587 21.2019C 41.2822 20.6895 41.6058 19.9849 42.1234 19.9849C 42.6411 19.9849 43.7411 20.6254 44.1293 20.8816C 44.3881 21.0738 44.647 20.9457 44.7117 21.266C 44.7764 21.5862 44.7764 21.7784 44.7764 22.0987L 44.9705 22.0987C 45.2293 21.9706 45.3587 21.7143 45.6175 21.7143C 46.2646 21.7143 46.394 22.2268 46.9764 22.2268L 48.1411 22.0346C 48.7234 22.1627 49.2411 22.4189 49.5646 22.547C 49.8234 23.0595 50.794 23.9562 51.2469 24.1484C 51.6352 24.2765 51.9587 24.0843 52.3469 24.2125C 52.9293 24.4046 53.1234 25.1092 53.1234 25.8138C 53.1234 28.2479 51.894 28.9525 51.1175 30.2976C 50.9234 30.6179 50.794 30.6819 50.6646 30.9381C 50.3411 31.4506 50.0175 31.5146 49.7587 31.8349C 49.3058 32.3473 49.7587 33.3722 49.7587 34.2049C 49.7587 34.7814 49.5646 35.3579 49.5646 35.8062C 49.5646 35.9984 49.4352 36.1265 49.4352 36.1906C 49.3058 36.3827 49.0469 36.703 49.0469 36.9592C 49.0469 37.2795 48.9822 37.92 48.9175 38.1122C 48.4646 38.8808 48.3352 39.2011 47.8822 39.8417C 47.7528 40.0338 47.8175 40.4181 47.7528 40.5462C 47.5587 40.9306 46.9116 41.443 46.394 41.443C 45.8116 41.443 45.3587 41.3789 44.9058 41.6352C 44.7117 41.7633 44.7117 41.8914 44.5822 42.0195C 43.8705 42.7881 43.094 42.3398 42.5764 43.3006C 42.3175 43.7489 41.9293 43.749 41.7352 44.0052C 41.347 44.4535 41.4117 44.9019 41.4117 45.5425L 41.4117 47.0798C 40.8293 47.4 40.5058 47.9765 40.1823 48.6811C 39.9881 49.1295 39.9881 49.3217 39.7293 49.77C 39.2117 50.6668 38.5646 50.7308 38.1117 51.6276C 37.5293 52.6525 37.2705 54.2538 35.9117 54.2538C 35.4587 54.2538 34.747 53.8695 34.5529 53.8695C 34.0999 53.8695 33.7117 53.4852 33.2587 53.4852C 33.194 53.4852 32.9999 53.5492 32.9999 53.6773C 32.9999 53.9336 33.4529 54.1257 33.5176 54.2538C 33.7764 54.51 33.7764 54.8944 33.9058 55.2787C 33.9705 55.663 34.4882 55.663 34.4882 56.0473C 34.4882 56.4317 34.4882 56.6879 34.3587 56.9441C 34.0999 57.3925 33.9058 57.6487 33.5823 57.969C 33.0646 58.5454 32.4176 58.3533 31.7058 58.6095C 31.2529 58.7376 30.2176 58.4173 29.9587 58.6735C 29.5705 59.1219 29.894 60.0827 29.6999 60.5311L 29.6999 60.8514C 29.6999 61.0435 29.247 61.2357 28.9882 61.2357C 28.3411 61.2357 28.2117 60.7873 27.6293 60.7873C 27.4352 60.7873 27.3058 61.0435 27.3058 61.1717C 27.3058 61.62 27.694 62.5168 27.9529 62.5168C 28.0823 62.5168 28.2764 62.3246 28.4058 62.2606C 28.5352 62.3887 28.6646 62.4527 28.6646 62.5809C 28.6646 62.773 28.4058 63.0292 28.3411 63.0292C 27.9529 63.0292 27.8882 62.709 27.5646 62.709C 27.5646 63.0933 27.7588 63.1573 27.8882 63.2214C 27.3705 63.7979 27.3705 64.4384 27.1764 65.2711C 27.1117 65.6554 26.594 65.6554 26.3352 65.7195C 25.8823 65.8476 25.4293 66.296 25.4293 66.8725C 25.4293 68.1535 26.7882 67.7052 26.7882 68.73C 26.7882 69.6909 26.0117 69.7549 25.6235 70.2033C 25.3646 70.4595 25.4941 70.9079 25.2999 71.3563C 25.1058 71.8046 24.5882 71.6125 24.3294 71.9328C 23.9411 72.3171 23.8117 72.7654 23.8117 73.406C 23.8117 73.7263 24.0705 74.1747 24.2646 74.1747C 24.4588 74.3028 24.5882 74.559 24.6529 74.8152C 39.4058 83.4625 56.6175 88.3947 74.9939 88.3947C 118.735 88.3947 155.876 60.403 169.076 21.4581C 168.817 21.0738 168.623 20.6254 168.429 20.177C 168.364 19.9849 168.041 19.3443 167.911 19.3443C 167.847 19.3443 167.911 19.1522 167.847 19.0881C 167.847 19.0241 167.458 18.96 167.394 18.896C 167.264 18.7678 167.005 17.9992 167.005 17.743C 166.811 16.9743 166.1 17.1024 165.905 16.6541C 165.711 16.2697 165.647 16.0776 165.453 15.6292C 165.323 15.373 165 15.373 164.741 15.373C 164.482 15.3089 164.029 14.3481 163.9 14.0278L 163.9 13.8357L 164.094 13.8357C 164.417 13.8357 164.482 14.0278 164.676 14.156L 165.647 14.156C 166.294 14.4122 166.488 14.8606 166.747 15.437C 166.811 15.6292 166.941 15.5651 167.07 15.6292C 167.523 15.8214 167.717 16.2057 168.041 16.526C 168.623 17.1665 168.947 17.5508 169.788 17.8711C 169.917 17.9352 170.047 17.9352 170.176 18.0633C 170.241 17.8711 170.305 17.6789 170.37 17.4868C 169.529 17.0384 168.817 16.0776 168.494 15.0527ZM 16.5 2.56216C 16.2411 2.56216 16.047 2.30595 16.047 2.04973C 16.047 1.92163 16.2411 1.85757 16.3705 1.85757C 16.7588 1.85757 17.147 2.04973 17.3411 2.11378L 17.2764 2.04973C 17.4705 2.11379 17.5353 2.2419 17.5353 2.37001C 17.147 2.43406 16.8882 2.56216 16.5 2.56216ZM 23.2941 1.98568C 23.0999 2.11379 22.9705 2.24189 22.7117 2.24189C 22.5176 2.24189 22.5823 2.04973 22.4529 2.04973C 22.0646 2.04973 22.0647 2.62622 21.7411 2.62622C 21.4823 2.62622 21.547 2.30595 21.3529 2.17784C 21.0941 1.98568 20.3823 2.04973 19.9941 2.04973C 19.8 2.04973 19.8 2.17784 19.6058 2.04973C 19.6058 2.17784 19.6058 2.24189 19.6058 2.30595C 19.4117 2.24189 19.2176 1.98567 19.2176 1.79351C 19.2823 1.79351 19.347 1.72946 19.347 1.66541C 19.9941 1.66541 20.3176 1.85757 20.7058 1.66541C 20.5117 1.47324 20.5117 1.21702 20.5117 0.960808C 20.3176 0.960808 20.1235 0.768651 20.1235 0.576489C 20.1235 0.512435 20.2529 0.384325 20.3823 0.384325C 20.6411 0.384325 20.8352 0.576489 21.0941 0.576489C 21.4823 0.576489 21.6764 0.448383 21.9999 0.448383C 22.9705 0.448383 23.1646 1.02486 23.6823 1.28108L 23.5529 1.15297C 23.8764 1.40919 24.1352 1.5373 24.3941 1.85757L 23.2941 1.85757L 23.2941 1.98568ZM 26.2058 2.37001C 25.8176 2.37001 25.4293 2.37 25.4293 1.98568C 25.4293 1.79351 25.6882 1.79351 25.7529 1.79351C 25.8176 1.79351 26.5293 1.98568 26.6588 2.17784C 26.594 2.37 26.3999 2.37001 26.2058 2.37001ZM 30.7999 9.67217C 30.7352 9.80028 30.6058 10.1205 30.4117 10.1205C 30.347 10.1205 30.1529 10.1846 30.1529 10.1205C 30.1529 9.80027 30.347 9.48 30.5411 9.48L 30.7999 9.48L 30.7999 9.67217ZM 40.6999 21.2019C 40.247 21.2019 39.4705 20.6254 39.4705 20.3052C 39.4705 19.7927 39.7293 19.4724 40.0528 19.4724L 40.1823 19.4724C 40.3764 19.6006 40.5705 19.7927 40.8293 19.7927C 40.894 20.2411 41.1528 19.8568 41.2822 19.8568C 41.4117 19.8568 41.4764 20.113 41.4764 20.177C 41.5411 20.4333 41.0881 21.2019 40.6999 21.2019ZM 125.529 34.6533C 125.4 34.5892 125.076 34.4611 125.011 34.4611C 125.011 36.8952 124.3 38.5606 123.653 40.4181C 123.135 41.8914 122.876 44.1333 121 44.1333C 120.223 44.1333 119.576 43.1725 119.576 42.3398C 119.576 41.8914 119.641 41.7633 119.641 41.5071C 119.253 41.2508 119.253 40.6744 119.253 40.1619C 119.253 40.0338 119.77 39.5214 119.835 39.5214C 119.835 39.5214 120.417 38.1122 120.417 38.0481C 120.417 37.6638 119.964 36.8311 119.964 36.3187C 119.964 34.7173 121.064 34.7814 121.906 34.2689C 122.617 33.8206 123.523 32.5395 123.976 32.027C 124.106 31.8349 124.041 31.3224 124.17 31.0662C 125.206 31.1943 125.076 33.3722 125.4 34.2049L 125.4 34.6533L 125.529 34.6533ZM 128.376 7.75055C 128.311 7.75055 128.117 7.6865 128.053 7.49433C 128.311 7.43028 128.506 7.30217 128.894 7.30217C 128.829 7.49433 128.57 7.75055 128.376 7.75055ZM 151.282 13.5795C 150.894 13.5795 150.506 13.1311 150.506 12.6187C 150.506 11.6578 150.894 10.9532 150.894 9.92838C 151.347 10.697 152.188 11.1454 152.188 12.1703C 152.253 12.8108 151.864 13.5795 151.282 13.5795ZM 167.005 20.113L 167.264 20.113L 167.264 20.3052C 167.458 20.5614 167.588 20.7535 167.588 21.0738C 167.458 21.0097 167.07 20.4973 167.07 20.2411L 167.07 20.113L 167.005 20.113ZM 166.035 18.0633C 166.229 18.1914 166.682 18.8319 166.488 18.8319C 166.358 18.8319 165.97 18.3195 165.97 18.1273L 166.035 18.0633ZM 0.323527 0.448383C 0.841172 1.02487 0.841176 1.60135 1.68235 1.85757C 1.94117 1.98568 1.94118 2.24189 2.2 2.24189C 2.78235 2.24189 3.23529 1.79351 3.81764 1.79351C 4.14117 1.79351 4.27058 1.98568 4.39999 1.98568C 4.65881 1.98568 4.78822 1.60135 4.85293 1.47324C 4.98234 1.08892 5.49998 0.640545 5.49998 0.128112C 5.49998 0.064058 5.49998 0.0640502 5.49998 -3.90955e-06L -1.97466e-06 -3.90955e-06C 0.0647037 0.192158 0.194115 0.384329 0.323527 0.448383Z"/>
<path id="path2_fill" d="M 3.62352 15.7858C 2.3294 15.7858 1.22941 15.7858 3.94932e-06 15.7858C 3.94932e-06 10.5333 3.94932e-06 5.34496 3.94932e-06 0.0284704C 0.841178 0.0284704 1.68235 -0.0355837 2.52352 0.0284704C 2.78235 0.0284704 3.04117 0.348737 3.23529 0.604953C 5.37058 3.23117 7.44115 5.85739 9.57644 8.48361C 9.70585 8.67577 9.89998 8.86794 10.1588 9.18821C 10.1588 6.04956 10.1588 3.10307 10.1588 0.0284704C 11.3882 0.0284704 12.6176 0.0284704 13.7823 0.0284704C 13.7823 5.28091 13.7823 10.4693 13.7823 15.7858C 12.8764 15.7858 11.9706 15.7858 11.0647 15.7858C 10.8706 15.7858 10.6764 15.5296 10.4823 15.3374C 8.41175 12.8393 6.40586 10.3412 4.39999 7.84307C 4.20587 7.58685 3.94705 7.33064 3.62352 6.88226C 3.62352 9.95686 3.62352 12.8393 3.62352 15.7858Z"/>
<path id="path3_fill" d="M 22.0647 0.0284665C 21.3529 2.01414 20.6411 3.80766 19.9941 5.66523C 18.7647 8.86794 17.6 12.0706 16.3706 15.3374C 16.1764 15.8498 15.9823 16.042 15.4 16.042C 13.5882 16.042 13.5882 16.042 12.9411 14.3125C 12.3588 12.6471 11.7117 11.0458 11 9.18821C 10.4176 10.6615 9.96468 12.0066 9.44704 13.2877C 9.18821 13.9923 8.86469 14.7609 8.67057 15.4655C 8.54116 15.8498 8.34704 15.9779 7.8941 15.9779C 5.95293 15.9779 5.95293 15.9779 5.30587 14.1844C 3.62352 9.70064 1.94117 5.21685 0.258825 0.733066C 0.194119 0.540903 0.129408 0.284683 -3.94932e-06 0.0284665C 0.776465 0.0284665 1.48823 -0.0355876 2.13529 0.0284665C 2.3294 0.0284665 2.58823 0.348743 2.65293 0.604959C 4.07646 4.25604 5.43528 7.97117 6.7941 11.6863C 6.8588 11.9425 6.98821 12.1347 7.11763 12.519C 7.76468 10.7255 8.34703 9.0601 9.0588 7.45875C 9.64115 6.24172 9.57644 5.15279 9.0588 3.99982C 8.47645 2.71874 8.08822 1.43766 7.57057 0.0284665C 8.34704 0.0284665 9.12351 0.0284665 9.83527 0.0284665C 9.96469 0.0284665 10.1588 0.284687 10.2882 0.412795C 10.547 0.989282 10.7411 1.50171 11 2.27036C 11.2588 1.56577 11.4529 0.989276 11.7117 0.476843C 11.8411 0.284681 12.1 0.0284665 12.3588 0.0284665C 13.0059 -0.0355876 13.5882 0.0284665 14.3647 0.0284665C 14.3 0.284683 14.3 0.476851 14.2353 0.604959C 13.6529 2.14226 13.0706 3.67955 12.5529 5.21685C 12.4235 5.53712 12.4235 5.92144 12.4882 6.24171C 13.2 8.22739 13.9117 10.149 14.6882 12.0706C 14.7529 12.1987 14.8176 12.2628 14.947 12.455C 15.8529 10.0209 16.7588 7.65091 17.6 5.34496C 18.1823 3.74361 18.8294 2.14225 19.4117 0.540901C 19.5411 0.156577 19.7353 -0.0355876 20.1882 0.0284665C 20.7705 0.0284665 21.3529 0.0284665 22.0647 0.0284665Z"/>
<path id="path4_fill" d="M 3.94932e-06 8.23542C 0.0647097 5.22488 1.1 2.98299 3.3647 1.38163C 6.59999 -0.924313 10.9353 -0.28377 13.3294 2.85488C 15.9823 6.24975 15.6588 11.1179 12.6176 14.0003C 8.34704 17.9716 1.68235 15.8579 0.258823 9.96488C 0.0647057 9.32434 0.0647097 8.61974 3.94932e-06 8.23542ZM 7.63527 12.7192C 8.67056 12.7833 9.57644 12.2708 10.2235 11.4381C 11.647 9.64461 11.7117 6.57002 10.3529 4.7765C 8.86469 2.72677 6.01763 2.79082 4.5941 4.84055C 3.3647 6.63407 3.3647 9.5165 4.65881 11.31C 5.43528 12.2068 6.34116 12.7833 7.63527 12.7192Z"/>
<path id="path5_fill" d="M 11.0647 15.6933C 7.37645 15.6933 3.68823 15.6933 1.97466e-06 15.6933C 1.97466e-06 10.4408 1.97466e-06 5.25243 1.97466e-06 -3.90955e-06C 3.62352 -3.90955e-06 7.18234 -3.90955e-06 10.8706 -3.90955e-06C 10.8706 1.08892 10.8706 2.11378 10.8706 3.2027C 8.47645 3.2027 6.14705 3.2027 3.75294 3.2027C 3.75294 4.22757 3.75294 5.18839 3.75294 6.21325C 5.75881 6.21325 7.8294 6.21325 9.89998 6.21325C 9.89998 7.23812 9.89998 8.13487 9.89998 9.15974C 7.8294 9.15974 5.82352 9.15974 3.75294 9.15974C 3.75294 10.3127 3.75294 11.4016 3.75294 12.5546C 6.21175 12.5546 8.60586 12.5546 11.1294 12.5546C 11.0647 13.5795 11.0647 14.6043 11.0647 15.6933Z"/>
<path id="path6_fill" d="M -3.94932e-06 15.7035C -3.94932e-06 10.4511 -3.94932e-06 5.26269 -3.94932e-06 0.0102506C 0.517642 0.0102506 0.970586 0.0102506 1.35882 0.0102506C 3.3647 0.0102506 5.43528 -0.0538055 7.44115 0.138357C 10.0941 0.394573 12.1 3.08485 11.9059 5.77512C 11.7117 8.65756 9.51174 10.7073 6.7294 10.7073C 5.75881 10.7073 4.78823 10.7073 3.68823 10.7073C 3.68823 12.3727 3.68823 14.0381 3.68823 15.7676C 2.39412 15.7035 1.2294 15.7035 -3.94932e-06 15.7035ZM 3.62352 7.50458C 4.5294 7.50458 5.43528 7.50458 6.27646 7.50458C 7.31175 7.50458 7.89409 6.99215 8.08821 6.09539C 8.34703 4.87836 7.9588 3.78945 7.11762 3.40512C 7.05292 3.34107 6.92351 3.277 6.85881 3.277C 5.75881 3.277 4.72352 3.277 3.62352 3.277C 3.62352 4.68619 3.62352 6.03133 3.62352 7.50458Z"/>
<path id="path7_fill" d="M 0 15.7991C 0 10.5467 0 5.35832 0 0.169936C 0.0647057 0.105881 0.129419 0.0418293 0.129419 0.0418293C 2.26471 0.0418293 4.4647 -0.086275 6.59999 0.105887C 10.4176 0.426158 12.9411 3.05237 13.2647 6.76751C 13.3941 8.56103 13.2647 10.2905 12.4235 11.8918C 11.2588 14.1978 9.25291 15.4789 6.66468 15.671C 4.52939 15.9913 2.2647 15.7991 0 15.7991ZM 2.52352 13.6213C 3.75293 13.6213 4.98234 13.6854 6.14704 13.6213C 8.02351 13.4932 9.38234 12.5964 10.1588 10.931C 11.0647 9.00941 11 7.02373 10.2235 5.10211C 9.70585 3.88508 8.79998 3.05237 7.50587 2.60399C 5.88823 2.02751 4.20587 2.34778 2.52352 2.28372C 2.52352 6.12697 2.52352 9.84211 2.52352 13.6213Z"/>
<path id="path8_fill" d="M 0.0647057 0.0160155C 1.29411 0.0160155 2.52353 0.0160155 3.75294 0.0160155C 4.98235 0.0160155 6.21175 -0.0480445 7.44115 0.0800637C 9.64115 0.272226 11.3882 2.06574 11.7764 4.30764C 12.1647 6.54953 11.1294 8.66331 9.12351 9.68818C 8.9941 9.75223 8.92939 9.81629 8.73527 9.88034C 9.96468 11.802 11.1941 13.7236 12.4882 15.8374C 11.5176 15.8374 10.6764 15.8374 9.83527 15.8374C 9.64116 15.8374 9.44703 15.5812 9.31762 15.389C 8.34703 13.9158 7.44116 12.5066 6.53528 10.9693C 6.27646 10.5849 6.01763 10.3928 5.49998 10.3928C 4.5294 10.4568 3.55881 10.3928 2.52352 10.3928C 2.52352 12.1863 2.52352 13.9798 2.52352 15.7733C 1.68234 15.7733 0.84117 15.7733 -3.94932e-06 15.7733C 0.0647018 10.5209 0.0647057 5.33251 0.0647057 0.0160155ZM 2.58823 8.08683C 4.07646 8.08683 5.37057 8.08683 6.72939 8.08683C 7.82939 8.08683 8.54115 7.5744 8.99409 6.67764C 9.89997 4.88412 8.92939 2.45007 7.11763 2.32196C 5.62939 2.19385 4.14116 2.32196 2.58823 2.32196C 2.58823 2.57817 2.58823 2.70629 2.58823 2.89845C 2.58823 4.56386 2.58823 6.29331 2.58823 8.08683Z"/>
<path id="path9_fill" d="M 7.89865e-06 8.45628C 0.0647136 5.57385 0.905872 3.52412 2.65293 1.92276C 5.49998 -0.703453 9.83528 -0.639397 12.6176 2.11493C 15.5294 4.99736 15.9176 9.80143 13.3294 13.0682C 11.5176 15.3741 9.18821 16.399 6.21174 15.8866C 3.36469 15.3741 1.55294 13.5806 0.517646 10.9544C 0.194117 9.99359 0.129419 8.96871 7.89865e-06 8.45628ZM 12.4882 7.8798C 12.4882 6.53466 12.1647 5.31764 11.3235 4.22872C 9.31763 1.47439 5.49998 1.53844 3.62351 4.35682C 2.13528 6.66277 2.1353 9.09683 3.55882 11.4028C 5.43529 14.4133 9.44703 14.4133 11.3882 11.5309C 12.1647 10.442 12.4882 9.22493 12.4882 7.8798Z"/>
<path id="path10_fill" d="M 7.89865e-06 1.95478e-06C 0.776477 1.95478e-06 1.55293 1.95478e-06 2.39411 1.95478e-06C 2.39411 4.48379 2.39411 8.96757 2.39411 13.5154C 5.30587 13.5154 8.02351 13.5154 10.8706 13.5154C 10.8706 14.2841 10.8706 14.9887 10.8706 15.6933C 7.24704 15.6933 3.62353 15.6933 7.89865e-06 15.6933C 7.89865e-06 10.5049 7.89865e-06 5.31649 7.89865e-06 1.95478e-06Z"/>
<path id="path11_fill" d="M 1.97466e-06 3.13865C 0.323531 2.11379 0.647053 1.21703 1.03529 -1.95478e-06C 1.42352 1.15297 1.81176 2.11379 2.13529 3.13865C 1.42353 3.13865 0.776471 3.13865 1.97466e-06 3.13865Z"/>
<path id="path12_fill" d="M 0.0647037 -3.90955e-06L 2.84705 -3.90955e-06C 4.39999 -3.90955e-06 5.43528 0.128108 6.08234 0.384325C 6.72939 0.640541 7.24704 1.08892 7.63527 1.72946C 8.02351 2.37001 8.21763 3.0746 8.21763 3.97136C 8.21763 4.86812 8.02351 5.63677 7.57057 6.21325C 7.11763 6.78974 6.47057 7.30217 5.6294 7.55838L 8.86469 13.6435L 6.01763 13.6435L 2.91176 7.87865L 2.65293 7.87865L 2.65293 13.6435L 3.94932e-06 13.6435L 3.94932e-06 -3.90955e-06L 0.0647037 -3.90955e-06ZM 2.65293 5.38055L 3.49411 5.38055C 4.33528 5.38055 4.91763 5.25244 5.24116 5.06028C 5.56469 4.86811 5.6941 4.48379 5.6941 3.97136C 5.6941 3.65109 5.6294 3.39486 5.43528 3.2027C 5.30587 3.01054 5.04705 2.81838 4.78822 2.75432C 4.5294 2.69027 4.07646 2.62622 3.3647 2.62622L 2.65293 2.62622L 2.65293 5.38055Z"/>
<path id="path13_fill" d="M 3.94932e-06 -3.90955e-06L 7.50586 -3.90955e-06L 7.50586 2.56216L 2.58823 2.56216L 2.58823 5.06028L 7.50586 5.06028L 7.50586 7.55838L 2.58823 7.55838L 2.58823 11.1454L 7.50586 11.1454L 7.50586 13.7076L 3.94932e-06 13.7076L 3.94932e-06 -3.90955e-06Z"/>
<path id="path14_fill" d="M 0 -3.90955e-06L 2.65294 -3.90955e-06L 2.65294 11.1454L 6.47057 11.1454L 6.47057 13.6435L 0 13.6435L 0 -3.90955e-06Z"/>
<path id="path15_fill" d="M 1.97466e-06 -3.90955e-06L 2.58822 -3.90955e-06L 2.58822 13.6435L 1.97466e-06 13.6435L 1.97466e-06 -3.90955e-06Z"/>
<path id="path16_fill" d="M -3.94932e-06 -3.90955e-06L 7.50587 -3.90955e-06L 7.50587 2.56216L 2.58823 2.56216L 2.58823 5.06028L 7.50587 5.06028L 7.50587 7.55838L 2.58823 7.55838L 2.58823 11.1454L 7.50587 11.1454L 7.50587 13.7076L -3.94932e-06 13.7076L -3.94932e-06 -3.90955e-06Z"/>
<path id="path17_fill" d="M -3.94933e-06 -3.90955e-06L 6.85881 -3.90955e-06L 6.85881 2.56216L 2.65294 2.56216L 2.65294 5.06028L 6.85881 5.06028L 6.85881 7.55838L 2.65294 7.55838L 2.65294 13.7076L 0.0647057 13.7076L 0.0647057 -3.90955e-06L -3.94933e-06 -3.90955e-06Z"/>
<path id="path18_fill" d="M 196.705 0C 191.982 49.3217 149.923 88.0744 98.8703 88.0744C 47.8175 88.0744 5.75881 49.3857 1.1 0L -9.87331e-07 0C 4.72352 49.9622 47.2999 89.1633 98.9351 89.1633C 150.57 89.1633 193.147 49.9622 197.87 0L 196.705 0Z"/>
</defs>
</svg>
