<svg width="370" height="263" viewBox="0 0 370 263" version="1.1" xmlns="http://www.w3.org/2000/svg"
     xmlns:xlink="http://www.w3.org/1999/xlink">
    <title>logo 2</title>
    <desc>Created using Figma</desc>
    <g id="Canvas" transform="translate(-7632 84)">
        <g id="logo 2">
            <g id="Group">
                <g id="Group">
                    <g id="Group">
                        <g id="Group">
                            <g id="Vector">
                                <use xlink:href="#path0_fill" transform="translate(7632 11.26)" fill="#FFFFFF"/>
                            </g>
                        </g>
                        <g id="Group">
                            <g id="Vector">
                                <use xlink:href="#path1_fill" transform="translate(7676.5 10.7785)" fill="#FFFFFF"/>
                            </g>
                        </g>
                    </g>
                </g>
                <g id="Group">
                    <g id="Vector">
                        <use xlink:href="#path2_fill" transform="translate(7764.04 -83.8546)" fill="#FFFFFF"/>
                    </g>
                    <g id="Vector">
                        <use xlink:href="#path3_fill" transform="translate(7793.42 -83.9748)" fill="#FFFFFF"/>
                    </g>
                    <g id="Vector">
                        <use xlink:href="#path4_fill" transform="translate(7680.61 -83.989)" fill="#FFFFFF"/>
                    </g>
                    <g id="Vector">
                        <use xlink:href="#path5_fill" transform="translate(7738.89 -83.6809)" fill="#FFFFFF"/>
                    </g>
                    <g id="Vector">
                        <use xlink:href="#path6_fill" transform="translate(7713.01 -83.8204)" fill="#FFFFFF"/>
                    </g>
                    <g id="Vector">
                        <use xlink:href="#path7_fill" transform="translate(7921.11 -84)" fill="#FFFFFF"/>
                    </g>
                    <g id="Vector">
                        <use xlink:href="#path8_fill" transform="translate(7868.39 -83.8312)" fill="#FFFFFF"/>
                    </g>
                    <g id="Vector">
                        <use xlink:href="#path9_fill" transform="translate(7835.5 -83.9237)" fill="#FFFFFF"/>
                    </g>
                    <g id="Vector">
                        <use xlink:href="#path10_fill" transform="translate(7896.56 -83.801)" fill="#FFFFFF"/>
                    </g>
                    <g id="Vector">
                        <use xlink:href="#path11_fill" transform="translate(7812.04 -59.8552)" fill="#FFFFFF"/>
                    </g>
                </g>
                <g id="Vector">
                    <use xlink:href="#path12_fill" transform="translate(7763.44 -40.9634)" fill="#FFFFFF"/>
                </g>
                <g id="Vector">
                    <use xlink:href="#path13_fill" transform="translate(7783.99 -40.9634)" fill="#FFFFFF"/>
                </g>
                <g id="Vector">
                    <use xlink:href="#path14_fill" transform="translate(7802.61 -40.9634)" fill="#FFFFFF"/>
                </g>
                <g id="Vector">
                    <use xlink:href="#path15_fill" transform="translate(7818.09 -40.9634)" fill="#FFFFFF"/>
                </g>
                <g id="Vector">
                    <use xlink:href="#path16_fill" transform="translate(7828.49 -40.9634)" fill="#FFFFFF"/>
                </g>
                <g id="Vector">
                    <use xlink:href="#path17_fill" transform="translate(7847.23 -40.9634)" fill="#FFFFFF"/>
                </g>
                <g id="Vector">
                    <use xlink:href="#path18_fill" transform="translate(7632.24 11.5004)" fill="#FFFFFF"/>
                </g>
            </g>
        </g>
    </g>
    <defs>
        <path id="path0_fill"
              d="M 87.1798 70.5135C 86.6961 69.0695 85.7288 68.1069 84.7615 67.5052C 83.9151 67.0239 83.3105 67.1442 82.7059 66.5426C 81.9804 65.8206 81.7386 65.5799 80.8922 65.3393C 79.3203 64.7376 78.5948 63.8953 77.5066 62.8123C 77.0229 62.331 77.2647 61.609 77.2647 60.8871C 77.2647 59.9244 76.4183 59.4431 76.1765 58.4805C 75.6928 57.0365 74.6046 55.8332 74.2419 54.5096C 73.8791 53.0656 73.5164 52.2233 73.0327 51.1403C 72.9118 50.7793 72.4281 50.8997 72.3072 50.659C 71.9445 50.1777 71.8236 49.3354 71.5817 48.854C 71.4608 48.4931 70.9771 48.6134 70.7353 48.3727C 70.1307 47.6507 69.2843 46.4474 69.2843 45.3645C 69.2843 44.6425 69.6471 43.8002 69.8889 43.5595C 70.3726 42.5969 71.4608 42.3562 71.7026 41.3936C 71.219 41.0326 71.219 41.2733 70.8562 41.2733C 70.1307 41.2733 70.0098 40.07 70.0098 39.1073C 70.0098 37.6633 71.4608 37.904 71.219 35.2567C 72.7909 35.2567 73.1536 33.5721 73.5164 32.6095C 74.1209 31.2858 75.5719 31.6468 75.9347 29.9622C 75.6928 29.8419 75.3301 29.4809 75.3301 29.3606L 75.5719 28.8792L 75.5719 28.5183C 75.5719 28.0369 75.2092 27.6759 75.2092 27.1946C 75.2092 26.4726 75.451 26.232 75.451 25.6303C 75.451 24.3067 74.3628 24.5474 74.3628 23.344C 74.3628 23.2237 74.3628 23.1034 74.4837 22.9831L 74.3628 23.1034C 74.2418 22.9831 73.7582 22.7424 73.7582 22.6221C 73.7582 22.3814 74 22.2611 74.1209 22.0204C 73.5164 21.6594 73.3955 20.9374 72.67 20.9374C 72.3072 20.9374 70.7353 22.1408 70.7353 22.5017C 70.7353 22.7424 71.0981 22.9831 71.219 23.1034C 71.0981 23.705 70.8562 24.066 70.3726 24.066C 69.5262 24.066 68.9216 22.8627 68.4379 22.3814C 68.0752 21.9001 67.1079 22.2611 66.7451 22.2611C 66.6242 22.2611 66.5033 22.0204 66.5033 21.9001C 65.7778 21.7798 65.7778 21.0578 65.536 20.5765C 65.4151 20.2155 63.4804 18.8918 63.3595 18.8918C 63.2386 19.0122 63.2386 19.3732 63.3595 19.4935L 62.8758 19.4935C 62.0294 18.8918 62.634 17.9292 62.2713 17.0869C 62.1503 16.4852 61.7876 16.3649 61.5458 16.0039C 60.6994 15.0413 59.732 14.4396 59.3693 12.9957L 59.0066 12.9957C 58.6438 12.9957 58.2811 13.3566 57.9183 13.3566C 56.8301 13.3566 56.3464 12.6347 55.6209 12.2737C 54.5327 11.672 53.8072 12.033 52.5981 11.4314C 50.9052 10.4687 50.6634 9.02476 49.0915 8.30278L 48.7288 8.30278C 48.2451 7.94179 47.8824 7.82146 47.5196 7.82146C 46.5523 7.82146 46.3105 9.02477 45.3431 9.02477C 44.8595 9.02477 44.4967 8.54345 44.2549 8.42312C 43.7713 8.18245 43.4085 8.30278 42.9248 8.30278C 42.1994 8.30278 40.3856 6.85882 39.7811 6.49783C 39.1765 6.13683 38.6928 6.49784 38.2092 6.37751C 37.3628 6.13685 37.2418 5.41485 36.3954 4.93353C 35.6699 4.57254 35.3072 4.69287 34.5817 4.33188C 34.219 4.21155 34.0981 4.09123 33.9771 3.85057C 33.2516 3.12858 31.5588 2.64726 31.4379 1.92528C 30.9543 1.92528 30.5915 1.20329 30.5915 0.721974C 30.5915 0.481313 30.7124 0.240664 30.7124 3.67219e-06L 1.84502e-06 3.67219e-06C 5.5621 55.5925 35.7909 103.845 79.683 133.807C 79.4412 132.724 79.0785 131.641 79.0785 131.04C 79.0785 129.957 80.4085 129.475 80.4085 128.513C 80.4085 128.031 79.683 127.069 79.5621 126.347L 79.5621 125.745L 79.683 125.745C 79.683 125.384 79.9249 125.023 80.1667 125.023C 81.134 125.023 80.7713 126.106 81.6177 126.106L 83.4314 116.841L 83.4314 115.878C 83.3105 115.878 83.0687 115.878 82.9477 115.878C 82.585 116.119 82.4641 116.6 82.1013 116.6C 81.6177 116.6 81.3758 115.156 81.3758 114.434C 81.3758 113.231 81.7386 112.749 81.8595 111.666C 82.2223 111.666 82.4641 111.546 82.4641 111.305C 82.4641 110.944 82.1013 110.583 82.1013 110.583C 81.8595 110.583 81.8595 108.778 81.8595 108.417C 81.8595 106.974 82.7059 105.53 83.1896 104.687C 83.4314 104.326 83.5523 103.364 83.7941 103.003C 83.9151 102.762 84.2778 102.762 84.2778 102.521C 84.6406 101.077 84.6405 99.9944 85.0033 98.5504L 85.0033 93.8575C 84.6405 92.7745 85.2451 91.9322 85.2451 90.8493C 85.2451 88.4427 86.5752 86.8784 86.5752 84.8327L 86.5752 84.2311C 86.5752 83.7498 86.817 82.6668 86.9379 82.0652L 86.9379 79.2976C 86.9379 78.4553 87.4216 76.7706 87.4216 75.808C 87.6634 74.8453 87.3007 71.2355 87.1798 70.5135ZM 81.8595 119.247C 81.8595 119.608 81.7386 119.729 81.6177 119.969L 81.6177 121.774L 81.134 121.774C 80.7713 121.774 80.5294 121.172 80.5294 120.932L 80.5294 120.09C 80.5294 120.09 80.8922 118.285 81.2549 118.285C 81.7386 118.285 81.8595 118.766 81.8595 119.247Z"/>
        <path id="path1_fill"
              d="M 314.863 28.2776C 314.379 26.4726 314.258 25.149 313.654 23.7051C 313.291 22.8627 312.928 20.5765 311.961 20.5765C 311.477 20.5765 311.719 20.9374 311.235 20.5765C 311.114 20.5765 311.235 20.3358 311.235 20.2155C 311.235 19.3732 311.356 18.7715 311.477 17.8089L 311.719 17.8089C 311.235 17.5682 311.719 16.1242 311.719 15.4023C 311.719 12.6347 310.268 11.0704 310.268 9.02476C 309.543 9.02476 310.51 7.21982 309.905 6.25718C 309.784 5.89619 309.301 6.13684 309.18 5.89618C 308.817 5.53519 309.059 5.29453 308.696 4.93354C 307.729 6.01651 307.366 7.82145 305.794 7.82145C 304.948 7.82145 304.948 7.09949 304.948 6.25718C 304.948 5.41486 305.19 5.05387 305.19 4.45222C 305.19 4.09123 304.948 3.97089 304.827 3.6099C 304.464 2.28627 303.739 1.32363 303.255 0.360987C 303.134 0.240657 303.013 0.120323 302.892 -7.34437e-06L 291.647 -7.34437e-06C 290.68 0.842304 289.229 1.2033 288.503 2.16594C 287.415 3.36924 286.327 4.69288 285.239 5.89618C 284.755 6.3775 284.15 7.09947 283.788 7.2198C 282.82 7.58079 281.611 7.82146 281.611 9.14509C 281.611 10.2281 281.974 10.95 281.974 11.9127C 281.974 13.477 281.248 14.4396 281.248 15.6429L 281.49 17.2072L 281.248 17.2072C 281.248 17.3275 280.886 17.3275 280.644 17.4479C 279.918 17.6885 280.039 19.2528 279.556 19.6138C 278.83 19.9748 278.83 19.7342 278.467 20.3358C 278.226 20.8171 278.226 21.5391 277.742 21.5391C 277.258 21.5391 277.016 21.2984 276.896 20.9375C 276.654 20.9375 276.412 20.4561 276.412 20.3358C 275.928 18.8918 275.324 17.5682 274.961 16.2446C 274.719 15.4023 273.994 14.8006 273.752 14.199C 273.268 13.2363 273.631 12.394 273.147 11.672C 272.664 10.8297 272.664 10.4687 272.422 9.74674C 272.18 8.7841 271.092 6.73848 270.729 5.41485C 270.366 4.21155 269.762 3.00825 269.762 1.80495C 269.762 1.68462 269.641 1.08297 269.641 0.962638C 269.641 0.601647 269.762 0.24066 269.762 0.12033L 246.062 0.12033C 245.82 0.842311 245.941 1.92528 245.216 1.92528C 244.369 1.92528 244.49 3.73024 243.644 3.73024C 243.16 3.73024 242.072 4.81321 242.072 5.53519C 240.5 5.89618 237.114 6.49783 237.114 7.94179C 237.114 8.06212 237.235 8.42311 237.356 8.54344C 236.026 9.26542 234.333 9.62641 233.003 9.9874C 232.278 10.1077 230.101 11.9127 229.376 12.2737L 227.562 12.2737C 226.595 12.9957 226.474 13.477 225.265 13.477L 224.902 13.7176C 224.781 13.7176 223.33 12.8753 223.209 12.8753C 223.088 12.755 223.451 12.755 223.088 12.1533C 222.484 11.1907 222.121 10.1077 222.121 8.90444C 221.516 8.90444 222 7.70113 222 7.09948C 222.242 5.77585 221.275 5.1742 220.791 4.45222C 220.065 3.73024 218.494 1.56429 218.494 0.12033C 218.373 0.12033 218.131 -7.34437e-06 218.01 -7.34437e-06L 213.052 -7.34437e-06L 213.052 0.842319C 213.657 2.52694 214.745 2.52693 215.592 3.73024C 216.559 5.1742 215.954 6.85882 217.043 7.94179C 217.889 8.90443 218.614 9.02477 219.582 9.86708C 220.428 10.5891 221.033 13.2363 222.846 13.2363C 222.846 14.3193 223.33 14.4396 222.846 15.1616C 223.572 15.7633 224.297 17.8089 225.265 17.8089C 226.111 17.8089 226.232 16.9666 226.958 16.7259C 227.804 16.3649 228.409 16.8462 229.255 16.7259C 231.431 16.3649 233.366 15.4023 235.422 14.9209C 235.543 15.2819 235.784 15.4023 235.784 15.8836C 235.784 19.3732 233.245 24.066 231.915 26.1117C 230.222 28.6386 229.497 30.9249 227.441 32.6095C 223.693 35.8584 219.824 36.821 218.373 42.3562C 218.01 43.9205 216.559 44.2815 216.559 46.0865C 216.559 48.0117 217.043 48.8541 217.043 50.7793C 217.043 52.9453 219.098 53.9079 219.098 55.1112C 219.098 55.4722 218.735 55.9535 218.735 56.0739L 218.735 57.6381C 218.735 58.6008 218.614 59.8041 218.614 61.6091C 218.977 61.97 219.098 62.331 219.098 62.8124C 219.098 67.6256 211.722 67.1442 211.118 71.2355C 210.392 71.3558 209.425 72.4388 209.425 73.1608C 209.425 74.4844 210.997 75.447 210.997 77.3723C 210.997 78.335 210.876 80.3806 210.513 80.9822C 210.15 81.4635 209.183 81.2229 208.82 81.4635C 207.49 82.1855 206.644 82.9075 206.039 84.3514C 206.523 84.7124 206.886 85.0734 206.886 85.6751C 206.886 87.48 205.314 88.8036 204.588 89.5256C 203.379 90.8493 203.258 92.2933 202.412 93.6169C 200.961 95.5422 200.356 97.3471 198.059 98.5504C 197.092 99.0317 195.762 98.5504 195.52 99.6334C 194.794 99.7537 194.311 100.115 193.827 100.115C 193.222 100.115 192.86 99.5131 192.255 99.5131C 189.958 99.5131 188.507 101.438 186.33 101.438C 185.363 101.438 184.879 100.837 184.516 100.235C 184.154 100.235 184.033 100.476 183.912 100.596C 183.912 99.3927 183.428 97.9487 182.945 97.4674C 183.428 96.9861 183.67 96.5048 183.67 95.7828C 183.67 94.8202 182.098 92.8949 181.856 92.4136C 179.801 88.563 177.261 84.9531 177.261 79.4179L 177.261 77.7333C 177.261 76.891 176.536 76.53 176.173 75.6877C 174.601 72.7997 172.909 70.3931 172.909 66.3019C 172.909 61.97 176.415 60.887 176.415 57.6381C 176.415 56.0738 175.931 55.4722 175.69 54.1486C 175.327 51.5013 174.843 50.5387 174.239 48.9744C 173.755 47.7711 173.997 46.3271 173.271 45.2441C 171.82 43.1985 168.677 41.0326 168.677 38.0243C 168.677 37.3024 169.523 35.7381 169.886 35.4974C 169.644 35.0161 169.886 34.7754 169.886 34.5348C 169.886 33.8128 169.886 31.8875 170.49 31.4062C 169.886 30.0825 168.918 28.7589 166.984 28.7589L 164.686 28.7589C 162.994 28.7589 162.631 25.149 160.333 25.149C 157.552 25.149 155.497 26.593 153.32 27.315C 152.474 27.6759 152.232 28.3979 151.386 28.3979C 150.539 28.3979 149.088 27.4353 148 27.4353C 145.824 27.4353 144.856 28.6386 142.68 28.6386C 141.954 28.6386 141.229 28.2776 140.987 28.1573C 139.415 26.8336 136.15 24.788 134.941 22.7424C 133.853 20.9375 133.49 19.4935 132.16 18.1699C 131.797 17.8089 128.775 14.9209 128.775 14.6803C 128.533 14.3193 128.291 14.199 128.049 13.838L 128.17 13.838C 128.17 12.8753 127.928 12.394 127.928 11.7924C 127.928 10.95 127.445 10.5891 127.082 9.74674C 128.291 9.02476 129.379 5.65552 129.379 4.09123C 129.379 2.52694 129.016 1.20329 128.654 -7.34437e-06L 35.549 -7.34437e-06C 35.67 0.120323 35.7909 0.360987 35.9118 0.360987C 35.549 1.08297 34.4608 1.08298 33.7353 1.08298C 32.4052 1.08298 31.5588 0.721981 30.4706 0.721981L 30.4706 0.360987C 30.7124 0.360987 30.8333 0.240653 30.9543 -7.34437e-06L 15.3562 -7.34437e-06C 15.1144 0.601643 14.8726 1.20329 14.8726 1.80495C 14.8726 2.76759 14.5098 3.24892 14.1471 3.85057L 14.1471 3.36924L 13.6634 3.36924L 13.6634 6.3775C 13.6634 6.97915 12.9379 7.21981 12.6961 7.5808L 12.6961 7.94179C 12.6961 8.42311 13.0588 8.66378 13.4216 8.66378C 15.2353 8.66378 16.8072 8.30279 18.7418 8.30279C 20.0719 8.30279 20.4346 9.38575 21.402 9.62641L 21.402 10.5891C 21.402 11.1907 21.402 12.755 21.0392 13.3566L 21.0392 17.2072C 21.0392 18.5308 22.2484 19.1325 23.0948 19.6138C 23.6994 19.9748 23.6994 21.0578 24.6667 21.0578C 26.1177 21.0578 26.8431 19.8545 28.1732 19.8545C 29.7451 19.8545 30.4706 21.0578 31.317 21.7798C 31.317 21.7798 31.1961 22.0204 30.9543 22.2611C 31.0752 22.1407 31.317 22.0204 31.317 21.9001C 31.8007 22.0204 31.5588 22.0204 32.0425 21.9001L 32.0425 21.5391C 32.0425 21.4188 32.2843 21.1781 32.4052 21.1781C 32.4052 20.5765 32.8889 20.3358 33.2516 20.0951C 33.6144 19.8545 33.6144 19.0122 33.7353 18.5308C 33.9771 17.5682 34.4608 17.3276 35.3072 17.0869C 36.6373 16.6056 37.4837 16.3649 38.9346 15.8836C 39.6601 15.6429 39.7811 14.6803 40.5065 14.6803C 40.7484 14.6803 40.9902 15.4023 40.9902 15.4023C 40.9902 15.8836 40.6275 16.1242 40.5065 16.1242C 40.3856 17.0869 40.0229 18.0495 40.0229 18.6512C 40.0229 19.3732 40.3856 20.5765 40.9902 20.5765C 41.232 20.5765 41.4739 19.8545 41.4739 19.6138C 41.4739 18.8918 40.7484 18.4105 40.7484 17.6885C 40.7484 16.7259 41.5948 16.8462 42.1994 16.4852L 43.5294 16.4852C 43.2876 15.7633 42.4412 16.0039 42.4412 15.2819L 43.4085 15.2819C 43.6504 16.2446 44.8595 16.6056 45.7059 16.8462C 45.7059 17.4479 46.0687 17.9292 46.4314 17.9292L 49.4543 17.9292C 49.4543 18.4105 50.1798 18.6512 50.5425 18.6512C 51.3889 18.5308 51.9935 18.5308 52.2353 17.8089C 52.2353 17.6885 53.4445 17.6885 53.6863 17.4479C 54.2909 17.4479 55.2582 17.5682 55.2582 17.5682C 55.0164 17.8089 54.5327 17.8089 54.4118 17.6885L 54.4118 18.1699C 54.7745 19.0122 55.9837 19.2528 56.8301 19.4935C 57.5556 19.7342 57.3138 20.6968 57.5556 21.4188L 59.1275 21.4188C 60.2157 22.6221 60.6994 22.3814 61.4249 23.9457C 61.5458 24.1864 61.9085 24.3067 62.2713 24.3067C 62.634 26.1117 65.0523 25.871 66.5033 26.232L 67.9543 26.232C 68.317 26.3523 69.2843 26.954 69.768 26.954L 69.768 27.0743L 70.1307 27.0743C 70.9771 27.0743 72.1863 29.1199 73.1536 29.3606C 73.1536 30.0825 73.8791 32.1282 74.1209 32.7298C 74.3628 33.3315 75.0883 33.3315 75.0883 33.9331C 74.2419 35.1364 72.549 35.7381 72.549 37.6633C 72.549 38.265 73.0327 38.265 73.3954 38.3853C 73.8791 38.7463 74.2419 39.2276 74.3628 39.8293L 75.6928 39.8293C 75.6928 40.0699 75.8138 40.5513 75.9347 40.5513C 76.1765 40.5513 76.4183 40.0699 76.5392 39.8293C 77.1438 38.8666 77.7484 37.543 78.7157 37.543C 79.683 37.543 81.7386 38.7463 82.4641 39.2276C 82.9477 39.5886 83.4314 39.348 83.5523 39.9496C 83.6732 40.5513 83.6732 40.9122 83.6732 41.5139L 84.036 41.5139C 84.5196 41.2732 84.7615 40.7919 85.2451 40.7919C 86.4543 40.7919 86.6961 41.7546 87.7844 41.7546L 89.9608 41.3936C 91.0491 41.6342 92.0164 42.1156 92.621 42.3562C 93.1046 43.3189 94.9183 45.0035 95.7647 45.3645C 96.4902 45.6051 97.0948 45.2442 97.8203 45.4848C 98.9085 45.8458 99.2713 47.1694 99.2713 48.4931C 99.2713 53.0656 96.9739 54.3892 95.5229 56.9162C 95.1602 57.5178 94.9183 57.6382 94.6765 58.1195C 94.0719 59.0821 93.4674 59.2024 92.9837 59.8041C 92.1373 60.7667 92.9837 62.692 92.9837 64.2563C 92.9837 65.3393 92.621 66.4222 92.621 67.2645C 92.621 67.6255 92.3791 67.8662 92.3791 67.9865C 92.1373 68.3475 91.6536 68.9492 91.6536 69.4305C 91.6536 70.0322 91.5327 71.2354 91.4118 71.5964C 90.5654 73.0404 90.3236 73.6421 89.4772 74.8454C 89.2353 75.2064 89.3562 75.9283 89.2353 76.169C 88.8726 76.891 87.6634 77.8536 86.6961 77.8536C 85.6079 77.8536 84.7615 77.7333 83.9151 78.2146C 83.5523 78.4553 83.5523 78.6959 83.3105 78.9366C 81.9804 80.3805 80.5294 79.5382 79.5621 81.3432C 79.0785 82.1855 78.353 82.1855 77.9902 82.6668C 77.2647 83.5091 77.3856 84.3514 77.3856 85.5547L 77.3856 88.4427C 76.2974 89.0443 75.6928 90.1273 75.0883 91.4509C 74.7255 92.2932 74.7255 92.6542 74.2419 93.4965C 73.2745 95.1812 72.0654 95.3015 71.219 96.9861C 70.1308 98.9114 69.6471 101.92 67.1079 101.92C 66.2615 101.92 64.9314 101.198 64.5687 101.198C 63.7223 101.198 62.9968 100.476 62.1504 100.476C 62.0294 100.476 61.6667 100.596 61.6667 100.837C 61.6667 101.318 62.5131 101.679 62.634 101.92C 63.1177 102.401 63.1177 103.123 63.3595 103.845C 63.4804 104.567 64.4477 104.567 64.4477 105.289C 64.4477 106.011 64.4477 106.492 64.2059 106.974C 63.7222 107.816 63.3595 108.297 62.7549 108.899C 61.7876 109.982 60.5785 109.621 59.2484 110.102C 58.402 110.343 56.4673 109.741 55.9837 110.222C 55.2582 111.065 55.8628 112.87 55.5 113.712L 55.5 114.314C 55.5 114.675 54.6536 115.036 54.17 115.036C 52.9608 115.036 52.719 114.193 51.6307 114.193C 51.268 114.193 51.0262 114.675 51.0262 114.915C 51.0262 115.758 51.7516 117.442 52.2353 117.442C 52.4771 117.442 52.8399 117.081 53.0817 116.961C 53.3236 117.202 53.5654 117.322 53.5654 117.563C 53.5654 117.924 53.0817 118.405 52.9608 118.405C 52.2353 118.405 52.1144 117.803 51.5098 117.803C 51.5098 118.525 51.8726 118.646 52.1144 118.766C 51.1471 119.849 51.1471 121.052 50.7843 122.616C 50.6634 123.338 49.6961 123.338 49.2124 123.459C 48.366 123.699 47.5196 124.542 47.5196 125.625C 47.5196 128.031 50.0588 127.189 50.0588 129.114C 50.0588 130.919 48.6079 131.04 47.8824 131.882C 47.3987 132.363 47.6405 133.205 47.2778 134.048C 46.9151 134.89 45.9477 134.529 45.4641 135.131C 44.7386 135.853 44.4967 136.695 44.4967 137.898C 44.4967 138.5 44.9804 139.342 45.3432 139.342C 45.7059 139.583 45.9477 140.064 46.0686 140.546C 73.6373 156.79 105.801 166.056 140.141 166.056C 221.879 166.056 291.284 113.471 315.951 40.3106C 315.467 39.5886 315.105 38.7463 314.742 37.904C 314.621 37.543 314.016 36.3397 313.775 36.3397C 313.654 36.3397 313.775 35.9787 313.654 35.8584C 313.654 35.7381 312.928 35.6177 312.807 35.4974C 312.565 35.2567 312.082 33.8128 312.082 33.3315C 311.719 31.8875 310.389 32.1281 310.026 31.2858C 309.664 30.5639 309.543 30.2029 309.18 29.3606C 308.938 28.8792 308.333 28.8792 307.85 28.8792C 307.366 28.7589 306.52 26.954 306.278 26.3523L 306.278 25.9913L 306.641 25.9913C 307.245 25.9913 307.366 26.3523 307.729 26.593L 309.543 26.593C 310.752 27.0743 311.114 27.9166 311.598 28.9996C 311.719 29.3606 311.961 29.2402 312.203 29.3606C 313.049 29.7216 313.412 30.4435 314.016 31.0452C 315.105 32.2485 315.709 32.9705 317.281 33.5721C 317.523 33.6925 317.765 33.6925 318.007 33.9331C 318.128 33.5721 318.248 33.2111 318.369 32.8501C 316.797 32.0078 315.467 30.2029 314.863 28.2776ZM 30.8333 4.8132C 30.3497 4.8132 29.9869 4.33189 29.9869 3.85057C 29.9869 3.60991 30.3497 3.48958 30.5915 3.48958C 31.317 3.48958 32.0425 3.85056 32.4052 3.97089L 32.2843 3.85057C 32.6471 3.9709 32.768 4.21156 32.768 4.45222C 32.0425 4.57255 31.5588 4.8132 30.8333 4.8132ZM 43.5294 3.73024C 43.1667 3.9709 42.9249 4.21155 42.4412 4.21155C 42.0785 4.21155 42.1994 3.85057 41.9575 3.85057C 41.232 3.85057 41.232 4.93354 40.6275 4.93354C 40.1438 4.93354 40.2647 4.33189 39.902 4.09123C 39.4183 3.73024 38.0883 3.85057 37.3628 3.85057C 37 3.85057 37 4.09123 36.6373 3.85057C 36.6373 4.09123 36.6373 4.21156 36.6373 4.33189C 36.2745 4.21156 35.9118 3.73023 35.9118 3.36924C 36.0327 3.36924 36.1536 3.24891 36.1536 3.12858C 37.3628 3.12858 37.9673 3.48957 38.6928 3.12858C 38.3301 2.76759 38.3301 2.28627 38.3301 1.80495C 37.9673 1.80495 37.6046 1.44397 37.6046 1.08298C 37.6046 0.962645 37.8464 0.721981 38.0882 0.721981C 38.5719 0.721981 38.9347 1.08298 39.4183 1.08298C 40.1438 1.08298 40.5065 0.842319 41.1111 0.842319C 42.9248 0.842319 43.2876 1.92528 44.2549 2.4066L 44.0131 2.16594C 44.6177 2.64726 45.1013 2.88793 45.585 3.48958L 43.5294 3.48958L 43.5294 3.73024ZM 48.9706 4.45222C 48.2451 4.45222 47.5196 4.45222 47.5196 3.73024C 47.5196 3.36924 48.0033 3.36924 48.1242 3.36924C 48.2451 3.36924 49.5752 3.73024 49.817 4.09123C 49.6961 4.45222 49.3333 4.45222 48.9706 4.45222ZM 57.5556 18.1699C 57.4347 18.4105 57.1928 19.0122 56.8301 19.0122C 56.7092 19.0122 56.3464 19.1325 56.3464 19.0122C 56.3464 18.4105 56.7092 17.8089 57.0719 17.8089L 57.5556 17.8089L 57.5556 18.1699ZM 76.0556 39.8293C 75.2092 39.8293 73.7582 38.7463 73.7582 38.1447C 73.7582 37.182 74.2419 36.5804 74.8464 36.5804L 75.0883 36.5804C 75.451 36.821 75.8138 37.182 76.2974 37.182C 76.4183 38.0243 76.902 37.3023 77.1438 37.3023C 77.3856 37.3023 77.5066 37.7837 77.5066 37.904C 77.6275 38.3853 76.7811 39.8293 76.0556 39.8293ZM 234.575 65.0986C 234.333 64.9783 233.729 64.7376 233.608 64.7376C 233.608 69.3102 232.278 72.4388 231.069 75.9283C 230.101 78.6959 229.618 82.9075 226.111 82.9075C 224.66 82.9075 223.451 81.1025 223.451 79.5382C 223.451 78.6959 223.572 78.4553 223.572 77.974C 222.847 77.4926 222.846 76.4097 222.846 75.447C 222.846 75.2064 223.814 74.2437 223.935 74.2437C 223.935 74.2437 225.023 71.5964 225.023 71.4761C 225.023 70.7541 224.177 69.1899 224.177 68.2272C 224.177 65.219 226.232 65.3393 227.804 64.3766C 229.134 63.5343 230.827 61.1277 231.673 60.1651C 231.915 59.8041 231.794 58.8414 232.036 58.3601C 233.971 58.6008 233.729 62.692 234.333 64.2563L 234.333 65.0986L 234.575 65.0986ZM 239.896 14.56C 239.775 14.56 239.412 14.4396 239.291 14.0786C 239.775 13.9583 240.137 13.7176 240.863 13.7176C 240.742 14.0786 240.258 14.56 239.896 14.56ZM 282.699 25.51C 281.974 25.51 281.248 24.6677 281.248 23.7051C 281.248 21.9001 281.974 20.5765 281.974 18.6512C 282.82 20.0951 284.392 20.9374 284.392 22.8627C 284.513 24.066 283.788 25.51 282.699 25.51ZM 312.082 37.7837L 312.565 37.7837L 312.565 38.1447C 312.928 38.626 313.17 38.987 313.17 39.5886C 312.928 39.4683 312.203 38.5057 312.203 38.0243L 312.203 37.7837L 312.082 37.7837ZM 310.268 33.9331C 310.631 34.1738 311.477 35.3771 311.114 35.3771C 310.873 35.3771 310.147 34.4144 310.147 34.0534L 310.268 33.9331ZM 0.604572 0.842319C 1.57189 1.92529 1.5719 3.00826 3.1438 3.48958C 3.62746 3.73024 3.62746 4.21155 4.11112 4.21155C 5.19936 4.21155 6.04576 3.36924 7.134 3.36924C 7.73857 3.36924 7.9804 3.73024 8.22223 3.73024C 8.70589 3.73024 8.94771 3.00825 9.06863 2.76759C 9.31046 2.04561 10.2778 1.20331 10.2778 0.240668C 10.2778 0.120338 10.2778 0.120323 10.2778 -7.34437e-06L -3.69004e-06 -7.34437e-06C 0.120911 0.360983 0.362742 0.721988 0.604572 0.842319Z"/>
        <path id="path2_fill"
              d="M 6.77124 29.6547C 4.35294 29.6547 2.29739 29.6547 7.38007e-06 29.6547C 7.38007e-06 19.7876 7.38007e-06 10.0409 7.38007e-06 0.0534837C 1.5719 0.0534837 3.14379 -0.0668464 4.71569 0.0534837C 5.19935 0.0534837 5.68302 0.655127 6.04576 1.13645C 10.036 6.06998 13.9052 11.0035 17.8954 15.9371C 18.1373 16.2981 18.5 16.6591 18.9837 17.2607C 18.9837 11.3645 18.9837 5.82933 18.9837 0.0534837C 21.2811 0.0534837 23.5784 0.0534837 25.7549 0.0534837C 25.7549 9.92056 25.7549 19.6673 25.7549 29.6547C 24.0621 29.6547 22.3693 29.6547 20.6765 29.6547C 20.3137 29.6547 19.951 29.1734 19.5882 28.8124C 15.719 24.1195 11.9706 19.4266 8.22222 14.7338C 7.85947 14.2524 7.37582 13.7711 6.77124 12.9288C 6.77124 18.7047 6.77124 24.1195 6.77124 29.6547Z"/>
        <path id="path3_fill"
              d="M 41.232 0.0534764C 39.902 3.78371 38.5719 7.15296 37.3627 10.6425C 35.0654 16.659 32.8889 22.6756 30.5915 28.8124C 30.2288 29.775 29.866 30.136 28.7778 30.136C 25.3922 30.136 25.3922 30.136 24.183 26.8871C 23.0948 23.7585 21.8856 20.7503 20.5556 17.2607C 19.4673 20.0283 18.6209 22.5552 17.6536 24.9618C 17.1699 26.2854 16.5654 27.7294 16.2026 29.0531C 15.9608 29.775 15.5981 30.0157 14.7516 30.0157C 11.1242 30.0157 11.1242 30.0157 9.91504 26.6465C 6.77125 18.2233 3.62746 9.80023 0.483664 1.37712C 0.362749 1.01613 0.241823 0.534797 -7.38007e-06 0.0534764C 1.45097 0.0534764 2.78104 -0.0668538 3.99019 0.0534764C 4.35294 0.0534764 4.8366 0.655138 4.95752 1.13646C 7.61765 7.99528 10.1569 14.9744 12.6961 21.9536C 12.817 22.4349 13.0588 22.7959 13.3007 23.5179C 14.5098 20.1486 15.598 17.02 16.9281 14.0118C 18.0163 11.7255 17.8954 9.67989 16.9281 7.51394C 15.8399 5.10734 15.1144 2.70074 14.1471 0.0534764C 15.5981 0.0534764 17.049 0.0534764 18.3791 0.0534764C 18.6209 0.0534764 18.9837 0.534804 19.2255 0.775465C 19.7092 1.85844 20.0719 2.82107 20.5556 4.26503C 21.0392 2.9414 21.402 1.85843 21.8856 0.895784C 22.1275 0.534793 22.6111 0.0534764 23.0948 0.0534764C 24.3039 -0.0668538 25.3922 0.0534764 26.8432 0.0534764C 26.7222 0.534797 26.7222 0.895799 26.6013 1.13646C 25.5131 4.02438 24.4249 6.9123 23.4575 9.80023C 23.2157 10.4019 23.2157 11.1238 23.3366 11.7255C 24.6667 15.4557 25.9967 19.0656 27.4477 22.6756C 27.5686 22.9162 27.6896 23.0365 27.9314 23.3975C 29.6242 18.825 31.317 14.3728 32.8889 10.0409C 33.9771 7.03263 35.1863 4.02438 36.2745 1.01612C 36.5163 0.29414 36.8791 -0.0668538 37.7255 0.0534764C 38.8137 0.0534764 39.902 0.0534764 41.232 0.0534764Z"/>
        <path id="path4_fill"
              d="M 7.38007e-06 15.4708C 0.120922 9.8153 2.05556 5.60375 6.28759 2.5955C 12.3333 -1.73639 20.4346 -0.533082 24.9085 5.3631C 29.866 11.7406 29.2615 20.8857 23.5784 26.3005C 15.5981 33.761 3.14379 29.7901 0.48366 18.7197C 0.120915 17.5164 0.120922 16.1928 7.38007e-06 15.4708ZM 14.268 23.8939C 16.2026 24.0143 17.8954 23.0516 19.1046 21.4873C 21.7647 18.1181 21.8856 12.3422 19.3464 8.973C 16.5654 5.12244 11.2451 5.24275 8.58497 9.09332C 6.28758 12.4626 6.28759 17.8774 8.70589 21.2467C 10.1569 22.9313 11.8497 24.0143 14.268 23.8939Z"/>
        <path id="path5_fill"
              d="M 20.6765 29.4809C 13.7843 29.4809 6.89216 29.4809 3.69004e-06 29.4809C 3.69004e-06 19.6138 3.69004e-06 9.86707 3.69004e-06 -7.34437e-06C 6.77125 -7.34437e-06 13.4216 -7.34437e-06 20.3137 -7.34437e-06C 20.3137 2.04561 20.3137 3.97089 20.3137 6.0165C 15.8399 6.0165 11.4869 6.0165 7.01308 6.0165C 7.01308 7.94178 7.01308 9.74675 7.01308 11.672C 10.7614 11.672 14.6307 11.672 18.5 11.672C 18.5 13.5973 18.5 15.2819 18.5 17.2072C 14.6307 17.2072 10.8824 17.2072 7.01308 17.2072C 7.01308 19.3732 7.01308 21.4188 7.01308 23.5847C 11.6079 23.5847 16.0817 23.5847 20.7974 23.5847C 20.6765 25.51 20.6765 27.4353 20.6765 29.4809Z"/>
        <path id="path6_fill"
              d="M -7.38007e-06 29.5001C -7.38007e-06 19.6331 -7.38007e-06 9.88633 -7.38007e-06 0.0192565C 0.967313 0.0192565 1.81373 0.0192565 2.53922 0.0192565C 6.28758 0.0192565 10.1569 -0.101077 13.9052 0.259913C 18.8627 0.741234 22.6111 5.7951 22.2484 10.849C 21.8856 16.2638 17.7745 20.1144 12.5752 20.1144C 10.7614 20.1144 8.94772 20.1144 6.89217 20.1144C 6.89217 23.243 6.89217 26.3716 6.89217 29.6205C 4.47386 29.5001 2.29738 29.5001 -7.38007e-06 29.5001ZM 6.77124 14.0979C 8.46405 14.0979 10.1569 14.0979 11.7288 14.0979C 13.6634 14.0979 14.7516 13.1352 15.1144 11.4506C 15.598 9.16435 14.8725 7.11874 13.3007 6.39676C 13.1797 6.27643 12.9379 6.15608 12.817 6.15608C 10.7614 6.15608 8.8268 6.15608 6.77124 6.15608C 6.77124 8.80335 6.77124 11.3303 6.77124 14.0979Z"/>
        <path id="path7_fill"
              d="M 0 29.6798C 0 19.8127 0 10.066 0 0.319236C 0.120915 0.198906 0.241845 0.0785793 0.241845 0.0785793C 4.23204 0.0785793 8.34315 -0.162074 12.3334 0.198917C 19.4673 0.800568 24.183 5.7341 24.7876 12.7132C 25.0294 16.0825 24.7876 19.3314 23.2157 22.3397C 21.0392 26.6715 17.2908 29.0782 12.4542 29.4392C 8.46404 30.0408 4.23203 29.6798 0 29.6798ZM 4.71568 25.5886C 7.01307 25.5886 9.31046 25.7089 11.4869 25.5886C 14.9935 25.3479 17.5327 23.6633 18.9837 20.5347C 20.6765 16.9248 20.5555 13.1946 19.1046 9.58467C 18.1372 7.2984 16.4445 5.7341 14.0262 4.89179C 11.0033 3.80881 7.85947 4.41047 4.71568 4.29014C 4.71568 11.5099 4.71568 18.4891 4.71568 25.5886Z"/>
        <path id="path8_fill"
              d="M 0.120915 0.0300862C 2.4183 0.0300862 4.7157 0.0300862 7.01309 0.0300862C 9.31047 0.0300862 11.6078 -0.090255 13.9052 0.150405C 18.0163 0.511396 21.2811 3.88065 22.0066 8.0922C 22.732 12.3038 20.7974 16.2746 17.049 18.1999C 16.8072 18.3203 16.6863 18.4406 16.3235 18.5609C 18.6209 22.1708 20.9183 25.7807 23.3366 29.7516C 21.5229 29.7516 19.951 29.7516 18.3791 29.7516C 18.0164 29.7516 17.6536 29.2703 17.4118 28.9093C 15.598 26.1417 13.9052 23.4945 12.2124 20.6065C 11.7288 19.8846 11.2451 19.5236 10.2778 19.5236C 8.46405 19.6439 6.65031 19.5236 4.71567 19.5236C 4.71567 22.8928 4.71567 26.2621 4.71567 29.6313C 3.14378 29.6313 1.57189 29.6313 -7.38007e-06 29.6313C 0.120908 19.7642 0.120915 10.0175 0.120915 0.0300862ZM 4.8366 15.1917C 7.61764 15.1917 10.0359 15.1917 12.5752 15.1917C 14.6307 15.1917 15.9608 14.229 16.8072 12.5444C 18.5 9.17517 16.6863 4.60262 13.3007 4.36196C 10.5196 4.1213 7.73856 4.36196 4.8366 4.36196C 4.8366 4.84328 4.8366 5.08395 4.8366 5.44494C 4.8366 8.57353 4.8366 11.8224 4.8366 15.1917Z"/>
        <path id="path9_fill"
              d="M 1.47601e-05 15.8857C 0.12093 10.4709 1.6928 6.6203 4.9575 3.61205C 10.2778 -1.32149 18.3791 -1.20115 23.5785 3.97304C 29.0196 9.3879 29.7451 18.4127 24.9085 24.5495C 21.5229 28.8814 17.1699 30.8067 11.6078 29.844C 6.28757 28.8814 2.90196 25.5121 0.967321 20.5786C 0.362745 18.7737 0.241845 16.8484 1.47601e-05 15.8857ZM 23.3366 14.8028C 23.3366 12.2758 22.732 9.98956 21.1602 7.94394C 17.4118 2.76975 10.2778 2.89007 6.77123 8.1846C 3.99018 12.5165 3.99021 17.089 6.65034 21.4209C 10.1569 27.0764 17.6536 27.0764 21.281 21.6616C 22.732 19.616 23.3366 17.3297 23.3366 14.8028Z"/>
        <path id="path10_fill"
              d="M 1.47601e-05 3.67219e-06C 1.451 3.67219e-06 2.90195 3.67219e-06 4.47385 3.67219e-06C 4.47385 8.42312 4.47385 16.8462 4.47385 25.3897C 9.91503 25.3897 14.9935 25.3897 20.3137 25.3897C 20.3137 26.8336 20.3137 28.1573 20.3137 29.4809C 13.5425 29.4809 6.77126 29.4809 1.47601e-05 29.4809C 1.47601e-05 19.7342 1.47601e-05 9.98741 1.47601e-05 3.67219e-06Z"/>
        <path id="path11_fill"
              d="M 3.69004e-06 5.89619C 0.604579 3.9709 1.20914 2.28627 1.93463 -3.67218e-06C 2.66012 2.16594 3.38563 3.9709 3.99021 5.89619C 2.66014 5.89619 1.45098 5.89619 3.69004e-06 5.89619Z"/>
        <path id="path12_fill"
              d="M 0.120911 -7.34437e-06L 5.32026 -7.34437e-06C 8.22223 -7.34437e-06 10.1569 0.24066 11.366 0.721981C 12.5752 1.2033 13.5425 2.04562 14.268 3.24892C 14.9935 4.45222 15.3562 5.77586 15.3562 7.46048C 15.3562 9.1451 14.9935 10.5891 14.1471 11.672C 13.3007 12.755 12.0915 13.7176 10.5196 14.199L 16.5654 25.6303L 11.2451 25.6303L 5.44119 14.8006L 4.95751 14.8006L 4.95751 25.6303L 7.38007e-06 25.6303L 7.38007e-06 -7.34437e-06L 0.120911 -7.34437e-06ZM 4.95751 10.1077L 6.52941 10.1077C 8.10131 10.1077 9.18954 9.86708 9.79412 9.50609C 10.3987 9.1451 10.6405 8.42312 10.6405 7.46048C 10.6405 6.85883 10.5196 6.37749 10.1569 6.0165C 9.91504 5.65551 9.43138 5.29452 8.94772 5.17419C 8.46406 5.05386 7.61765 4.93354 6.28759 4.93354L 4.95751 4.93354L 4.95751 10.1077Z"/>
        <path id="path13_fill"
              d="M 7.38007e-06 -7.34437e-06L 14.0261 -7.34437e-06L 14.0261 4.8132L 4.83661 4.8132L 4.83661 9.50609L 14.0261 9.50609L 14.0261 14.199L 4.83661 14.199L 4.83661 20.9375L 14.0261 20.9375L 14.0261 25.7507L 7.38007e-06 25.7507L 7.38007e-06 -7.34437e-06Z"/>
        <path id="path14_fill"
              d="M 0 -7.34437e-06L 4.95752 -7.34437e-06L 4.95752 20.9375L 12.0915 20.9375L 12.0915 25.6303L 0 25.6303L 0 -7.34437e-06Z"/>
        <path id="path15_fill"
              d="M 3.69004e-06 -7.34437e-06L 4.83659 -7.34437e-06L 4.83659 25.6303L 3.69004e-06 25.6303L 3.69004e-06 -7.34437e-06Z"/>
        <path id="path16_fill"
              d="M -7.38007e-06 -7.34437e-06L 14.0261 -7.34437e-06L 14.0261 4.8132L 4.8366 4.8132L 4.8366 9.50609L 14.0261 9.50609L 14.0261 14.199L 4.8366 14.199L 4.8366 20.9375L 14.0261 20.9375L 14.0261 25.7507L -7.38007e-06 25.7507L -7.38007e-06 -7.34437e-06Z"/>
        <path id="path17_fill"
              d="M -7.38007e-06 -7.34437e-06L 12.817 -7.34437e-06L 12.817 4.8132L 4.95752 4.8132L 4.95752 9.50609L 12.817 9.50609L 12.817 14.199L 4.95752 14.199L 4.95752 25.7507L 0.120915 25.7507L 0.120915 -7.34437e-06L -7.38007e-06 -7.34437e-06Z"/>
        <path id="path18_fill"
              d="M 367.582 0C 358.755 92.6542 280.16 165.454 184.758 165.454C 89.3562 165.454 10.7614 92.7746 2.05556 0L -1.84502e-06 0C 8.8268 93.8575 88.3889 167.5 184.879 167.5C 281.369 167.5 360.931 93.8575 369.758 0L 367.582 0Z"/>
    </defs>
</svg>
