<svg width="13" height="13" viewBox="0 0 13 13" fill="none" xmlns="http://www.w3.org/2000/svg">
<path d="M11.3312 0H1.66881C0.750963 0 0 0.68421 0 1.66881V11.3312C0 12.3158 0.750963 13 1.66881 13H11.3312C12.249 13 13 12.3158 13 11.3312V1.66881C13 0.68421 12.249 0 11.3312 0ZM3.52118 1.45186C3.83825 1.45186 4.10526 1.71887 4.10526 2.03594V3.43774C4.10526 3.75481 3.83825 4.02182 3.52118 4.02182H2.05263C1.73556 4.02182 1.46855 3.75481 1.46855 3.43774V2.03594C1.46855 1.71887 1.73556 1.45186 2.05263 1.45186H3.52118ZM1.46855 5.49037H2.62003C2.5199 5.84082 2.45315 6.22465 2.45315 6.60847C2.45315 8.77792 4.25546 10.5302 6.49166 10.5302C8.72786 10.5302 10.5302 8.77792 10.5302 6.60847C10.5302 6.22465 10.4634 5.84082 10.3633 5.49037H11.5481V10.9807C11.5481 11.2644 11.3145 11.4981 11.0308 11.4981H1.98588C1.70218 11.4981 1.46855 11.2644 1.46855 10.9807V5.49037ZM6.49166 3.93838C7.92683 3.93838 9.09499 5.07317 9.09499 6.47497C9.09499 7.87676 7.92683 9.01155 6.49166 9.01155C5.05648 9.01155 3.88832 7.87676 3.88832 6.47497C3.88832 5.07317 5.03979 3.93838 6.49166 3.93838Z" fill="white"/>
</svg>
