<svg width="13" height="13" viewBox="0 0 13 13" version="1.1" xmlns="http://www.w3.org/2000/svg" xmlns:xlink="http://www.w3.org/1999/xlink">
<title>Group</title>
<desc>Created using Figma</desc>
<g id="Canvas" transform="translate(951 803)">
<g id="Group">
<g id="Vector">
<use xlink:href="#path0_fill" transform="matrix(-1 0 0 1 -938 -803)" fill="#2D9CDB"/>
</g>
</g>
</g>
<defs>
<path id="path0_fill" d="M 1.66881 0L 11.3312 0C 12.249 0 13 0.68421 13 1.66881L 13 11.3312C 13 12.3158 12.249 13 11.3312 13L 1.66881 13C 0.750963 13 0 12.3158 0 11.3312L 0 1.66881C 0 0.68421 0.750963 0 1.66881 0ZM 9.47882 1.45186C 9.16175 1.45186 8.89474 1.71887 8.89474 2.03594L 8.89474 3.43774C 8.89474 3.75481 9.16175 4.02182 9.47882 4.02182L 10.9474 4.02182C 11.2644 4.02182 11.5315 3.75481 11.5315 3.43774L 11.5315 2.03594C 11.5315 1.71887 11.2644 1.45186 10.9474 1.45186L 9.47882 1.45186ZM 11.5315 5.49037L 10.38 5.49037C 10.4801 5.84082 10.5469 6.22465 10.5469 6.60847C 10.5469 8.77792 8.74454 10.5302 6.50834 10.5302C 4.27214 10.5302 2.46983 8.77792 2.46983 6.60847C 2.46983 6.22465 2.53659 5.84082 2.63671 5.49037L 1.45186 5.49037L 1.45186 10.9807C 1.45186 11.2644 1.68549 11.4981 1.96919 11.4981L 11.0141 11.4981C 11.2978 11.4981 11.5315 11.2644 11.5315 10.9807L 11.5315 5.49037ZM 6.50834 3.93838C 5.07317 3.93838 3.90501 5.07317 3.90501 6.47497C 3.90501 7.87676 5.07317 9.01155 6.50834 9.01155C 7.94352 9.01155 9.11168 7.87676 9.11168 6.47497C 9.11168 5.07317 7.96021 3.93838 6.50834 3.93838Z"/>
</defs>
</svg>
