<svg width="13" height="13" viewBox="0 0 13 13" version="1.1" xmlns="http://www.w3.org/2000/svg" xmlns:xlink="http://www.w3.org/1999/xlink">
<title>linkedin</title>
<desc>Created using Figma</desc>
<g id="Canvas" transform="translate(1007 820)">
<g id="linkedin">
<g id="XMLID 801">
<g id="XMLID 802">
<use xlink:href="#path0_fill" transform="translate(-1006.79 -815.823)" fill="#67C6FC"/>
</g>
<g id="XMLID 803">
<use xlink:href="#path1_fill" transform="translate(-1007 -820)" fill="#67C6FC"/>
</g>
<g id="XMLID 804">
<use xlink:href="#path2_fill" transform="translate(-1002.55 -816.032)" fill="#67C6FC"/>
</g>
</g>
</g>
</g>
<defs>
<path id="path0_fill" d="M 2.81945 1.41085e-07L 0.209677 1.41085e-07C 0.0938516 1.41085e-07 1.91965e-09 0.0941007 1.91965e-09 0.21014L 1.91965e-09 8.6127C 1.91965e-09 8.72878 0.0938516 8.82284 0.209677 8.82284L 2.81945 8.82284C 2.93527 8.82284 3.02913 8.72878 3.02913 8.6127L 3.02913 0.21014C 3.02913 0.0941007 2.93527 1.41085e-07 2.81945 1.41085e-07Z"/>
<path id="path1_fill" d="M 1.72212 -3.90789e-10C 0.772536 -3.90789e-10 0 0.773398 0 1.72403C 0 2.67508 0.772536 3.44877 1.72212 3.44877C 2.67095 3.44877 3.44286 2.67504 3.44286 1.72403C 3.4429 0.773398 2.67095 -3.90789e-10 1.72212 -3.90789e-10Z"/>
<path id="path2_fill" d="M 5.21166 6.66947e-08C 4.16348 6.66947e-08 3.38864 0.45159 2.91867 0.964709L 2.91867 0.418977C 2.91867 0.302938 2.82482 0.208837 2.70899 0.208837L 0.209678 0.208837C 0.0938517 0.208837 1.04941e-07 0.302938 1.04941e-07 0.418977L 1.04941e-07 8.82154C 1.04941e-07 8.93762 0.0938517 9.03168 0.209678 9.03168L 2.81374 9.03168C 2.92957 9.03168 3.02342 8.93762 3.02342 8.82154L 3.02342 4.66422C 3.02342 3.2633 3.40311 2.71753 4.37752 2.71753C 5.43874 2.71753 5.52307 3.59247 5.52307 4.7363L 5.52307 8.82158C 5.52307 8.93766 5.61692 9.03172 5.73275 9.03172L 8.33778 9.03172C 8.45361 9.03172 8.54746 8.93766 8.54746 8.82158L 8.54746 4.21263C 8.54746 2.12951 8.15113 6.66947e-08 5.21166 6.66947e-08Z"/>
</defs>
</svg>
