<svg width="77" height="54" viewBox="0 0 77 54" version="1.1" xmlns="http://www.w3.org/2000/svg" xmlns:xlink="http://www.w3.org/1999/xlink">
<title>Group</title>
<desc>Created using Figma</desc>
<g id="Canvas" transform="translate(2075 756)">
<g id="Group">
<g id="Group">
<g id="Group">
<g id="Group">
<g id="Vector">
<use xlink:href="#path0_fill" transform="translate(-2075 -736.441)" fill="#2D9CDB"/>
</g>
</g>
<g id="Group">
<g id="Vector">
<use xlink:href="#path1_fill" transform="translate(-2065.74 -736.54)" fill="#2D9CDB"/>
</g>
</g>
</g>
</g>
<g id="Group">
<g id="Vector">
<use xlink:href="#path2_fill" transform="translate(-2047.52 -755.97)" fill="#2D9CDB"/>
</g>
<g id="Vector">
<use xlink:href="#path3_fill" transform="translate(-2041.41 -755.995)" fill="#2D9CDB"/>
</g>
<g id="Vector">
<use xlink:href="#path4_fill" transform="translate(-2064.88 -755.995)" fill="#2D9CDB"/>
</g>
<g id="Vector">
<use xlink:href="#path5_fill" transform="translate(-2052.76 -755.935)" fill="#2D9CDB"/>
</g>
<g id="Vector">
<use xlink:href="#path6_fill" transform="translate(-2058.14 -755.963)" fill="#2D9CDB"/>
</g>
<g id="Vector">
<use xlink:href="#path7_fill" transform="translate(-2014.83 -756)" fill="#2D9CDB"/>
</g>
<g id="Vector">
<use xlink:href="#path8_fill" transform="translate(-2025.81 -755.965)" fill="#2D9CDB"/>
</g>
<g id="Vector">
<use xlink:href="#path9_fill" transform="translate(-2032.65 -755.984)" fill="#2D9CDB"/>
</g>
<g id="Vector">
<use xlink:href="#path10_fill" transform="translate(-2019.94 -755.959)" fill="#2D9CDB"/>
</g>
<g id="Vector">
<use xlink:href="#path11_fill" transform="translate(-2037.53 -751.043)" fill="#2D9CDB"/>
</g>
</g>
<g id="Vector">
<use xlink:href="#path12_fill" transform="translate(-2047.65 -747.164)" fill="#2D9CDB"/>
</g>
<g id="Vector">
<use xlink:href="#path13_fill" transform="translate(-2043.37 -747.164)" fill="#2D9CDB"/>
</g>
<g id="Vector">
<use xlink:href="#path14_fill" transform="translate(-2039.49 -747.164)" fill="#2D9CDB"/>
</g>
<g id="Vector">
<use xlink:href="#path15_fill" transform="translate(-2036.27 -747.164)" fill="#2D9CDB"/>
</g>
<g id="Vector">
<use xlink:href="#path16_fill" transform="translate(-2034.11 -747.164)" fill="#2D9CDB"/>
</g>
<g id="Vector">
<use xlink:href="#path17_fill" transform="translate(-2030.21 -747.164)" fill="#2D9CDB"/>
</g>
<g id="Vector">
<use xlink:href="#path18_fill" transform="translate(-2074.95 -736.392)" fill="#2D9CDB"/>
</g>
</g>
</g>
<defs>
<path id="path0_fill" d="M 18.1428 14.478C 18.0421 14.1816 17.8408 13.9839 17.6395 13.8604C 17.4634 13.7616 17.3375 13.7863 17.2117 13.6627C 17.0607 13.5145 17.0104 13.4651 16.8343 13.4157C 16.5071 13.2921 16.3562 13.1192 16.1297 12.8968C 16.029 12.798 16.0794 12.6498 16.0794 12.5015C 16.0794 12.3039 15.9032 12.205 15.8529 12.0074C 15.7522 11.7109 15.5258 11.4638 15.4503 11.1921C 15.3748 10.8956 15.2993 10.7226 15.1987 10.5003C 15.1735 10.4262 15.0728 10.4509 15.0477 10.4015C 14.9722 10.3026 14.947 10.1297 14.8967 10.0309C 14.8715 9.95675 14.7709 9.98145 14.7205 9.93204C 14.5947 9.7838 14.4186 9.53673 14.4186 9.31438C 14.4186 9.16614 14.4941 8.99319 14.5444 8.94378C 14.6451 8.74613 14.8715 8.69671 14.9219 8.49906C 14.8212 8.42494 14.8212 8.47435 14.7457 8.47435C 14.5947 8.47435 14.5696 8.22729 14.5696 8.02964C 14.5696 7.73316 14.8715 7.78257 14.8212 7.23903C 15.1483 7.23903 15.2238 6.89313 15.2993 6.69548C 15.4251 6.42371 15.7271 6.49783 15.8026 6.15193C 15.7522 6.12723 15.6768 6.05311 15.6768 6.0284L 15.7271 5.92958L 15.7271 5.85546C 15.7271 5.75663 15.6516 5.68251 15.6516 5.58368C 15.6516 5.43544 15.7019 5.38603 15.7019 5.2625C 15.7019 4.99073 15.4755 5.04014 15.4755 4.79307C 15.4755 4.76837 15.4755 4.74366 15.5006 4.71895L 15.4755 4.74366C 15.4503 4.71895 15.3496 4.66954 15.3496 4.64484C 15.3496 4.59542 15.4 4.57072 15.4251 4.5213C 15.2993 4.44718 15.2741 4.29894 15.1232 4.29894C 15.0477 4.29894 14.7205 4.54601 14.7205 4.62013C 14.7205 4.66954 14.796 4.71895 14.8212 4.74366C 14.796 4.86719 14.7457 4.94131 14.6451 4.94131C 14.4689 4.94131 14.3431 4.69425 14.2424 4.59542C 14.167 4.49659 13.9657 4.57072 13.8902 4.57072C 13.865 4.57072 13.8398 4.5213 13.8398 4.4966C 13.6889 4.47189 13.6889 4.32365 13.6385 4.22482C 13.6134 4.1507 13.2108 3.87893 13.1856 3.87893C 13.1604 3.90364 13.1604 3.97776 13.1856 4.00246L 13.0849 4.00246C 12.9088 3.87893 13.0346 3.68128 12.9591 3.50833C 12.934 3.3848 12.8585 3.36009 12.8081 3.28597C 12.632 3.08832 12.4307 2.96479 12.3552 2.66831L 12.2797 2.66831C 12.2042 2.66831 12.1287 2.74243 12.0532 2.74243C 11.8268 2.74243 11.7261 2.59419 11.5751 2.52007C 11.3487 2.39654 11.1977 2.47066 10.946 2.34712C 10.5938 2.14947 10.5434 1.85299 10.2163 1.70475L 10.1408 1.70475C 10.0402 1.63063 9.96468 1.60593 9.88919 1.60593C 9.68788 1.60593 9.63756 1.85299 9.43625 1.85299C 9.3356 1.85299 9.26011 1.75417 9.20978 1.72946C 9.10913 1.68005 9.03364 1.70475 8.93298 1.70475C 8.782 1.70475 8.40455 1.40827 8.27874 1.33415C 8.15292 1.26003 8.05227 1.33416 7.95161 1.30945C 7.77547 1.26004 7.75031 1.11179 7.57416 1.01297C 7.42318 0.938848 7.34769 0.963555 7.19671 0.889435C 7.12122 0.864728 7.09606 0.840023 7.0709 0.79061C 6.91992 0.642371 6.56763 0.543543 6.54247 0.395304C 6.44181 0.395304 6.36632 0.247064 6.36632 0.148238C 6.36632 0.0988248 6.39149 0.0494139 6.39149 7.53985e-07L 3.83962e-07 7.53985e-07C 1.15751 11.4144 7.44835 21.3218 16.5826 27.4737C 16.5323 27.2513 16.4568 27.029 16.4568 26.9055C 16.4568 26.6831 16.7336 26.5843 16.7336 26.3866C 16.7336 26.2878 16.5826 26.0901 16.5575 25.9419L 16.5575 25.8184L 16.5826 25.8184C 16.5826 25.7442 16.633 25.6701 16.6833 25.6701C 16.8846 25.6701 16.8091 25.8925 16.9853 25.8925L 17.3627 23.9901L 17.3627 23.7924C 17.3375 23.7924 17.2872 23.7924 17.262 23.7924C 17.1866 23.8418 17.1614 23.9407 17.0859 23.9407C 16.9853 23.9407 16.9349 23.6442 16.9349 23.4959C 16.9349 23.2489 17.0104 23.1501 17.0356 22.9277C 17.1111 22.9277 17.1614 22.903 17.1614 22.8536C 17.1614 22.7795 17.0859 22.7053 17.0859 22.7053C 17.0356 22.7053 17.0356 22.3347 17.0356 22.2606C 17.0356 21.9641 17.2117 21.6677 17.3124 21.4947C 17.3627 21.4206 17.3879 21.2229 17.4382 21.1488C 17.4634 21.0994 17.5388 21.0994 17.5388 21.05C 17.6143 20.7535 17.6143 20.5312 17.6898 20.2347L 17.6898 19.2711C 17.6143 19.0488 17.7402 18.8758 17.7402 18.6535C 17.7402 18.1593 18.0169 17.8381 18.0169 17.4181L 18.0169 17.2946C 18.0169 17.1958 18.0673 16.9734 18.0924 16.8499L 18.0924 16.2816C 18.0924 16.1087 18.1931 15.7628 18.1931 15.5651C 18.2434 15.3675 18.1679 14.6263 18.1428 14.478ZM 17.0356 24.4842C 17.0356 24.5583 17.0104 24.583 16.9853 24.6324L 16.9853 25.003L 16.8846 25.003C 16.8091 25.003 16.7588 24.8795 16.7588 24.8301L 16.7588 24.6572C 16.7588 24.6572 16.8343 24.2866 16.9098 24.2866C 17.0104 24.2866 17.0356 24.3854 17.0356 24.4842Z"/>
<path id="path1_fill" d="M 65.5253 5.80604C 65.4247 5.43544 65.3995 5.16367 65.2737 4.8672C 65.1982 4.69425 65.1227 4.22482 64.9214 4.22482C 64.8208 4.22482 64.8711 4.29894 64.7704 4.22482C 64.7453 4.22482 64.7704 4.17541 64.7704 4.1507C 64.7704 3.97776 64.7956 3.85422 64.8207 3.65657L 64.8711 3.65657C 64.7704 3.60716 64.8711 3.31068 64.8711 3.16244C 64.8711 2.59419 64.5691 2.273 64.5691 1.85299C 64.4181 1.85299 64.6194 1.4824 64.4936 1.28474C 64.4685 1.21062 64.3678 1.26004 64.3426 1.21062C 64.2672 1.1365 64.3175 1.08709 64.242 1.01297C 64.0407 1.23533 63.9652 1.60593 63.6381 1.60593C 63.4619 1.60593 63.4619 1.45769 63.4619 1.28474C 63.4619 1.1118 63.5123 1.03768 63.5123 0.914144C 63.5123 0.840025 63.4619 0.815315 63.4368 0.741195C 63.3613 0.469423 63.2103 0.271771 63.1096 0.0741189C 63.0845 0.0494124 63.0593 0.0247051 63.0342 -1.50797e-06L 60.694 -1.50797e-06C 60.4927 0.172944 60.1907 0.247065 60.0397 0.444717C 59.8132 0.691783 59.5868 0.963557 59.3603 1.21062C 59.2597 1.30945 59.1338 1.45769 59.0583 1.48239C 58.857 1.55651 58.6054 1.60593 58.6054 1.8777C 58.6054 2.10006 58.6809 2.2483 58.6809 2.44595C 58.6809 2.76714 58.5299 2.96479 58.5299 3.21185L 58.5802 3.53304L 58.5299 3.53304C 58.5299 3.55774 58.4544 3.55774 58.4041 3.58245C 58.2531 3.63186 58.2783 3.95305 58.1776 4.02717C 58.0266 4.10129 58.0267 4.05188 57.9512 4.17541C 57.9008 4.27424 57.9008 4.42248 57.8002 4.42248C 57.6995 4.42248 57.6492 4.37306 57.624 4.29894C 57.5737 4.29894 57.5234 4.20012 57.5234 4.17541C 57.4227 3.87893 57.2969 3.60716 57.2214 3.33539C 57.1711 3.16244 57.0201 3.03891 56.9698 2.91537C 56.8691 2.71772 56.9446 2.54478 56.844 2.39654C 56.7433 2.22359 56.7433 2.14947 56.693 2.00123C 56.6427 1.80358 56.4162 1.38357 56.3407 1.11179C 56.2652 0.864728 56.1394 0.617663 56.1394 0.370597C 56.1394 0.34589 56.1142 0.222358 56.1142 0.197652C 56.1142 0.123532 56.1394 0.0494131 56.1394 0.0247066L 51.2074 0.0247066C 51.1571 0.172946 51.1822 0.395305 51.0312 0.395305C 50.8551 0.395305 50.8803 0.765904 50.7041 0.765904C 50.6035 0.765904 50.377 0.988263 50.377 1.1365C 50.0499 1.21062 49.3453 1.33415 49.3453 1.63063C 49.3453 1.65534 49.3705 1.72946 49.3956 1.75417C 49.1188 1.90241 48.7665 1.97652 48.4897 2.05064C 48.3388 2.07535 47.8858 2.44595 47.7348 2.52007L 47.3574 2.52007C 47.1561 2.66831 47.1309 2.76714 46.8793 2.76714L 46.8038 2.81655C 46.7786 2.81655 46.4767 2.6436 46.4515 2.6436C 46.4263 2.6189 46.5018 2.6189 46.4264 2.49536C 46.3005 2.29771 46.225 2.07535 46.225 1.82829C 46.0992 1.82829 46.1999 1.58122 46.1999 1.45769C 46.2502 1.18592 46.0489 1.06238 45.9482 0.914144C 45.7973 0.765905 45.4701 0.321185 45.4701 0.0247066C 45.445 0.0247066 45.3947 -1.50797e-06 45.3695 -1.50797e-06L 44.3378 -1.50797e-06L 44.3378 0.172947C 44.4636 0.518839 44.6901 0.518838 44.8662 0.765904C 45.0675 1.06238 44.9417 1.40827 45.1682 1.63063C 45.3443 1.82829 45.4953 1.85299 45.6966 2.02594C 45.8728 2.17418 45.9986 2.71772 46.376 2.71772C 46.376 2.94008 46.4767 2.96479 46.376 3.11303C 46.527 3.23656 46.678 3.65657 46.8793 3.65657C 47.0554 3.65657 47.0806 3.48363 47.2316 3.43421C 47.4077 3.36009 47.5335 3.45892 47.7097 3.43421C 48.1626 3.36009 48.5652 3.16244 48.993 3.06362C 49.0182 3.13773 49.0685 3.16244 49.0685 3.26127C 49.0685 3.97776 48.5401 4.94132 48.2633 5.36133C 47.911 5.88016 47.76 6.34959 47.3322 6.69548C 46.5522 7.36256 45.7469 7.56021 45.445 8.69671C 45.3695 9.0179 45.0675 9.09202 45.0675 9.46262C 45.0675 9.85792 45.1682 10.0309 45.1682 10.4262C 45.1682 10.8709 45.596 11.0685 45.596 11.3156C 45.596 11.3897 45.5205 11.4886 45.5205 11.5133L 45.5205 11.8344C 45.5205 12.0321 45.4953 12.2792 45.4953 12.6498C 45.5708 12.7239 45.596 12.798 45.596 12.8968C 45.596 13.8851 44.061 13.7863 43.9352 14.6263C 43.7842 14.651 43.5829 14.8734 43.5829 15.0216C 43.5829 15.2934 43.91 15.491 43.91 15.8863C 43.91 16.084 43.8849 16.504 43.8094 16.6275C 43.7339 16.7263 43.5326 16.6769 43.4571 16.7263C 43.1803 16.8746 43.0041 17.0228 42.8783 17.3193C 42.979 17.3934 43.0545 17.4675 43.0545 17.5911C 43.0545 17.9617 42.7273 18.2334 42.5764 18.3817C 42.3247 18.6535 42.2996 18.9499 42.1234 19.2217C 41.8215 19.617 41.6956 19.9876 41.2175 20.2347C 41.0162 20.3335 40.7394 20.2347 40.6891 20.457C 40.5381 20.4817 40.4375 20.5559 40.3368 20.5559C 40.211 20.5559 40.1355 20.4323 40.0097 20.4323C 39.5316 20.4323 39.2296 20.8276 38.7767 20.8276C 38.5754 20.8276 38.4747 20.7041 38.3992 20.5806C 38.3238 20.5806 38.2986 20.63 38.2734 20.6547C 38.2734 20.4076 38.1728 20.1111 38.0721 20.0123C 38.1728 19.9135 38.2231 19.8147 38.2231 19.6664C 38.2231 19.4688 37.896 19.0735 37.8457 18.9746C 37.4179 18.184 36.8894 17.4428 36.8894 16.3063L 36.8894 15.9604C 36.8894 15.7875 36.7385 15.7134 36.663 15.5404C 36.3359 14.9475 35.9836 14.4533 35.9836 13.6133C 35.9836 12.7239 36.7133 12.5015 36.7133 11.8344C 36.7133 11.5133 36.6127 11.3897 36.5623 11.118C 36.4868 10.5744 36.3862 10.3768 36.2604 10.0556C 36.1597 9.80851 36.21 9.51203 36.0591 9.28967C 35.7571 8.86966 35.1029 8.42494 35.1029 7.80728C 35.1029 7.65904 35.279 7.33785 35.3545 7.28844C 35.3042 7.18961 35.3545 7.1402 35.3545 7.09079C 35.3545 6.94255 35.3545 6.54724 35.4803 6.44841C 35.3545 6.17664 35.1532 5.90487 34.7506 5.90487L 34.2725 5.90487C 33.9202 5.90487 33.8447 5.16367 33.3666 5.16367C 32.7878 5.16367 32.3601 5.46015 31.9071 5.60839C 31.731 5.68251 31.6806 5.83075 31.5045 5.83075C 31.3284 5.83075 31.0264 5.6331 30.7999 5.6331C 30.347 5.6331 30.1457 5.88016 29.6927 5.88016C 29.5418 5.88016 29.3908 5.80604 29.3405 5.78134C 29.0133 5.50957 28.3339 5.08955 28.0823 4.66954C 27.8558 4.29894 27.7803 4.00246 27.5035 3.73069C 27.428 3.65657 26.799 3.06362 26.799 3.0142C 26.7486 2.94008 26.6983 2.91537 26.648 2.84125L 26.6731 2.84125C 26.6731 2.6436 26.6228 2.54478 26.6228 2.42124C 26.6228 2.2483 26.5222 2.17418 26.4467 2.00123C 26.6983 1.85299 26.9248 1.16121 26.9248 0.840024C 26.9248 0.518839 26.8493 0.247064 26.7738 -1.50797e-06L 7.39802 -1.50797e-06C 7.42319 0.0247051 7.44835 0.0741189 7.47351 0.0741189C 7.39802 0.222358 7.17155 0.22236 7.02057 0.22236C 6.74378 0.22236 6.56763 0.148239 6.34116 0.148239L 6.34116 0.0741189C 6.39149 0.0741189 6.41665 0.0494116 6.44181 -1.50797e-06L 3.19574 -1.50797e-06C 3.14542 0.123531 3.09509 0.247064 3.09509 0.370597C 3.09509 0.56825 3.0196 0.667079 2.94411 0.790612L 2.94411 0.691783L 2.84346 0.691783L 2.84346 1.30945C 2.84346 1.43298 2.69248 1.48239 2.64215 1.55651L 2.64215 1.63063C 2.64215 1.72946 2.71764 1.77887 2.79313 1.77887C 3.17058 1.77887 3.4977 1.70475 3.90032 1.70475C 4.17711 1.70475 4.2526 1.92711 4.45391 1.97652L 4.45391 2.17418C 4.45391 2.29771 4.45391 2.6189 4.37842 2.74243L 4.37842 3.53304C 4.37842 3.80481 4.63005 3.92834 4.8062 4.02717C 4.93201 4.10129 4.93201 4.32365 5.13332 4.32365C 5.43528 4.32365 5.58626 4.07658 5.86306 4.07658C 6.19018 4.07658 6.34116 4.32365 6.51731 4.47189C 6.51731 4.47189 6.49214 4.5213 6.44181 4.57071C 6.46698 4.54601 6.51731 4.5213 6.51731 4.4966C 6.61796 4.5213 6.56763 4.5213 6.66828 4.4966L 6.66828 4.42248C 6.66828 4.39777 6.71861 4.34836 6.74377 4.34836C 6.74377 4.22482 6.84443 4.17541 6.91992 4.126C 6.99541 4.07659 6.99541 3.90364 7.02057 3.80481C 7.0709 3.60716 7.17155 3.55775 7.34769 3.50833C 7.62449 3.40951 7.80063 3.36009 8.10259 3.26127C 8.25357 3.21186 8.27874 3.0142 8.42972 3.0142C 8.48004 3.0142 8.53037 3.16244 8.53037 3.16244C 8.53037 3.26127 8.45488 3.31068 8.42972 3.31068C 8.40455 3.50833 8.32906 3.70598 8.32906 3.82952C 8.32906 3.97776 8.40456 4.22482 8.53037 4.22482C 8.5807 4.22482 8.63102 4.07658 8.63102 4.02717C 8.63102 3.87893 8.48004 3.78011 8.48004 3.63187C 8.48004 3.43421 8.65619 3.45892 8.78201 3.3848L 9.0588 3.3848C 9.00847 3.23656 8.83233 3.28597 8.83233 3.13774L 9.03364 3.13774C 9.08397 3.33539 9.3356 3.4095 9.51174 3.45892C 9.51174 3.58245 9.58723 3.68128 9.66272 3.68128L 10.2918 3.68128C 10.2918 3.78011 10.4428 3.82952 10.5183 3.82952C 10.6944 3.80481 10.8202 3.80481 10.8706 3.65657C 10.8706 3.63186 11.1222 3.63186 11.1725 3.58245C 11.2983 3.58245 11.4996 3.60716 11.4996 3.60716C 11.4493 3.65657 11.3487 3.65657 11.3235 3.63187L 11.3235 3.73069C 11.399 3.90364 11.6506 3.95305 11.8268 4.00247C 11.9777 4.05188 11.9274 4.24953 11.9777 4.39777L 12.3049 4.39777C 12.5313 4.64483 12.632 4.59542 12.783 4.91661C 12.8081 4.96602 12.8836 4.99073 12.9591 4.99073C 13.0346 5.36133 13.5379 5.31191 13.8398 5.38603L 14.1418 5.38603C 14.2173 5.41074 14.4186 5.53427 14.5192 5.53427L 14.5192 5.55898L 14.5947 5.55898C 14.7709 5.55898 15.0225 5.97899 15.2238 6.0284C 15.2238 6.17664 15.3748 6.59665 15.4251 6.72019C 15.4755 6.84372 15.6264 6.84372 15.6264 6.96725C 15.4503 7.21432 15.098 7.33785 15.098 7.73315C 15.098 7.85669 15.1987 7.85669 15.2741 7.8814C 15.3748 7.95552 15.4503 8.05434 15.4755 8.17787L 15.7522 8.17787C 15.7522 8.22729 15.7774 8.32611 15.8026 8.32611C 15.8529 8.32611 15.9032 8.22729 15.9284 8.17787C 16.0542 7.98022 16.18 7.70845 16.3813 7.70845C 16.5826 7.70845 17.0104 7.95551 17.1614 8.05434C 17.262 8.12846 17.3627 8.07905 17.3879 8.20258C 17.413 8.32611 17.413 8.40023 17.413 8.52376L 17.4885 8.52376C 17.5892 8.47435 17.6395 8.37553 17.7402 8.37553C 17.9918 8.37553 18.0421 8.57318 18.2686 8.57318L 18.7215 8.49906C 18.948 8.54847 19.1493 8.6473 19.2751 8.69671C 19.3758 8.89437 19.7532 9.24026 19.9294 9.31438C 20.0803 9.36379 20.2062 9.28967 20.3571 9.33908C 20.5836 9.4132 20.6591 9.68498 20.6591 9.95675C 20.6591 10.8956 20.181 11.1674 19.879 11.6862C 19.8035 11.8097 19.7532 11.8344 19.7029 11.9333C 19.5771 12.1309 19.4513 12.1556 19.3506 12.2792C 19.1745 12.4768 19.3506 12.8721 19.3506 13.1933C 19.3506 13.4157 19.2751 13.638 19.2751 13.811C 19.2751 13.8851 19.2248 13.9345 19.2248 13.9592C 19.1745 14.0333 19.0738 14.1569 19.0738 14.2557C 19.0738 14.3792 19.0486 14.6263 19.0235 14.7004C 18.8473 14.9969 18.797 15.1204 18.6209 15.3675C 18.5705 15.4416 18.5957 15.5898 18.5705 15.6393C 18.4951 15.7875 18.2434 15.9852 18.0421 15.9852C 17.8156 15.9852 17.6395 15.9604 17.4634 16.0593C 17.3879 16.1087 17.3879 16.1581 17.3375 16.2075C 17.0607 16.504 16.7588 16.331 16.5575 16.7016C 16.4568 16.8746 16.3058 16.8746 16.2304 16.9734C 16.0794 17.1464 16.1045 17.3193 16.1045 17.5664L 16.1045 18.1593C 15.8781 18.2829 15.7522 18.5052 15.6264 18.777C 15.5509 18.9499 15.5509 19.0241 15.4503 19.197C 15.249 19.5429 14.9973 19.5676 14.8212 19.9135C 14.5947 20.3088 14.4941 20.9265 13.9656 20.9265C 13.7895 20.9265 13.5127 20.7782 13.4372 20.7782C 13.2611 20.7782 13.1101 20.63 12.934 20.63C 12.9088 20.63 12.8333 20.6547 12.8333 20.7041C 12.8333 20.8029 13.0094 20.8771 13.0346 20.9265C 13.1353 21.0253 13.1353 21.1735 13.1856 21.3218C 13.2108 21.47 13.4121 21.47 13.4121 21.6182C 13.4121 21.7665 13.4121 21.8653 13.3617 21.9641C 13.2611 22.1371 13.1856 22.2359 13.0598 22.3594C 12.8585 22.5818 12.6068 22.5077 12.33 22.6065C 12.1539 22.6559 11.7513 22.5324 11.6506 22.6312C 11.4996 22.8042 11.6255 23.1748 11.55 23.3477L 11.55 23.4712C 11.55 23.5454 11.3738 23.6195 11.2732 23.6195C 11.0215 23.6195 10.9712 23.4465 10.7447 23.4465C 10.6693 23.4465 10.6189 23.5454 10.6189 23.5948C 10.6189 23.7677 10.7699 24.1136 10.8706 24.1136C 10.9209 24.1136 10.9964 24.0395 11.0467 24.0148C 11.097 24.0642 11.1474 24.0889 11.1474 24.1383C 11.1474 24.2124 11.0467 24.3113 11.0215 24.3113C 10.8706 24.3113 10.8454 24.1877 10.7196 24.1877C 10.7196 24.336 10.7951 24.3607 10.8454 24.3854C 10.6441 24.6077 10.6441 24.8548 10.5686 25.176C 10.5434 25.3242 10.3421 25.3242 10.2415 25.3489C 10.0653 25.3983 9.88919 25.5713 9.88919 25.7937C 9.88919 26.2878 10.4176 26.1148 10.4176 26.5101C 10.4176 26.8807 10.1157 26.9055 9.96468 27.0784C 9.86403 27.1772 9.91435 27.3502 9.83886 27.5231C 9.76337 27.6961 9.56207 27.6219 9.46141 27.7455C 9.31043 27.8937 9.26011 28.0667 9.26011 28.3137C 9.26011 28.4373 9.36076 28.6102 9.43625 28.6102C 9.51174 28.6596 9.56207 28.7584 9.58723 28.8573C 15.3245 32.1927 22.0179 34.0951 29.1643 34.0951C 46.1747 34.0951 60.6185 23.2983 65.7518 8.2767C 65.6511 8.12846 65.5756 7.95551 65.5002 7.78257C 65.475 7.70845 65.3492 7.46138 65.2989 7.46138C 65.2737 7.46138 65.2989 7.38726 65.2737 7.36256C 65.2737 7.33785 65.1227 7.31314 65.0975 7.28844C 65.0472 7.23902 64.9466 6.94255 64.9466 6.84372C 64.8711 6.54724 64.5943 6.59665 64.5188 6.42371C 64.4433 6.27547 64.4181 6.20135 64.3426 6.0284C 64.2923 5.92958 64.1665 5.92957 64.0658 5.92957C 63.9652 5.90487 63.7891 5.53427 63.7387 5.41074L 63.7387 5.33662L 63.8142 5.33662C 63.94 5.33662 63.9652 5.41074 64.0407 5.46015L 64.4181 5.46015C 64.6698 5.55898 64.7453 5.73192 64.8459 5.95428C 64.8711 6.0284 64.9214 6.0037 64.9717 6.0284C 65.1479 6.10252 65.2234 6.25076 65.3492 6.37429C 65.5756 6.62136 65.7015 6.7696 66.0286 6.89313C 66.0789 6.91784 66.1292 6.91784 66.1796 6.96725C 66.2047 6.89313 66.2299 6.81901 66.2551 6.74489C 65.9279 6.57195 65.6511 6.20135 65.5253 5.80604ZM 6.41665 0.988261C 6.316 0.988261 6.24051 0.889438 6.24051 0.790612C 6.24051 0.741198 6.316 0.716491 6.36632 0.716491C 6.5173 0.716491 6.66828 0.790609 6.74377 0.815316L 6.71861 0.790612C 6.7941 0.815318 6.81926 0.864731 6.81926 0.914144C 6.66828 0.938851 6.56763 0.988261 6.41665 0.988261ZM 9.0588 0.765904C 8.98331 0.815317 8.93298 0.864728 8.83233 0.864728C 8.75684 0.864728 8.782 0.790612 8.73168 0.790612C 8.5807 0.790612 8.5807 1.01297 8.45488 1.01297C 8.35423 1.01297 8.37939 0.889437 8.3039 0.840024C 8.20325 0.765904 7.92645 0.790612 7.77547 0.790612C 7.69998 0.790612 7.69998 0.840025 7.62449 0.790612C 7.62449 0.840025 7.62449 0.86473 7.62449 0.889436C 7.549 0.86473 7.47351 0.765903 7.47351 0.691783C 7.49867 0.691783 7.52384 0.667077 7.52384 0.642371C 7.77547 0.642371 7.90129 0.71649 8.05227 0.642371C 7.97678 0.568251 7.97678 0.469423 7.97678 0.370597C 7.90129 0.370597 7.8258 0.29648 7.8258 0.22236C 7.8258 0.197653 7.87612 0.148239 7.92645 0.148239C 8.0271 0.148239 8.10259 0.22236 8.20325 0.22236C 8.35423 0.22236 8.42972 0.172947 8.55553 0.172947C 8.93298 0.172947 9.00847 0.395304 9.20978 0.49413L 9.15946 0.444717C 9.28527 0.543544 9.38592 0.592958 9.48658 0.716491L 9.0588 0.716491L 9.0588 0.765904ZM 10.1911 0.914144C 10.0402 0.914144 9.88919 0.914143 9.88919 0.765904C 9.88919 0.691784 9.98984 0.691783 10.015 0.691783C 10.0402 0.691783 10.317 0.765904 10.3673 0.840024C 10.3421 0.914144 10.2666 0.914144 10.1911 0.914144ZM 11.9777 3.73069C 11.9526 3.7801 11.9023 3.90364 11.8268 3.90364C 11.8016 3.90364 11.7261 3.92834 11.7261 3.90364C 11.7261 3.7801 11.8016 3.65657 11.8771 3.65657L 11.9777 3.65657L 11.9777 3.73069ZM 15.8277 8.17787C 15.6516 8.17787 15.3496 7.95552 15.3496 7.83198C 15.3496 7.63433 15.4503 7.5108 15.5761 7.5108L 15.6264 7.5108C 15.7019 7.56021 15.7774 7.63433 15.8781 7.63433C 15.9032 7.80728 16.0039 7.65903 16.0542 7.65903C 16.1045 7.65903 16.1297 7.75786 16.1297 7.78257C 16.1549 7.88139 15.9787 8.17787 15.8277 8.17787ZM 48.8169 13.3663C 48.7665 13.3415 48.6407 13.2921 48.6156 13.2921C 48.6156 14.231 48.3388 14.8734 48.0871 15.5898C 47.8858 16.1581 47.7852 17.0228 47.0554 17.0228C 46.7535 17.0228 46.5018 16.6522 46.5018 16.331C 46.5018 16.1581 46.527 16.1087 46.527 16.0099C 46.376 15.911 46.376 15.6887 46.376 15.491C 46.376 15.4416 46.5773 15.244 46.6025 15.244C 46.6025 15.244 46.829 14.7004 46.829 14.6757C 46.829 14.5275 46.6528 14.2063 46.6528 14.0086C 46.6528 13.391 47.0806 13.4157 47.4077 13.218C 47.6845 13.0451 48.0368 12.5509 48.2129 12.3533C 48.2633 12.2792 48.2381 12.0815 48.2884 11.9827C 48.6911 12.0321 48.6407 12.8721 48.7665 13.1933L 48.7665 13.3663L 48.8169 13.3663ZM 49.9241 2.98949C 49.8989 2.98949 49.8234 2.96479 49.7982 2.89067C 49.8989 2.86596 49.9744 2.81655 50.1254 2.81655C 50.1002 2.89067 49.9995 2.98949 49.9241 2.98949ZM 58.8319 5.23779C 58.6809 5.23779 58.5299 5.06485 58.5299 4.8672C 58.5299 4.4966 58.6809 4.22482 58.6809 3.82952C 58.857 4.126 59.1842 4.29894 59.1842 4.69425C 59.2093 4.94131 59.0583 5.23779 58.8319 5.23779ZM 64.9466 7.75786L 65.0472 7.75786L 65.0472 7.83198C 65.1227 7.93081 65.173 8.00493 65.173 8.12846C 65.1227 8.10375 64.9717 7.9061 64.9717 7.80728L 64.9717 7.75786L 64.9466 7.75786ZM 64.5691 6.96725C 64.6446 7.01667 64.8207 7.26373 64.7453 7.26373C 64.6949 7.26373 64.544 7.06608 64.544 6.99196L 64.5691 6.96725ZM 0.125816 0.172947C 0.327123 0.395307 0.327124 0.617665 0.654247 0.716491C 0.754901 0.765904 0.754902 0.864728 0.855555 0.864728C 1.08202 0.864728 1.25817 0.691783 1.48464 0.691783C 1.61046 0.691783 1.66078 0.765904 1.71111 0.765904C 1.81176 0.765904 1.86209 0.617663 1.88725 0.56825C 1.93758 0.420011 2.13888 0.247067 2.13888 0.0494146C 2.13888 0.0247081 2.13888 0.0247051 2.13888 -1.50797e-06L -7.67924e-07 -1.50797e-06C 0.0251626 0.0741182 0.0754892 0.148241 0.125816 0.172947Z"/>
<path id="path2_fill" d="M 1.40915 6.0888C 0.905879 6.0888 0.478105 6.0888 1.53585e-06 6.0888C 1.53585e-06 4.06286 1.53585e-06 2.06163 1.53585e-06 0.0109815C 0.327125 0.0109815 0.654247 -0.0137251 0.98137 0.0109815C 1.08202 0.0109815 1.18268 0.134513 1.25817 0.233339C 2.08856 1.24631 2.89378 2.25928 3.72417 3.27225C 3.7745 3.34637 3.84999 3.42049 3.95064 3.54402C 3.95064 2.3334 3.95064 1.1969 3.95064 0.0109815C 4.42875 0.0109815 4.90685 0.0109815 5.35979 0.0109815C 5.35979 2.03692 5.35979 4.03815 5.35979 6.0888C 5.0075 6.0888 4.65522 6.0888 4.30293 6.0888C 4.22744 6.0888 4.15195 5.98997 4.07646 5.91585C 3.27123 4.95229 2.49117 3.98874 1.71111 3.02518C 1.63562 2.92636 1.53496 2.82753 1.40915 2.65458C 1.40915 3.8405 1.40915 4.95229 1.40915 6.0888Z"/>
<path id="path3_fill" d="M 8.5807 0.0109799C 8.3039 0.776884 8.0271 1.46867 7.77547 2.18516C 7.29736 3.42049 6.84443 4.65582 6.36633 5.91585C 6.29084 6.1135 6.21535 6.18762 5.98888 6.18762C 5.2843 6.18762 5.2843 6.18762 5.03267 5.52055C 4.8062 4.87817 4.55456 4.26051 4.27777 3.54402C 4.0513 4.11227 3.87515 4.63111 3.67385 5.12524C 3.57319 5.39701 3.44738 5.69349 3.37189 5.96526C 3.32156 6.1135 3.24607 6.16292 3.06993 6.16292C 2.31503 6.16292 2.31503 6.16292 2.0634 5.47113C 1.40915 3.74167 0.754901 2.01221 0.100654 0.282754C 0.0754908 0.208634 0.0503251 0.109806 -1.53585e-06 0.0109799C 0.301959 0.0109799 0.578756 -0.0137266 0.830389 0.0109799C 0.905879 0.0109799 1.00653 0.134515 1.0317 0.233341C 1.58529 1.64162 2.11372 3.07459 2.64215 4.50757C 2.66731 4.6064 2.71764 4.68052 2.76797 4.82876C 3.0196 4.13698 3.24607 3.49461 3.52287 2.87694C 3.74934 2.40752 3.72417 1.9875 3.52287 1.54279C 3.2964 1.04866 3.14542 0.554524 2.94411 0.0109799C 3.24607 0.0109799 3.54803 0.0109799 3.82483 0.0109799C 3.87516 0.0109799 3.95064 0.109808 4.00097 0.159221C 4.10162 0.38158 4.17711 0.579231 4.27777 0.87571C 4.37842 0.603938 4.45391 0.381578 4.55456 0.183925C 4.60489 0.109805 4.70554 0.0109799 4.8062 0.0109799C 5.05783 -0.0137266 5.2843 0.0109799 5.58626 0.0109799C 5.5611 0.109806 5.5611 0.183928 5.53593 0.233341C 5.30946 0.826299 5.08299 1.41926 4.88169 2.01221C 4.83136 2.13575 4.83136 2.28398 4.85652 2.40752C 5.13332 3.17342 5.41012 3.91462 5.71208 4.65582C 5.73724 4.70523 5.7624 4.72994 5.81273 4.80406C 6.16502 3.86521 6.51731 2.95106 6.84443 2.06163C 7.0709 1.44396 7.32253 0.826297 7.549 0.208633C 7.59933 0.0603938 7.67482 -0.0137266 7.85096 0.0109799C 8.07743 0.0109799 8.3039 0.0109799 8.5807 0.0109799Z"/>
<path id="path4_fill" d="M 1.53585e-06 3.17652C 0.0251649 2.01531 0.427777 1.15058 1.30849 0.532916C 2.56666 -0.35652 4.2526 -0.109454 5.18365 1.10117C 6.21534 2.41062 6.08953 4.28831 4.90685 5.40011C 3.24607 6.93191 0.654247 6.1166 0.100653 3.84359C 0.0251633 3.59653 0.0251649 3.32476 1.53585e-06 3.17652ZM 2.96927 4.90598C 3.37189 4.93068 3.72417 4.73303 3.97581 4.41185C 4.5294 3.72006 4.55456 2.53415 4.02613 1.84236C 3.44738 1.05175 2.34019 1.07646 1.7866 1.86707C 1.30849 2.55885 1.30849 3.67065 1.81176 4.36243C 2.11372 4.70832 2.46601 4.93068 2.96927 4.90598Z"/>
<path id="path5_fill" d="M 4.30293 6.05311C 2.86862 6.05311 1.43431 6.05311 7.67924e-07 6.05311C 7.67924e-07 4.02717 7.67924e-07 2.02594 7.67924e-07 -1.50797e-06C 1.40915 -1.50797e-06 2.79313 -1.50797e-06 4.22744 -1.50797e-06C 4.22744 0.42001 4.22744 0.815315 4.22744 1.23533C 3.2964 1.23533 2.39052 1.23533 1.45947 1.23533C 1.45947 1.63063 1.45947 2.00123 1.45947 2.39654C 2.23954 2.39654 3.04476 2.39654 3.84999 2.39654C 3.84999 2.79184 3.84999 3.13773 3.84999 3.53304C 3.04476 3.53304 2.2647 3.53304 1.45947 3.53304C 1.45947 3.97776 1.45947 4.39777 1.45947 4.84249C 2.41568 4.84249 3.34672 4.84249 4.32809 4.84249C 4.30293 5.23779 4.30293 5.6331 4.30293 6.05311Z"/>
<path id="path6_fill" d="M -1.53585e-06 6.05706C -1.53585e-06 4.03112 -1.53585e-06 2.02989 -1.53585e-06 0.0039538C 0.201305 0.0039538 0.37745 0.0039538 0.52843 0.0039538C 1.30849 0.0039538 2.11372 -0.0207535 2.89378 0.0533662C 3.92548 0.152192 4.70554 1.18987 4.63005 2.22754C 4.55456 3.33934 3.69901 4.12995 2.61699 4.12995C 2.23954 4.12995 1.86209 4.12995 1.43431 4.12995C 1.43431 4.77232 1.43431 5.41469 1.43431 6.08177C 0.931045 6.05706 0.478102 6.05706 -1.53585e-06 6.05706ZM 1.40915 2.89462C 1.76143 2.89462 2.11372 2.89462 2.44085 2.89462C 2.84346 2.89462 3.06993 2.69697 3.14542 2.35108C 3.24607 1.88165 3.09509 1.46164 2.76797 1.3134C 2.7428 1.2887 2.69248 1.26399 2.66731 1.26399C 2.23954 1.26399 1.83692 1.26399 1.40915 1.26399C 1.40915 1.80753 1.40915 2.32637 1.40915 2.89462Z"/>
<path id="path7_fill" d="M 0 6.09395C 0 4.06801 0 2.06678 0 0.0655465C 0.0251633 0.04084 0.0503297 0.0161341 0.0503297 0.0161341C 0.88072 0.0161341 1.73627 -0.0332775 2.56666 0.0408422C 4.0513 0.164375 5.03267 1.17734 5.15848 2.61032C 5.20881 3.30211 5.15849 3.96919 4.83136 4.58685C 4.37842 5.47629 3.59835 5.97042 2.59182 6.04454C 1.76143 6.16807 0.880717 6.09395 0 6.09395ZM 0.981368 5.25393C 1.45947 5.25393 1.93758 5.27863 2.39052 5.25393C 3.12025 5.20451 3.64869 4.85862 3.95065 4.21625C 4.30293 3.47505 4.27776 2.70915 3.9758 1.96796C 3.7745 1.49853 3.42221 1.17734 2.91895 1.0044C 2.28987 0.782038 1.63562 0.905571 0.981368 0.880864C 0.981368 2.36326 0.981368 3.79624 0.981368 5.25393Z"/>
<path id="path8_fill" d="M 0.0251633 0.0061774C 0.503267 0.0061774 0.981373 0.0061774 1.45948 0.0061774C 1.93758 0.0061774 2.41568 -0.0185314 2.89378 0.0308817C 3.74934 0.105001 4.42875 0.796787 4.57973 1.66152C 4.73071 2.52625 4.32809 3.34156 3.54803 3.73687C 3.4977 3.76157 3.47254 3.78628 3.39705 3.81099C 3.87515 4.55218 4.35326 5.29338 4.85653 6.1087C 4.47908 6.1087 4.15195 6.1087 3.82483 6.1087C 3.74934 6.1087 3.67384 6.00987 3.62352 5.93575C 3.24607 5.3675 2.89378 4.82396 2.5415 4.231C 2.44084 4.08276 2.34019 4.00864 2.13888 4.00864C 1.76143 4.03335 1.38398 4.00864 0.981367 4.00864C 0.981367 4.70042 0.981367 5.39221 0.981367 6.08399C 0.654244 6.08399 0.327122 6.08399 -1.53585e-06 6.08399C 0.0251618 4.05805 0.0251633 2.05682 0.0251633 0.0061774ZM 1.00653 3.1192C 1.58529 3.1192 2.08855 3.1192 2.61698 3.1192C 3.04476 3.1192 3.32156 2.92155 3.4977 2.57566C 3.84999 1.88388 3.47254 0.945025 2.76797 0.895612C 2.18921 0.846198 1.61045 0.895612 1.00653 0.895612C 1.00653 0.994438 1.00653 1.04385 1.00653 1.11797C 1.00653 1.76034 1.00653 2.42742 1.00653 3.1192Z"/>
<path id="path9_fill" d="M 3.0717e-06 3.26171C 0.0251664 2.14991 0.352284 1.3593 1.03169 0.741637C 2.13888 -0.271332 3.82483 -0.246625 4.90685 0.815758C 6.0392 1.92755 6.19018 3.78055 5.18364 5.04058C 4.47907 5.93002 3.57319 6.32532 2.41568 6.12767C 1.30849 5.93002 0.60392 5.23823 0.201307 4.22526C 0.07549 3.85467 0.0503297 3.45936 3.0717e-06 3.26171ZM 4.85652 3.03935C 4.85652 2.52051 4.73071 2.05109 4.40359 1.63108C 3.62352 0.568693 2.13888 0.593399 1.40914 1.68049C 0.830387 2.56992 0.830393 3.50877 1.38399 4.39821C 2.11372 5.55942 3.67384 5.55942 4.42874 4.44762C 4.7307 4.02761 4.85652 3.55819 4.85652 3.03935Z"/>
<path id="path10_fill" d="M 3.0717e-06 7.53985e-07C 0.301963 7.53985e-07 0.603918 7.53985e-07 0.931042 7.53985e-07C 0.931042 1.72946 0.931042 3.45892 0.931042 5.21308C 2.06339 5.21308 3.12025 5.21308 4.22744 5.21308C 4.22744 5.50956 4.22744 5.78134 4.22744 6.05311C 2.81829 6.05311 1.40915 6.05311 3.0717e-06 6.05311C 3.0717e-06 4.05188 3.0717e-06 2.05065 3.0717e-06 7.53985e-07Z"/>
<path id="path11_fill" d="M 7.67924e-07 1.21062C 0.125817 0.815318 0.251632 0.469424 0.402612 -7.53985e-07C 0.553592 0.444717 0.704575 0.815318 0.830392 1.21062C 0.553595 1.21062 0.301961 1.21062 7.67924e-07 1.21062Z"/>
<path id="path12_fill" d="M 0.0251626 -1.50797e-06L 1.10719 -1.50797e-06C 1.71111 -1.50797e-06 2.11372 0.0494131 2.36535 0.148239C 2.61699 0.247066 2.81829 0.420013 2.96927 0.667079C 3.12025 0.914145 3.19574 1.18592 3.19574 1.53181C 3.19574 1.8777 3.12025 2.17418 2.94411 2.39654C 2.76797 2.6189 2.51633 2.81655 2.18921 2.91537L 3.44738 5.2625L 2.34019 5.2625L 1.13235 3.03891L 1.0317 3.03891L 1.0317 5.2625L 1.53585e-06 5.2625L 1.53585e-06 -1.50797e-06L 0.0251626 -1.50797e-06ZM 1.0317 2.07535L 1.35882 2.07535C 1.68594 2.07535 1.91241 2.02594 2.03823 1.95182C 2.16405 1.8777 2.21437 1.72946 2.21437 1.53181C 2.21437 1.40828 2.18921 1.30945 2.11372 1.23533C 2.06339 1.16121 1.96274 1.08709 1.86209 1.06238C 1.76143 1.03768 1.58529 1.01297 1.30849 1.01297L 1.0317 1.01297L 1.0317 2.07535Z"/>
<path id="path13_fill" d="M 1.53585e-06 -1.50797e-06L 2.91895 -1.50797e-06L 2.91895 0.988261L 1.00654 0.988261L 1.00654 1.95182L 2.91895 1.95182L 2.91895 2.91537L 1.00654 2.91537L 1.00654 4.29894L 2.91895 4.29894L 2.91895 5.28721L 1.53585e-06 5.28721L 1.53585e-06 -1.50797e-06Z"/>
<path id="path14_fill" d="M 0 -1.50797e-06L 1.0317 -1.50797e-06L 1.0317 4.29894L 2.51633 4.29894L 2.51633 5.2625L 0 5.2625L 0 -1.50797e-06Z"/>
<path id="path15_fill" d="M 7.67924e-07 -1.50797e-06L 1.00653 -1.50797e-06L 1.00653 5.2625L 7.67924e-07 5.2625L 7.67924e-07 -1.50797e-06Z"/>
<path id="path16_fill" d="M -1.53585e-06 -1.50797e-06L 2.91895 -1.50797e-06L 2.91895 0.988261L 1.00653 0.988261L 1.00653 1.95182L 2.91895 1.95182L 2.91895 2.91537L 1.00653 2.91537L 1.00653 4.29894L 2.91895 4.29894L 2.91895 5.28721L -1.53585e-06 5.28721L -1.53585e-06 -1.50797e-06Z"/>
<path id="path17_fill" d="M -1.53585e-06 -1.50797e-06L 2.66731 -1.50797e-06L 2.66731 0.988261L 1.0317 0.988261L 1.0317 1.95182L 2.66731 1.95182L 2.66731 2.91537L 1.0317 2.91537L 1.0317 5.28721L 0.0251633 5.28721L 0.0251633 -1.50797e-06L -1.53585e-06 -1.50797e-06Z"/>
<path id="path18_fill" d="M 76.4965 0C 74.6596 19.0241 58.3034 33.9715 38.4496 33.9715C 18.5957 33.9715 2.23954 19.0488 0.427777 0L -3.83962e-07 0C 1.83692 19.2711 18.3944 34.3915 38.4747 34.3915C 58.5551 34.3915 75.1126 19.2711 76.9495 0L 76.4965 0Z"/>
</defs>
</svg>
