<?xml version="1.0" encoding="utf-8"?>
<!-- Generator: Adobe Illustrator 19.0.1, SVG Export Plug-In . SVG Version: 6.00 Build 0)  -->
<svg version="1.1" id="Слой_1" xmlns="http://www.w3.org/2000/svg" xmlns:xlink="http://www.w3.org/1999/xlink" x="0px" y="0px"
	 viewBox="0 0 238.9 180.9" style="enable-background:new 0 0 238.9 180.9;" xml:space="preserve">
<style type="text/css">
	.st0{fill:#2D9CDB;}
</style>
<g>
	<g>
		<g>
			<g>
				<path class="st0" d="M56.2,117.8c-0.3-1-0.9-1.6-1.6-1.9c-0.5-0.3-0.9-0.2-1.3-0.7c-0.4-0.5-0.7-0.7-1.2-0.8
					c-1-0.4-1.5-0.9-2.2-1.7c-0.3-0.3-0.1-0.8-0.1-1.3c0-0.6-0.6-1-0.7-1.5c-0.3-1-1-1.7-1.3-2.6c-0.3-0.9-0.5-1.5-0.8-2.2
					c-0.1-0.2-0.4-0.2-0.5-0.3c-0.3-0.3-0.3-0.9-0.5-1.1c-0.1-0.2-0.4-0.2-0.5-0.3c-0.4-0.5-0.9-1.3-0.9-2c0-0.5,0.3-1.1,0.4-1.2
					c0.3-0.6,1-0.8,1.1-1.4c-0.3-0.3-0.3-0.1-0.6-0.1c-0.5,0-0.6-0.8-0.6-1.4c0-0.9,0.9-0.8,0.8-2.5c1,0,1.2-1.1,1.5-1.8
					c0.4-0.9,1.4-0.6,1.6-1.7c-0.2-0.1-0.4-0.3-0.4-0.4l0.2-0.3v-0.2c0-0.3-0.2-0.6-0.2-0.9c0-0.5,0.2-0.7,0.2-1.1
					c0-0.9-0.7-0.7-0.7-1.5c0-0.1,0-0.2,0.1-0.3c0,0-0.1,0.1-0.1,0.1c-0.1-0.1-0.4-0.2-0.4-0.3c0-0.2,0.2-0.3,0.2-0.4
					c-0.4-0.2-0.5-0.7-0.9-0.7c-0.3,0-1.3,0.8-1.3,1.1c0,0.2,0.2,0.3,0.3,0.4c-0.1,0.4-0.3,0.6-0.5,0.6c-0.6,0-1-0.8-1.2-1.1
					c-0.3-0.3-0.8,0-1.1,0c-0.1,0-0.2-0.2-0.2-0.2c-0.5-0.1-0.5-0.5-0.7-0.9c-0.1-0.2-1.3-1.1-1.4-1.1c-0.1,0.1-0.1,0.3,0,0.4h-0.4
					c-0.6-0.4-0.2-1-0.4-1.6c-0.1-0.4-0.3-0.5-0.5-0.7c-0.6-0.7-1.2-1-1.4-2H38c-0.3,0-0.4,0.2-0.7,0.2c-0.7,0-1.1-0.4-1.5-0.7
					c-0.7-0.4-1.2-0.2-1.9-0.6c-1.1-0.6-1.3-1.6-2.2-2.1h-0.2c-0.3-0.2-0.5-0.3-0.8-0.3c-0.7,0-0.8,0.8-1.4,0.8
					c-0.3,0-0.6-0.3-0.7-0.4c-0.3-0.2-0.5-0.1-0.8-0.1c-0.4,0-1.7-1-2-1.2c-0.4-0.2-0.7,0-1.1-0.1c-0.5-0.2-0.6-0.6-1.1-0.9
					c-0.5-0.3-0.7-0.2-1.2-0.4c-0.2-0.1-0.3-0.2-0.4-0.3c-0.4-0.5-1.6-0.8-1.7-1.3c-0.3,0-0.6-0.5-0.6-0.8c0-0.2,0.1-0.3,0.1-0.5H0
					c3.6,36.1,23.1,67.4,51.5,86.9c-0.2-0.7-0.4-1.4-0.4-1.8c0-0.7,0.8-1,0.8-1.7c0-0.3-0.4-1-0.5-1.4v-0.4h0c0-0.2,0.1-0.4,0.3-0.4
					c0.7,0,0.4,0.7,1,0.7l1.2-6V147c-0.1,0-0.2,0-0.3,0c-0.3,0.1-0.3,0.5-0.6,0.5c-0.3,0-0.5-0.9-0.5-1.4c0-0.8,0.3-1.1,0.4-1.8
					c0.3,0,0.4-0.1,0.4-0.3c0-0.2-0.2-0.4-0.2-0.4c-0.2,0-0.2-1.1-0.2-1.4c0-0.9,0.5-1.9,0.8-2.4c0.2-0.3,0.2-0.8,0.4-1.1
					c0.1-0.2,0.3-0.1,0.3-0.3c0.3-0.9,0.3-1.6,0.5-2.6l0-3c-0.2-0.7,0.2-1.3,0.2-1.9c0-1.5,0.8-2.6,0.8-3.9v-0.4
					c0-0.3,0.2-1,0.3-1.4v-1.8c0-0.6,0.3-1.7,0.3-2.3C56.5,120.6,56.3,118.2,56.2,117.8z M52.8,149.4c0,0.3-0.1,0.3-0.2,0.5v1.2
					h-0.3c-0.2,0-0.4-0.4-0.4-0.6V150c0,0,0.2-1.2,0.4-1.2C52.7,148.8,52.8,149.1,52.8,149.4z"/>
			</g>
			<g>
				<path class="st0" d="M232,90c-0.3-1.2-0.4-2-0.8-3c-0.3-0.6-0.5-2-1.1-2c-0.4,0-0.1,0.3-0.5,0c-0.1,0,0-0.2,0-0.3
					c0-0.6,0.1-1,0.2-1.5h0.2c-0.3-0.2,0-1.1,0-1.5c0-1.8-1-2.8-1-4.1c-0.5,0,0.2-1.2-0.2-1.8c-0.1-0.2-0.4-0.1-0.5-0.2
					c-0.2-0.2-0.1-0.4-0.3-0.6c-0.6,0.7-0.9,1.9-1.9,1.9c-0.5,0-0.6-0.5-0.6-1c0-0.5,0.2-0.8,0.2-1.2c0-0.2-0.2-0.3-0.2-0.5
					c-0.3-0.9-0.7-1.5-1.1-2.1c-0.1-0.1-0.2-0.1-0.2-0.2H217c-0.6,0.6-1.5,0.8-2.1,1.4c-0.7,0.8-1.4,1.6-2.1,2.4
					c-0.3,0.3-0.7,0.8-1,0.9c-0.7,0.3-1.4,0.4-1.4,1.2c0,0.7,0.3,1.1,0.3,1.8c0,1-0.4,1.7-0.4,2.4l0.2,1.1l-0.2,0
					c0,0.1-0.3,0.1-0.4,0.2c-0.5,0.2-0.4,1.2-0.7,1.4c-0.4,0.3-0.5,0.1-0.7,0.5c-0.2,0.3-0.2,0.8-0.5,0.8c-0.3,0-0.5-0.1-0.5-0.4
					c-0.2,0-0.3-0.3-0.3-0.4c-0.3-1-0.7-1.8-0.9-2.6c-0.2-0.6-0.7-1-0.8-1.3c-0.3-0.6-0.1-1.2-0.4-1.7c-0.3-0.5-0.3-0.8-0.4-1.3
					c-0.2-0.6-0.8-2-1.1-2.8c-0.2-0.8-0.6-1.6-0.6-2.4c0-0.1,0-0.5,0-0.6l0,0c0-0.3,0.1-0.4,0.1-0.6h-15.3c0,0,0,0,0,0
					c-0.2,0.5-0.1,1.2-0.6,1.2c-0.5,0-0.5,1.2-1.1,1.2c-0.3,0-1,0.7-1,1.2c-1,0.2-3.2,0.7-3.2,1.5c0,0.1,0.1,0.3,0.1,0.4
					c-0.8,0.4-2,0.7-2.8,1c-0.4,0.1-1.9,1.3-2.4,1.5h-1.1c-0.6,0.5-0.7,0.8-1.5,0.8l-0.2,0.2c-0.1,0-1-0.5-1.1-0.6
					c-0.1,0,0.2,0,0-0.5c-0.4-0.6-0.6-1.3-0.6-2.1c-0.4,0-0.1-0.8-0.1-1.2c0.2-0.9-0.4-1.3-0.8-1.7c-0.5-0.5-1.5-1.9-1.5-2.8
					c-0.1,0-0.2,0-0.3-0.1h-3.2v0.6c0.4,1.1,1.1,1.1,1.6,1.9c0.7,1,0.3,2,0.9,2.8c0.6,0.7,1,0.7,1.6,1.2c0.6,0.5,0.9,2.2,2.1,2.2
					c0,0.7,0.4,0.8,0,1.3c0.5,0.4,0.9,1.7,1.6,1.7c0.6,0,0.6-0.5,1.1-0.7c0.6-0.2,0.9,0.1,1.5,0c1.4-0.2,2.7-0.9,4-1.2
					c0.1,0.2,0.3,0.4,0.3,0.6c0,2.3-1.6,5.3-2.5,6.7c-1.1,1.6-1.6,3.1-2.9,4.3c-2.4,2.1-5,2.7-5.9,6.3c-0.3,1-1.2,1.3-1.2,2.4
					c0,1.3,0.3,1.8,0.3,3c0,1.4,1.4,2.1,1.4,2.8c0,0.3-0.2,0.5-0.3,0.6v1c0,0.7-0.1,1.4-0.1,2.6c0.2,0.2,0.3,0.5,0.3,0.8
					c0,3.2-4.8,2.8-5.2,5.5c-0.5,0.1-1.1,0.8-1.1,1.2c0,0.9,1,1.5,1,2.7c0,0.7-0.1,2-0.3,2.3c-0.2,0.3-0.8,0.2-1.1,0.3
					c-0.9,0.5-1.4,0.9-1.8,1.9c0.3,0.2,0.5,0.5,0.5,0.9c0,1.1-1,2-1.5,2.5c-0.8,0.9-0.9,1.8-1.4,2.6c-0.9,1.3-1.3,2.4-2.8,3.2
					c-0.6,0.3-1.5,0-1.6,0.7c-0.5,0-0.8,0.3-1.1,0.3c-0.4,0-0.6-0.4-1-0.4c-1.5,0-2.4,1.2-3.8,1.2c-0.6,0-1-0.4-1.2-0.8
					c-0.2,0-0.3,0.2-0.4,0.2c0-0.8-0.4-1.7-0.7-2c0.3-0.3,0.5-0.7,0.5-1.1c0-0.7-1-1.9-1.2-2.2c-1.3-2.5-3-4.9-3-8.4V122
					c0-0.6-0.4-0.8-0.7-1.3c-1-1.9-2.1-3.4-2.1-6.1c0-2.8,2.3-3.5,2.3-5.7c0-1-0.4-1.4-0.5-2.3c-0.3-1.7-0.6-2.3-0.9-3.4
					c-0.3-0.8-0.2-1.7-0.6-2.4c-1-1.3-3-2.8-3-4.7c0-0.4,0.6-1.5,0.8-1.6c-0.1-0.4,0-0.4,0-0.6c0-0.5,0-1.7,0.4-2
					c-0.4-0.9-1.1-1.7-2.3-1.7h-1.5c-1.1,0-1.3-2.3-2.8-2.3c-1.8,0-3.2,0.9-4.5,1.4c-0.5,0.2-0.7,0.7-1.3,0.7
					c-0.5,0-1.5-0.6-2.2-0.6c-1.4,0-2,0.8-3.4,0.8c-0.4,0-0.9-0.2-1.1-0.3c-1-0.9-3.1-2.2-3.9-3.5c-0.7-1.2-0.9-2.1-1.8-3
					c-0.3-0.2-2.2-2.1-2.2-2.3c-0.2-0.3-0.3-0.3-0.5-0.6h0.1c0-0.6-0.2-0.9-0.2-1.3c0-0.6-0.3-0.8-0.6-1.3c0.8-0.5,1.5-2.6,1.5-3.6
					c0-1-0.2-1.9-0.4-2.7H51.6c0.1,0.1,0.2,0.2,0.3,0.2c-0.3,0.5-0.9,0.5-1.4,0.5c-0.8,0-1.4-0.3-2.1-0.3v-0.3
					c0.1,0,0.2-0.1,0.3-0.2H38.6c-0.2,0.4-0.4,0.8-0.4,1.2c0,0.7-0.2,0.9-0.4,1.3V74h-0.3v2c0,0.4-0.4,0.6-0.7,0.8v0.2
					c0,0.3,0.2,0.5,0.4,0.5c1.2,0,2.2-0.3,3.4-0.3c0.9,0,1.1,0.7,1.7,0.9v0.6c0,0.4,0,1.4-0.3,1.8v2.5c0,0.9,0.8,1.3,1.3,1.6
					c0.4,0.2,0.4,1,1,1c1,0,1.4-0.8,2.3-0.8c1,0,1.5,0.8,2,1.3c0,0-0.1,0.2-0.2,0.3c0.1-0.1,0.2-0.2,0.3-0.3c0.3,0.1,0.2,0.1,0.4,0
					v-0.3c0-0.1,0.1-0.2,0.2-0.2c0-0.4,0.4-0.5,0.6-0.7c0.2-0.2,0.3-0.7,0.3-1c0.2-0.6,0.5-0.8,1-0.9c0.9-0.3,1.4-0.5,2.4-0.8
					c0.5-0.2,0.6-0.8,1.1-0.8c0.2,0,0.3,0.5,0.3,0.5c0,0.3-0.2,0.5-0.4,0.5c-0.1,0.6-0.3,1.3-0.3,1.7c0,0.4,0.2,1.2,0.6,1.2
					c0.2,0,0.4-0.5,0.4-0.7c0-0.5-0.5-0.8-0.5-1.3c0-0.6,0.6-0.5,0.9-0.8h0.9c-0.2-0.5-0.7-0.3-0.7-0.8l0.6,0c0.1,0.7,1,0.9,1.5,1
					c0,0.4,0.2,0.7,0.4,0.7h2c0,0.4,0.4,0.4,0.7,0.4c0.5-0.1,0.9-0.1,1.1-0.6c0-0.1,0.8-0.1,0.9-0.2c0.4,0,1,0.1,1,0.1
					c-0.2,0.1-0.4,0.2-0.6,0.1v0.3c0.3,0.6,1,0.7,1.6,0.9c0.5,0.2,0.4,0.8,0.5,1.3h1c0.7,0.8,1,0.7,1.5,1.7c0.1,0.2,0.4,0.3,0.5,0.3
					c0.3,1.1,1.8,1,2.8,1.2h1c0.3,0.1,0.8,0.5,1.2,0.5v0.1h0.2c0.6,0,1.4,1.3,2,1.5c0,0.5,0.5,1.8,0.7,2.2c0.2,0.4,0.7,0.4,0.7,0.8
					c-0.6,0.8-1.6,1.2-1.6,2.4c0,0.4,0.3,0.4,0.5,0.5c0.4,0.2,0.5,0.5,0.6,0.9h0.9c0,0.1,0.1,0.5,0.2,0.5c0.2,0,0.3-0.3,0.4-0.5
					c0.4-0.7,0.8-1.5,1.4-1.5c0.7,0,2,0.8,2.4,1.1c0.3,0.2,0.6,0.1,0.7,0.4c0.1,0.4,0.1,0.7,0.1,1h0.3c0.3-0.2,0.5-0.5,0.8-0.5
					c0.8,0,0.9,0.7,1.6,0.7l1.4-0.2c0.7,0.2,1.3,0.4,1.7,0.7c0.3,0.6,1.5,1.7,2,1.9c0.5,0.2,0.8-0.1,1.3,0.1
					c0.7,0.2,0.9,1.1,0.9,1.9c0,3-1.5,3.8-2.5,5.4c-0.2,0.4-0.4,0.5-0.6,0.8c-0.4,0.6-0.8,0.7-1.1,1.1c-0.6,0.6,0,1.9,0,2.9
					c0,0.7-0.3,1.4-0.3,1.9c0,0.2-0.1,0.4-0.2,0.5c-0.2,0.2-0.5,0.6-0.5,0.9c0,0.4-0.1,1.2-0.2,1.4c-0.6,0.9-0.7,1.3-1.3,2.1
					c-0.2,0.3-0.1,0.7-0.2,0.9c-0.2,0.5-1,1.1-1.6,1.1c-0.7,0-1.2,0-1.8,0.2c-0.2,0.1-0.3,0.3-0.4,0.5c-0.9,1-1.8,0.4-2.4,1.5
					c-0.3,0.5-0.8,0.5-1.1,0.9c-0.5,0.5-0.4,1.1-0.4,1.9v1.9c-0.7,0.4-1.1,1.1-1.5,1.9v0c-0.3,0.5-0.2,0.8-0.5,1.3
					c-0.7,1.1-1.4,1.2-2,2.3c-0.7,1.2-1,3.2-2.7,3.2c-0.6,0-1.4-0.5-1.6-0.5c-0.5,0-1-0.5-1.5-0.5c-0.1,0-0.3,0.1-0.3,0.2
					c0,0.4,0.6,0.6,0.7,0.7c0.3,0.3,0.3,0.8,0.4,1.3c0.1,0.5,0.7,0.5,0.7,0.9c0,0.5,0,0.8-0.2,1.1c-0.3,0.6-0.6,0.8-1,1.2
					c-0.6,0.7-1.4,0.5-2.3,0.8c-0.6,0.2-1.8-0.3-2.1,0.1c-0.5,0.5-0.1,1.7-0.4,2.3v0.4c0,0.2-0.6,0.5-0.8,0.5
					c-0.8,0-0.9-0.6-1.6-0.6c-0.3,0-0.4,0.3-0.4,0.5c0,0.6,0.5,1.6,0.8,1.6c0.2,0,0.4-0.3,0.5-0.3c0.1,0.2,0.3,0.2,0.3,0.4
					c0,0.3-0.3,0.5-0.4,0.5c-0.4,0-0.6-0.4-0.9-0.4c0,0.5,0.2,0.5,0.4,0.6c-0.7,0.7-0.7,1.5-0.9,2.5c-0.1,0.5-0.7,0.5-1,0.5
					c-0.6,0.2-1.1,0.7-1.1,1.4c0,1.6,1.6,1,1.6,2.3c0,1.1-0.9,1.3-1.4,1.8c-0.3,0.3-0.2,0.9-0.4,1.4c-0.3,0.6-0.8,0.3-1.2,0.7
					c-0.4,0.5-0.6,1.1-0.6,1.8c0,0.4,0.3,0.9,0.6,0.9c0.2,0.1,0.4,0.4,0.5,0.8c17.8,10.5,38.6,17,60.8,17c52.8,0,97.6-34.6,113.6-82
					c-0.3-0.5-0.5-1-0.8-1.6c-0.1-0.2-0.5-1-0.6-1c-0.1,0,0-0.2-0.1-0.4c0-0.1-0.5-0.1-0.6-0.2c-0.2-0.1-0.4-1.1-0.5-1.4
					c-0.3-0.9-1.1-0.8-1.4-1.3c-0.2-0.5-0.3-0.7-0.5-1.2c-0.2-0.4-0.5-0.3-0.8-0.4c-0.3-0.1-0.9-1.2-1-1.6v-0.3h0.2
					c0.4,0,0.4,0.2,0.7,0.4h1.2c0.8,0.3,1.1,0.9,1.4,1.5c0.1,0.2,0.3,0.2,0.4,0.2c0.5,0.2,0.8,0.7,1.2,1.1c0.7,0.8,1.1,1.3,2.1,1.7
					c0.2,0.1,0.3,0.1,0.5,0.2c0.1-0.2,0.2-0.5,0.2-0.7C233.3,92.4,232.4,91.3,232,90z M48.6,74.8c-0.3,0-0.6-0.3-0.6-0.6
					c0-0.2,0.2-0.2,0.4-0.2c0.4,0,0.9,0.2,1.2,0.3l-0.1-0.1c0.2,0.1,0.3,0.2,0.3,0.4C49.3,74.6,49,74.8,48.6,74.8z M56.7,74.1
					c-0.3,0.2-0.4,0.3-0.7,0.3c-0.2,0-0.2-0.2-0.4-0.2c-0.5,0-0.5,0.7-0.8,0.7c-0.3,0-0.3-0.4-0.4-0.5c-0.3-0.3-1.2-0.1-1.6-0.1
					c-0.3,0-0.3,0.1-0.4,0c0,0.1,0,0.2,0,0.3c-0.2-0.1-0.4-0.4-0.4-0.7c0.1,0,0.1-0.1,0.2-0.2c0.8,0,1.2,0.2,1.6,0
					c-0.2-0.3-0.3-0.5-0.3-0.9c-0.2,0-0.5-0.2-0.5-0.5c0-0.1,0.2-0.3,0.3-0.3c0.3,0,0.6,0.3,0.9,0.3c0.5,0,0.7-0.2,1.1-0.2
					c1.2,0,1.4,0.7,2,1.1l-0.2-0.2c0.4,0.3,0.7,0.5,1,0.9H56.7z M60.3,74.5c-0.4,0-0.9,0-0.9-0.4c0-0.2,0.3-0.3,0.4-0.3
					c0.1,0,1,0.2,1.1,0.5C60.8,74.5,60.5,74.5,60.3,74.5z M65.8,83.5c-0.1,0.2-0.2,0.5-0.4,0.5c-0.1,0-0.3,0.1-0.3,0
					c0-0.4,0.2-0.8,0.4-0.8h0.3V83.5z M77.8,97.5c-0.6,0-1.5-0.7-1.5-1.1c0-0.6,0.3-1,0.7-1c0,0,0.2,0,0.2,0
					c0.2,0.2,0.5,0.4,0.8,0.4c0.1,0.5,0.4,0.1,0.6,0.1c0.2,0,0.3,0.3,0.3,0.4C78.8,96.6,78.2,97.5,77.8,97.5z M180.1,113.9
					c-0.2-0.1-0.6-0.2-0.6-0.2c0,2.9-0.8,5-1.6,7.3c-0.7,1.8-1,4.5-3.2,4.5c-0.9,0-1.7-1.2-1.7-2.2c0-0.5,0.1-0.7,0.1-1
					c-0.4-0.4-0.4-1-0.4-1.6c0-0.2,0.7-0.8,0.7-0.8c0,0,0.7-1.7,0.7-1.8c0-0.5-0.5-1.5-0.5-2.1c0-2,1.3-1.9,2.4-2.5
					c0.8-0.5,2-2.1,2.5-2.7c0.2-0.2,0.1-0.9,0.2-1.2c1.2,0.2,1.1,2.8,1.5,3.8V113.9z M183.6,81.1c-0.1,0-0.4-0.1-0.4-0.3
					c0.3-0.1,0.6-0.2,1.1-0.2C184.2,80.8,183.9,81.1,183.6,81.1z M211.3,88.3c-0.5,0-0.9-0.6-0.9-1.1c0-1.2,0.5-2.1,0.5-3.3
					c0.5,1,1.6,1.5,1.6,2.8C212.4,87.3,212,88.3,211.3,88.3z M230.2,96.2h0.3v0.2c0.2,0.3,0.4,0.5,0.4,0.9c-0.2,0-0.7-0.7-0.7-1
					V96.2z M229.1,93.7c0.2,0.2,0.8,1,0.5,1c-0.2,0-0.6-0.7-0.7-0.9h0L229.1,93.7z M29,72.2c0.7,0.7,0.7,1.4,1.6,1.7
					c0.3,0.1,0.3,0.5,0.6,0.5c0.7,0,1.3-0.6,2-0.6c0.4,0,0.6,0.3,0.7,0.3c0.3,0,0.5-0.5,0.5-0.7c0.1-0.5,0.8-1,0.8-1.6
					c0-0.1,0-0.1,0-0.2h-6.6C28.7,71.9,28.9,72.1,29,72.2z"/>
			</g>
		</g>
	</g>
	<g>
		<path class="st0" d="M81.2,24.8c-2,0-3.7,0-5.6,0c0-8.2,0-16.3,0-24.6c1.3,0,2.6-0.1,3.9,0c0.4,0,0.8,0.5,1.1,0.9
			c3.3,4.1,6.5,8.2,9.8,12.3c0.2,0.3,0.5,0.6,0.9,1.1c0-4.9,0-9.5,0-14.3c1.9,0,3.8,0,5.6,0c0,8.2,0,16.3,0,24.6c-1.4,0-2.8,0-4.2,0
			c-0.3,0-0.6-0.4-0.9-0.7c-3.2-3.9-6.3-7.8-9.4-11.7c-0.3-0.4-0.7-0.8-1.2-1.5C81.2,15.7,81.2,20.2,81.2,24.8z"/>
		<path class="st0" d="M134,0.1c-1.1,3.1-2.2,5.9-3.2,8.8c-1.9,5-3.7,10-5.6,15.1c-0.3,0.8-0.6,1.1-1.5,1.1c-2.8,0-2.8,0-3.8-2.7
			c-0.9-2.6-1.9-5.1-3-8c-0.9,2.3-1.6,4.4-2.4,6.4c-0.4,1.1-0.9,2.3-1.2,3.4c-0.2,0.6-0.5,0.8-1.2,0.8c-3,0-3,0-4-2.8
			c-2.6-7-5.2-14-7.8-21c-0.1-0.3-0.2-0.7-0.4-1.1c1.2,0,2.3-0.1,3.3,0c0.3,0,0.7,0.5,0.8,0.9c2.2,5.7,4.3,11.5,6.4,17.3
			c0.1,0.4,0.3,0.7,0.5,1.3c1-2.8,1.9-5.4,3-7.9c0.9-1.9,0.8-3.6,0-5.4c-0.9-2-1.5-4-2.3-6.2c1.2,0,2.4,0,3.5,0
			c0.2,0,0.5,0.4,0.7,0.6c0.4,0.9,0.7,1.7,1.1,2.9c0.4-1.1,0.7-2,1.1-2.8c0.2-0.3,0.6-0.7,1-0.7c1-0.1,1.9,0,3.1,0
			C122,0.5,122,0.8,121.9,1c-0.9,2.4-1.8,4.8-2.6,7.2c-0.2,0.5-0.2,1.1-0.1,1.6c1.1,3.1,2.2,6.1,3.4,9.1c0.1,0.2,0.2,0.3,0.4,0.6
			c1.4-3.8,2.8-7.5,4.1-11.1c0.9-2.5,1.9-5,2.8-7.5c0.2-0.6,0.5-0.9,1.2-0.8C131.9,0.2,132.9,0.1,134,0.1z"/>
		<path class="st0" d="M6.5,12.9c0.1-4.7,1.7-8.2,5.2-10.7c5-3.6,11.7-2.6,15.4,2.3c4.1,5.3,3.6,12.9-1.1,17.4
			c-6.6,6.2-16.9,2.9-19.1-6.3C6.7,14.6,6.6,13.5,6.5,12.9z M18.4,19.9c1.6,0.1,3-0.7,4-2c2.2-2.8,2.3-7.6,0.2-10.4
			c-2.3-3.2-6.7-3.1-8.9,0.1c-1.9,2.8-1.9,7.3,0.1,10.1C15,19.2,16.4,20,18.4,19.9z"/>
		<path class="st0" d="M71.9,24.8c-5.7,0-11.4,0-17.1,0c0-8.2,0-16.3,0-24.5c5.6,0,11.1,0,16.8,0c0,1.7,0,3.3,0,5c-3.7,0-7.3,0-11,0
			c0,1.6,0,3.1,0,4.7c3.1,0,6.3,0,9.5,0c0,1.6,0,3,0,4.6c-3.2,0-6.3,0-9.5,0c0,1.8,0,3.5,0,5.3c3.8,0,7.5,0,11.4,0
			C71.9,21.5,71.9,23.1,71.9,24.8z"/>
		<path class="st0" d="M33.3,24.7c0-8.2,0-16.3,0-24.5c0.8,0,1.5,0,2.1,0c3.1,0,6.3-0.1,9.4,0.2c4.1,0.4,7.2,4.6,6.9,8.8
			c-0.3,4.5-3.7,7.7-8,7.7c-1.5,0-3,0-4.7,0c0,2.6,0,5.2,0,7.9C37.1,24.7,35.3,24.7,33.3,24.7z M39,11.9c1.4,0,2.8,0,4.1,0
			c1.6,0,2.5-0.8,2.8-2.2c0.4-1.9-0.2-3.6-1.5-4.2c-0.1-0.1-0.3-0.2-0.4-0.2c-1.7,0-3.3,0-5,0C39,7.5,39,9.6,39,11.9z"/>
		<path class="st0" d="M205.5,24.8c0-8.2,0-16.3,0-24.4c0.1-0.1,0.2-0.2,0.2-0.2c3.3,0,6.7-0.2,10,0.1c5.9,0.5,9.8,4.6,10.3,10.4
			c0.2,2.8,0,5.5-1.3,8c-1.8,3.6-4.9,5.6-8.9,5.9C212.5,25,209,24.8,205.5,24.8z M209.4,21.3c1.9,0,3.8,0.1,5.6,0
			c2.9-0.2,5-1.6,6.2-4.2c1.4-3,1.3-6.1,0.1-9.1c-0.8-1.9-2.2-3.2-4.2-3.9c-2.5-0.9-5.1-0.4-7.7-0.5
			C209.4,9.6,209.4,15.4,209.4,21.3z"/>
		<path class="st0" d="M162,0.2c1.9,0,3.8,0,5.7,0c1.9,0,3.8-0.1,5.7,0.1c3.4,0.3,6.1,3.1,6.7,6.6c0.6,3.5-1,6.8-4.1,8.4
			c-0.2,0.1-0.3,0.2-0.6,0.3c1.9,3,3.8,6,5.8,9.3c-1.5,0-2.8,0-4.1,0c-0.3,0-0.6-0.4-0.8-0.7c-1.5-2.3-2.9-4.5-4.3-6.9
			c-0.4-0.6-0.8-0.9-1.6-0.9c-1.5,0.1-3,0-4.6,0c0,2.8,0,5.6,0,8.4c-1.3,0-2.6,0-3.9,0C162,16.6,162,8.5,162,0.2z M165.8,12.8
			c2.3,0,4.3,0,6.4,0c1.7,0,2.8-0.8,3.5-2.2c1.4-2.8-0.1-6.6-2.9-6.8c-2.3-0.2-4.6,0-7,0c0,0.4,0,0.6,0,0.9
			C165.8,7.3,165.8,10,165.8,12.8z"/>
		<path class="st0" d="M134.7,13.3c0.1-4.5,1.4-7.7,4.1-10.2c4.4-4.1,11.1-4,15.4,0.3c4.5,4.5,5.1,12,1.1,17.1
			c-2.8,3.6-6.4,5.2-11,4.4c-4.4-0.8-7.2-3.6-8.8-7.7C135,15.7,134.8,14.1,134.7,13.3z M153.9,12.5c0-2.1-0.5-4-1.8-5.7
			c-3.1-4.3-9-4.2-11.9,0.2c-2.3,3.6-2.3,7.4-0.1,11c2.9,4.7,9.1,4.7,12.1,0.2C153.5,16.4,154,14.5,153.9,12.5z"/>
		<path class="st0" d="M185.2,0.2c1.2,0,2.4,0,3.7,0c0,7,0,14,0,21.1c4.5,0,8.7,0,13.1,0c0,1.2,0,2.3,0,3.4c-5.6,0-11.2,0-16.8,0
			C185.2,16.6,185.2,8.5,185.2,0.2z"/>
		<path class="st0" d="M115.3,25c0.5-1.6,1-3,1.6-4.9c0.6,1.8,1.2,3.3,1.7,4.9C117.5,25,116.5,25,115.3,25z"/>
	</g>
	<path class="st0" d="M68.9,34.4h5c2.7,0,4.7,0.2,5.9,0.7c1.2,0.5,2.1,1.3,2.8,2.4c0.7,1.1,1.1,2.5,1.1,4c0,1.6-0.4,3-1.2,4.1
		c-0.8,1.1-2,1.9-3.5,2.5l5.9,11h-5.2L74,48.7h-0.4v10.5h-4.7V34.4z M73.6,44.1h1.5c1.5,0,2.5-0.2,3.1-0.6c0.6-0.4,0.8-1,0.8-2
		c0-0.5-0.1-1-0.4-1.4c-0.3-0.4-0.7-0.7-1.1-0.9C77,39.1,76.2,39,74.9,39h-1.3V44.1z"/>
	<path class="st0" d="M88.6,34.4h13.5V39h-8.9v4.5h8.9V48h-8.9v6.5h8.9v4.6H88.6V34.4z"/>
	<path class="st0" d="M106.6,34.4h4.7v20.3h6.9v4.5h-11.6V34.4z"/>
	<path class="st0" d="M121.4,34.4h4.7v24.8h-4.7V34.4z"/>
	<path class="st0" d="M131.4,34.4H145V39h-8.9v4.5h8.9V48h-8.9v6.5h8.9v4.6h-13.5V34.4z"/>
	<path class="st0" d="M149.4,34.4h12.3V39h-7.6v4.5h7.6V48h-7.6v11.2h-4.7V34.4z"/>
	<path class="st0" d="M237.5,72.2c-5.7,60.2-56.5,107.4-118.1,107.4S7,132.3,1.3,72.2H0c5.7,60.9,57.1,108.7,119.4,108.7
		c62.4,0,113.8-47.8,119.4-108.7H237.5z"/>
</g>
</svg>
