<svg width="22" height="28" viewBox="0 0 22 28" version="1.1" xmlns="http://www.w3.org/2000/svg" xmlns:xlink="http://www.w3.org/1999/xlink">
<title>Group</title>
<desc>Created using Figma</desc>
<g id="Canvas" transform="translate(1372 -1209)">
<g id="Group">
<g id="Vector">
<use xlink:href="#path0_fill" transform="translate(-1372 1209)" fill="#EB5757"/>
</g>
</g>
</g>
<defs>
<path id="path0_fill" d="M 10.612 0.00703587C 5.13361 0.200759 0.581247 4.54159 0.0510799 10.0806C -0.0549535 11.1856 0.0086665 12.2618 0.199527 13.2878C 0.199527 13.2878 0.213664 13.4098 0.270216 13.6394C 0.439869 14.4071 0.694349 15.1533 1.01245 15.8564C 2.1152 18.5112 4.66707 22.9453 10.3858 27.774C 10.7392 28.0753 11.2482 28.0753 11.6087 27.774C 17.3345 22.9524 19.8793 18.5183 20.9891 15.8493C 21.3143 15.1461 21.5617 14.4071 21.7314 13.6322C 21.7809 13.4098 21.8021 13.2806 21.8021 13.2806C 21.9293 12.5919 22 11.8887 22 11.164C 22.0071 4.86446 16.868 -0.215387 10.612 0.00703587ZM 11.0008 16.7246C 8.046 16.7246 5.65671 14.2995 5.65671 11.3004C 5.65671 8.30125 8.046 5.87612 11.0008 5.87612C 13.9556 5.87612 16.3449 8.30125 16.3449 11.3004C 16.3449 14.2923 13.9556 16.7246 11.0008 16.7246Z"/>
</defs>
</svg>
