<svg width="18" height="18" viewBox="0 0 18 18" version="1.1" xmlns="http://www.w3.org/2000/svg" xmlns:xlink="http://www.w3.org/1999/xlink">
<title>Group 2</title>
<desc>Created using Figma</desc>
<g id="Canvas" transform="translate(2845 681)">
<g id="Group 2">
<g id="Group">
<g id="Vector">
<use xlink:href="#path0_fill" transform="translate(-2845 -681)" fill="#2D9CDB"/>
</g>
</g>
</g>
</g>
<defs>
<path id="path0_fill" fill-rule="evenodd" d="M 17.5551 15.4472L 13.6449 11.5337C 13.627 11.5157 13.6 11.4977 13.582 11.4797C 14.3551 10.3101 14.8045 8.91566 14.8045 7.41322C 14.8045 3.31976 11.4876 0 7.39775 0C 3.30787 0 0 3.31976 0 7.40422C 0 11.4977 3.31685 14.8084 7.39775 14.8084C 8.89888 14.8084 10.3011 14.3586 11.4607 13.5849C 11.4787 13.6029 11.4966 13.6299 11.5146 13.6479L 15.4247 17.5614C 16.009 18.1462 16.9618 18.1462 17.5551 17.5614C 18.1483 16.9856 18.1483 16.032 17.5551 15.4472ZM 7.39775 12.2444C 4.72809 12.2444 2.5618 10.0762 2.5618 7.40422C 2.5618 4.73223 4.72809 2.56404 7.39775 2.56404C 10.0674 2.56404 12.2337 4.73223 12.2337 7.40422C 12.2337 10.0762 10.0674 12.2444 7.39775 12.2444Z"/>
</defs>
</svg>
