<svg width="19" height="19" viewBox="0 0 19 19" fill="none" xmlns="http://www.w3.org/2000/svg">
<path fill-rule="evenodd" clip-rule="evenodd" d="M17.8536 16.3651L13.877 12.3274C13.8587 12.3088 13.8313 12.2903 13.813 12.2717C14.5992 11.065 15.0563 9.62629 15.0563 8.07618C15.0563 3.85283 11.683 0.427734 7.52356 0.427734C3.36412 0.427734 0 3.85283 0 8.0669C0 12.2903 3.37326 15.7061 7.52356 15.7061C9.05022 15.7061 10.4763 15.242 11.6556 14.4437C11.6739 14.4623 11.6922 14.4901 11.7104 14.5087L15.687 18.5464C16.2812 19.1497 17.2503 19.1497 17.8536 18.5464C18.457 17.9523 18.457 16.9684 17.8536 16.3651ZM7.52356 13.0607C4.8085 13.0607 2.60537 10.8237 2.60537 8.0669C2.60537 5.31012 4.8085 3.07313 7.52356 3.07313C10.2386 3.07313 12.4418 5.31012 12.4418 8.0669C12.4418 10.8237 10.2386 13.0607 7.52356 13.0607Z" fill="#4F4F4F"/>
</svg>
