<svg width="13" height="13" viewBox="0 0 13 13" version="1.1" xmlns="http://www.w3.org/2000/svg" xmlns:xlink="http://www.w3.org/1999/xlink">
<title>Group</title>
<desc>Created using Figma</desc>
<g id="Canvas" transform="translate(918 803)">
<g id="Group">
<g id="Vector">
<use xlink:href="#path0_fill" transform="translate(-918 -803)" fill="#2D9CDB"/>
</g>
</g>
</g>
<defs>
<path id="path0_fill" fill-rule="evenodd" d="M 12.6787 11.1563L 9.85468 8.32988C 9.8417 8.31688 9.82222 8.30389 9.80924 8.29089C 10.3675 7.44621 10.6921 6.43909 10.6921 5.35399C 10.6921 2.3976 8.29663 0 5.34282 0C 2.38901 0 0 2.3976 0 5.3475C 0 8.30389 2.39551 10.695 5.34282 10.695C 6.42697 10.695 7.4397 10.3701 8.27715 9.81132C 8.29014 9.82432 8.30312 9.84381 8.3161 9.8568L 11.1401 12.6832C 11.562 13.1056 12.2502 13.1056 12.6787 12.6832C 13.1071 12.2674 13.1071 11.5787 12.6787 11.1563ZM 5.34282 8.84318C 3.41473 8.84318 1.85019 7.27727 1.85019 5.3475C 1.85019 3.41772 3.41473 1.85181 5.34282 1.85181C 7.27091 1.85181 8.83546 3.41772 8.83546 5.3475C 8.83546 7.27727 7.27091 8.84318 5.34282 8.84318Z"/>
</defs>
</svg>
