<svg width="20" height="19" viewBox="0 0 20 19" fill="none" xmlns="http://www.w3.org/2000/svg">
<rect width="19.0273" height="19" fill="black" fill-opacity="0" transform="translate(19.7) scale(-1 1)"/>
<rect width="19.0273" height="19" fill="black" fill-opacity="0" transform="translate(19.7) scale(-1 1)"/>
<path d="M17.2574 0H3.1152C1.77181 0 0.672678 1 0.672678 2.43902V16.561C0.672678 18 1.77181 19 3.1152 19H17.2574C18.6008 19 19.7 18 19.7 16.561V2.43902C19.7 1 18.6008 0 17.2574 0ZM5.82641 2.12195C6.29049 2.12195 6.68129 2.5122 6.68129 2.97561V5.02439C6.68129 5.4878 6.29049 5.87805 5.82641 5.87805H3.67698C3.21291 5.87805 2.8221 5.4878 2.8221 5.02439V2.97561C2.8221 2.5122 3.21291 2.12195 3.67698 2.12195H5.82641ZM2.8221 8.02439H4.50744C4.36089 8.53659 4.26319 9.09756 4.26319 9.65854C4.26319 12.8293 6.90112 15.3902 10.1741 15.3902C13.4471 15.3902 16.085 12.8293 16.085 9.65854C16.085 9.09756 15.9873 8.53659 15.8408 8.02439H17.575V16.0488C17.575 16.4634 17.233 16.8049 16.8178 16.8049H3.57928C3.16405 16.8049 2.8221 16.4634 2.8221 16.0488V8.02439ZM10.1741 5.7561C12.2747 5.7561 13.9844 7.41463 13.9844 9.46341C13.9844 11.5122 12.2747 13.1707 10.1741 13.1707C8.07353 13.1707 6.36376 11.5122 6.36376 9.46341C6.36376 7.41463 8.0491 5.7561 10.1741 5.7561Z" fill="#4F4F4F"/>
</svg>
