<svg width="25" height="19" viewBox="0 0 25 19" fill="none" xmlns="http://www.w3.org/2000/svg">
<rect width="23.4182" height="19" fill="black" fill-opacity="0" transform="translate(0.981934)"/>
<rect width="23.4182" height="19" fill="black" fill-opacity="0" transform="translate(0.981934)"/>
<path d="M24.4001 2.25019C23.5392 2.63239 22.6112 2.89037 21.6403 3.00503C22.6304 2.41262 23.3909 1.47146 23.7496 0.353533C22.8169 0.902942 21.7933 1.30425 20.698 1.51924C19.8227 0.582851 18.5791 0 17.1967 0C14.5421 0 12.3945 2.14986 12.3945 4.79658C12.3945 5.174 12.4375 5.53709 12.5188 5.89062C8.52492 5.68997 4.98541 3.77898 2.61776 0.879055C2.20163 1.58612 1.96726 2.41262 1.96726 3.29168C1.96726 4.95424 2.81387 6.4257 4.10531 7.28564C3.3161 7.26175 2.5795 7.04199 1.92899 6.68368V6.74579C1.92899 9.06764 3.58395 11.0073 5.78419 11.4516C5.38241 11.5615 4.95671 11.6188 4.51666 11.6188C4.20576 11.6188 3.90442 11.5901 3.61265 11.528C4.22489 13.4342 5.99943 14.8245 8.09922 14.8627C6.44905 16.1431 4.37795 16.9075 2.12988 16.9075C1.74245 16.9075 1.3598 16.8836 0.981934 16.8406C3.11042 18.2022 5.63113 19 8.34795 19C17.1872 19 22.0181 11.6905 22.0181 5.35077L22.0038 4.7297C22.9413 4.05607 23.7592 3.21046 24.4001 2.25019Z" fill="#4F4F4F"/>
</svg>
