<svg width="12" height="19" viewBox="0 0 12 19" fill="none" xmlns="http://www.w3.org/2000/svg">
<rect width="11.7091" height="19" fill="black" fill-opacity="0"/>
<rect width="11.7091" height="19" fill="black" fill-opacity="0"/>
<rect width="11.7091" height="19" fill="black" fill-opacity="0"/>
<path d="M11.2587 0H8.44406C5.29161 0 3.26504 1.82835 3.26504 4.6697V6.81925H0.45035C0.197028 6.81925 0 6.9922 0 7.21456V10.3277C0 10.5501 0.197028 10.723 0.45035 10.723H3.26504V18.6047C3.26504 18.827 3.46206 19 3.71538 19H7.40262C7.65594 19 7.85297 18.827 7.85297 18.6047V10.723H11.1462C11.3995 10.723 11.5965 10.5501 11.5965 10.3277V7.21456C11.5965 7.11573 11.5402 7.0169 11.4558 6.94278C11.3713 6.86866 11.2587 6.81925 11.1462 6.81925H7.82483V4.9909C7.82483 4.10143 8.05 3.6567 9.3729 3.6567H11.2587C11.5121 3.6567 11.7091 3.48375 11.7091 3.26138V0.395319C11.7091 0.172952 11.5121 0 11.2587 0Z" fill="#4F4F4F"/>
</svg>
