<svg width="22" height="20" viewBox="0 0 22 20" fill="none" xmlns="http://www.w3.org/2000/svg">
<path d="M17.982 13.7512H16.6427C15.1622 13.7512 13.9641 12.6334 13.9641 11.252V10.4515C14.5553 9.7925 14.9791 9.01637 15.2459 8.19632C15.272 8.05964 15.4185 7.99131 15.5127 7.89368C16.0254 7.41532 16.1248 6.60991 15.7429 6.03392C15.6906 5.94605 15.5964 5.87283 15.6016 5.76056C15.6016 5.02837 15.6069 4.2913 15.6016 3.55911C15.5807 2.6756 15.3087 1.75304 14.6443 1.09895C14.1054 0.571773 13.373 0.254491 12.6144 0.117815C11.6518 -0.0530296 10.6473 -0.043267 9.70041 0.181271C8.87381 0.376522 8.09954 0.825599 7.62347 1.49433C7.19971 2.0752 7.01137 2.77811 6.98521 3.47125C6.97475 4.21808 6.97998 4.96492 6.97998 5.71175C7.00091 5.86307 6.85965 5.9607 6.80211 6.08761C6.44113 6.70265 6.59807 7.53735 7.18401 7.98154C7.3305 8.07429 7.35666 8.25001 7.4142 8.40133C7.66532 9.13841 8.08908 9.82178 8.6227 10.4173V11.2471C8.6227 12.6285 7.42466 13.7463 5.94413 13.7463H4.58915C4.58915 13.7463 2.16169 14.3711 0.571289 17.4951V18.7496C0.571289 19.4428 1.16769 19.9992 1.91057 19.9992H20.6606C21.4035 19.9992 21.9999 19.4379 21.9999 18.7496V17.5C20.4095 14.376 17.982 13.7512 17.982 13.7512Z" fill="#4F4F4F"/>
</svg>
