<svg width="16" height="13" viewBox="0 0 16 13" version="1.1" xmlns="http://www.w3.org/2000/svg" xmlns:xlink="http://www.w3.org/1999/xlink">
<title>Group</title>
<desc>Created using Figma</desc>
<g id="Canvas" transform="translate(987 803)">
<g id="Group">
<g id="Vector">
<use xlink:href="#path0_fill" transform="translate(-987 -803)" fill="#2D9CDB"/>
</g>
</g>
</g>
<defs>
<path id="path0_fill" d="M 16 1.5396C 15.4118 1.80111 14.7778 1.97762 14.1144 2.05607C 14.7908 1.65074 15.3105 1.00679 15.5556 0.241891C 14.9183 0.617802 14.219 0.892381 13.4706 1.03948C 12.8725 0.398793 12.0229 0 11.0784 0C 9.26471 0 7.79739 1.47096 7.79739 3.28187C 7.79739 3.54011 7.8268 3.78853 7.88235 4.03043C 5.15359 3.89314 2.73529 2.58562 1.11765 0.601458C 0.833333 1.08524 0.673203 1.65074 0.673203 2.2522C 0.673203 3.38974 1.25163 4.39653 2.13399 4.98491C 1.59477 4.96857 1.0915 4.8182 0.647059 4.57304L 0.647059 4.61554C 0.647059 6.20417 1.77778 7.5313 3.28105 7.8353C 3.00654 7.91048 2.71569 7.94971 2.41503 7.94971C 2.20261 7.94971 1.99673 7.9301 1.79739 7.8876C 2.21569 9.19185 3.4281 10.1431 4.86275 10.1692C 3.73529 11.0453 2.32026 11.5683 0.784314 11.5683C 0.519608 11.5683 0.25817 11.5519 0 11.5225C 1.45425 12.4541 3.17647 13 5.03268 13C 11.0719 13 14.3725 7.99874 14.3725 3.66105L 14.3627 3.23611C 15.0033 2.77521 15.5621 2.19663 16 1.5396Z"/>
</defs>
</svg>
