<svg width="16" height="16" viewBox="0 0 16 16" fill="none" xmlns="http://www.w3.org/2000/svg">
<path d="M7.97188 14.6675H1.99375C1.62812 14.6675 1.32812 14.3696 1.32812 13.9996V2.00039C1.32812 1.63355 1.625 1.33255 1.99375 1.33255H7.975C8.34375 1.33255 8.64062 1.03469 8.64062 0.664707C8.64062 0.294729 8.34063 0 7.97188 0H1.99375C0.89375 0 0 0.896727 0 2.00039V13.9996C0 15.1033 0.89375 16 1.99375 16H7.975C8.34375 16 8.64062 15.7021 8.64062 15.3322C8.6375 14.9653 8.34063 14.6675 7.97188 14.6675Z" fill="#2D9CDB"/>
<path d="M15.8029 7.52565L11.7623 3.52487C11.5029 3.26776 11.0811 3.2709 10.8217 3.53114C10.5654 3.79451 10.5654 4.21466 10.8279 4.4749L13.7154 7.33439H5.98105C5.6123 7.33439 5.31543 7.63226 5.31543 8.00224C5.31543 8.37221 5.6123 8.67008 5.98105 8.67008H13.7186L10.8311 11.5296C10.5686 11.7867 10.5686 12.21 10.8248 12.4733C10.9561 12.605 11.1279 12.6709 11.2967 12.6709C11.4654 12.6709 11.6342 12.6082 11.7623 12.4796L15.8029 8.47882C15.9279 8.3534 15.9998 8.18409 15.9998 8.00537C15.9998 7.82665 15.9279 7.65107 15.8029 7.52565Z" fill="#2D9CDB"/>
</svg>
