<svg width="16" height="17" viewBox="0 0 16 17" fill="none" xmlns="http://www.w3.org/2000/svg">
<path d="M13.7931 10.8379V14.7337H2.2069V10.8379H0V15.8671C0 16.5046 0.482759 17.0004 1.10345 17.0004H14.8966C15.5172 17.0004 16 16.5046 16 15.8671V10.8379H13.7931V10.8379Z" fill="#2D9CDB"/>
<path d="M7.79369 10.4125L4.62128 6.51667C4.62128 6.51667 4.13852 6.02083 4.69024 6.02083H6.48335V0.283333C6.48335 0.283333 6.41438 0 6.82817 0H9.3799C9.65576 0 9.65576 0.2125 9.65576 0.2125V5.87917H11.3109C11.9316 5.87917 11.4489 6.375 11.4489 6.375C11.4489 6.375 8.75921 10.0583 8.34542 10.4833C8.06955 10.7667 7.79369 10.4125 7.79369 10.4125Z" fill="#2D9CDB"/>
</svg>
